linja insa.glyphspackage
{
glyphname = zero;
layers = (
{
layerId = m01;
name = Regular;
shapes = (
{
closed = 1;
nodes = (
(1333,-20,o),
(1524,259,o),
(1524,744,cs),
(1524,1227,o),
(1330,1510,o),
(1000,1510,cs),
(670,1510,o),
(476,1227,o),
(476,744,cs),
(476,258,o),
(668,-20,o),
(1000,-20,cs)
);
},
{
closed = 1;
nodes = (
(782,146,o),
(659,366,o),
(659,744,cs),
(659,1123,o),
(782,1345,o),
(1000,1345,cs),
(1218,1345,o),
(1341,1124,o),
(1341,744,cs),
(1341,366,o),
(1218,146,o),
(1000,146,cs)
);
}
);
width = 2000;
},
{
layerId = "6D287F59-47E8-4638-B138-818E25D25DE1";
shapes = (
{
closed = 1;
nodes = (
(1284,-20,o),
(1457,271,o),
(1457,744,cs),
(1457,1219,o),
(1284,1510,o),
(1001,1510,cs),
(716,1510,o),
(543,1219,o),
(543,744,cs),
(543,271,o),
(716,-20,o),
(1001,-20,cs)
);
},
{
closed = 1;
nodes = (
(746,26,o),
(589,297,o),
(589,744,cs),
(589,1193,o),
(746,1464,o),
(1001,1464,cs),
(1254,1464,o),
(1411,1193,o),
(1411,744,cs),
(1411,297,o),
(1254,26,o),
(1001,26,cs)
);
}
);
width = 2000;
},
{
layerId = "6553A8EE-D982-49E3-AD79-1FB562774AD6";
shapes = (
{
closed = 1;
nodes = (
(1415,-20,o),
(1658,263,o),
(1658,744,cs),
(1658,1225,o),
(1414,1510,o),
(1000,1510,cs),
(586,1510,o),
(342,1226,o),
(342,744,cs),
(342,263,o),
(586,-20,o),
(1000,-20,cs)
);
},
{
closed = 1;
nodes = (
(845,308,o),
(762,461,o),
(762,744,cs),
(762,1027,o),
(847,1184,o),
(1000,1184,cs),
(1154,1184,o),
(1238,1028,o),
(1238,744,cs),
(1238,461,o),
(1154,308,o),
(1000,308,cs)
);
}
);
width = 2000;
}
);
unicode = 48;
}
{
glyphname = one;
layers = (
{
layerId = m01;
name = Regular;
shapes = (
{
closed = 1;
nodes = (
(1178,0,l),
(1178,1490,l),
(1002,1490,l),
(630,1242,l),
(630,1058,l),
(992,1300,l),
(1002,1300,l),
(1002,0,l)
);
}
);
width = 2000;
},
{
layerId = "6D287F59-47E8-4638-B138-818E25D25DE1";
shapes = (
{
closed = 1;
nodes = (
(1187,0,l),
(1187,1490,l),
(1123,1490,l),
(813,1258,l),
(813,1202,l),
(1133,1440,l),
(1141,1440,l),
(1141,0,l)
);
}
);
width = 2000;
}
);
unicode = 49;
}
{
glyphname = two;
layers = (
{
anchors = (
{
name = cross;
pos = (697,634);
},
{
name = top;
pos = (624,1490);
}
);
layerId = m01;
name = Regular;
shapes = (
{
closed = 1;
nodes = (
(1475,0,l),
(1475,167,l),
(788,167,l),
(788,179,l),
(1114,526,ls),
(1377,806,o),
(1450,933,o),
(1450,1094,cs),
(1450,1327,o),
(1261,1510,o),
(995,1510,cs),
(730,1510,o),
(530,1331,o),
(530,1067,c),
(712,1067,l),
(712,1235,o),
(820,1345,o),
(990,1345,cs),
(1149,1345,o),
(1270,1248,o),
(1270,1092,cs),
(1270,955,o),
(1186,853,o),
(1021,674,cs),
(526,137,l),
(526,0,l)
);
}
);
width = 2000;
}
);
unicode = 50;
}
{
glyphname = three;
layers = (
{
layerId = m01;
name = Regular;
shapes = (
{
closed = 1;
nodes = (
(1265,-20,o),
(1466,152,o),
(1467,396,cs),
(1466,567,o),
(1347,698,o),
(1181,754,c),
(1181,766,l),
(1332,811,o),
(1434,942,o),
(1435,1106,cs),
(1434,1343,o),
(1251,1510,o),
(987,1510,cs),
(729,1510,o),
(547,1351,o),
(547,1118,c),
(721,1118,l),
(721,1265,o),
(828,1353,o),
(983,1352,cs),
(1145,1353,o),
(1260,1257,o),
(1259,1102,cs),
(1260,945,o),
(1142,838,o),
(965,838,cs),
(881,838,l),
(881,672,l),
(965,672,ls),
(1148,672,o),
(1289,560,o),
(1289,396,cs),
(1289,238,o),
(1156,140,o),
(987,140,cs),
(827,140,o),
(718,226,o),
(719,372,c),
(533,372,l),
(532,134,o),
(711,-20,o),
(981,-20,cs)
);
}
);
width = 2000;
}
);
unicode = 51;
}
{
glyphname = four;
layers = (
{
layerId = m01;
name = Regular;
shapes = (
{
closed = 1;
nodes = (
(1542,303,l),
(1542,470,l),
(660,470,l),
(660,482,l),
(1147,1252,l),
(1224,1252,l),
(1224,1490,l),
(1109,1490,l),
(457,458,l),
(457,303,l)
);
},
{
closed = 1;
nodes = (
(1340,0,l),
(1340,1490,l),
(1159,1490,l),
(1158,0,l)
);
}
);
width = 2000;
},
{
layerId = "6D287F59-47E8-4638-B138-818E25D25DE1";
shapes = (
{
closed = 1;
nodes = (
(1458,350,l),
(1458,396,l),
(608,396,l),
(608,402,l),
(1220,1394,l),
(1254,1394,l),
(1254,1490,l),
(1224,1490,l),
(542,384,l),
(542,350,l)
);
},
{
closed = 1;
nodes = (
(1272,0,l),
(1272,1490,l),
(1224,1490,l),
(1224,0,l)
);
}
);
width = 2000;
},
{
layerId = "6553A8EE-D982-49E3-AD79-1FB562774AD6";
shapes = (
{
closed = 1;
nodes = (
(1642,232,l),
(1642,546,l),
(756,546,l),
(756,558,l),
(1080,1070,l),
(1242,1070,l),
(1242,1490,l),
(958,1490,l),
(358,546,l),
(358,232,l)
);
},
{
closed = 1;
nodes = (
(1470,0,l),
(1470,1490,l),
(1092,1490,l),
(1092,0,l)
);
}
);
width = 2000;
}
);
unicode = 52;
}
{
glyphname = five;
layers = (
{
guides = (
{
angle = 90;
pos = (1436,1656);
}
);
layerId = m01;
name = Regular;
shapes = (
{
closed = 1;
nodes = (
(1272,-20,o),
(1482,190,o),
(1482,476,cs),
(1482,764,o),
(1281,975,o),
(1008,975,cs),
(905,975,o),
(806,939,o),
(745,888,c),
(737,888,l),
(788,1323,l),
(1412,1323,l),
(1412,1490,l),
(628,1490,l),
(540,752,l),
(718,730,l),
(777,775,o),
(881,808,o),
(973,808,cs),
(1160,808,o),
(1296,665,o),
(1296,473,cs),
(1296,284,o),
(1165,147,o),
(985,147,cs),
(835,147,o),
(713,243,o),
(701,376,c),
(517,376,l),
(527,148,o),
(723,-20,o),
(985,-20,cs)
);
}
);
width = 2000;
},
{
layerId = "6D287F59-47E8-4638-B138-818E25D25DE1";
shapes = (
{
closed = 1;
nodes = (
(1233,-20,o),
(1417,186,o),
(1417,462,cs),
(1417,751,o),
(1212,940,o),
(973,940,cs),
(853,940,o),
(753,895,o),
(679,826,c),
(673,826,l),
(749,1442,l),
(1369,1442,l),
(1369,1490,l),
(707,1490,l),
(621,786,l),
(691,774,l),
(759,844,o),
(855,894,o),
(973,894,cs),
(1186,894,o),
(1371,727,o),
(1371,462,cs),
(1371,215,o),
(1210,26,o),
(975,26,cs),
(767,26,o),
(629,169,o),
(629,372,c),
(583,372,l),
(583,143,o),
(744,-20,o),
(975,-20,cs)
);
}
);
width = 2000;
}
);
unicode = 53;
}
{
glyphname = six;
layers = (
{
layerId = m01;
name = Regular;
shapes = (
{
closed = 1;
nodes = (
(1315,-20,o),
(1513,203,o),
(1513,481,cs),
(1513,769,o),
(1301,974,o),
(1046,974,cs),
(891,974,o),
(759,900,o),
(679,776,c),
(667,776,l),
(667,1134,o),
(805,1342,o),
(1034,1342,cs),
(1189,1342,o),
(1282,1244,o),
(1315,1115,c),
(1501,1115,l),
(1465,1349,o),
(1284,1510,o),
(1034,1510,cs),
(696,1510,o),
(487,1212,o),
(487,688,cs),
(487,139,o),
(762,-20,o),
(1011,-20,cs)
);
},
{
closed = 1;
nodes = (
(828,147,o),
(694,303,o),
(694,479,cs),
(694,653,o),
(835,809,o),
(1016,809,cs),
(1196,809,o),
(1329,663,o),
(1329,481,cs),
(1329,295,o),
(1190,147,o),
(1011,147,cs)
);
}
);
width = 2000;
}
);
unicode = 54;
}
{
glyphname = seven;
layers = (
{
layerId = m01;
name = Regular;
shapes = (
{
closed = 1;
nodes = (
(820,0,l),
(1481,1313,l),
(1481,1490,l),
(518,1490,l),
(518,1323,l),
(1282,1323,l),
(1282,1311,l),
(620,0,l)
);
}
);
width = 2000;
},
{
layerId = "6D287F59-47E8-4638-B138-818E25D25DE1";
shapes = (
{
closed = 1;
nodes = (
(724,0,l),
(1432,1442,l),
(1432,1490,l),
(568,1490,l),
(568,1444,l),
(1379,1444,l),
(1379,1438,l),
(675,0,l)
);
}
);
width = 2000;
}
);
metricLeft = T;
metricRight = T;
unicode = 55;
}
{
glyphname = eight;
layers = (
{
layerId = m01;
name = Regular;
shapes = (
{
closed = 1;
nodes = (
(1299,-20,o),
(1511,153,o),
(1511,396,cs),
(1511,584,o),
(1382,744,o),
(1220,774,c),
(1220,782,l),
(1361,819,o),
(1455,956,o),
(1455,1114,cs),
(1455,1341,o),
(1260,1510,o),
(999,1510,cs),
(734,1510,o),
(542,1341,o),
(542,1114,cs),
(542,956,o),
(634,819,o),
(779,782,c),
(779,774,l),
(612,744,o),
(488,584,o),
(488,396,cs),
(488,153,o),
(696,-20,o),
(999,-20,cs)
);
},
{
closed = 1;
nodes = (
(798,145,o),
(675,248,o),
(675,406,cs),
(675,571,o),
(811,689,o),
(999,689,cs),
(1183,689,o),
(1321,571,o),
(1321,406,cs),
(1321,248,o),
(1196,145,o),
(999,145,cs)
);
},
{
closed = 1;
nodes = (
(838,848,o),
(726,949,o),
(726,1100,cs),
(726,1249,o),
(834,1346,o),
(999,1346,cs),
(1161,1346,o),
(1271,1249,o),
(1271,1100,cs),
(1271,949,o),
(1156,848,o),
(999,848,cs)
);
}
);
width = 2000;
},
{
layerId = "6D287F59-47E8-4638-B138-818E25D25DE1";
shapes = (
{
closed = 1;
nodes = (
(1256,-20,o),
(1463,160,o),
(1463,384,cs),
(1463,561,o),
(1331,728,o),
(1149,768,c),
(1149,774,l),
(1305,826,o),
(1413,969,o),
(1413,1132,cs),
(1413,1345,o),
(1225,1510,o),
(999,1510,cs),
(771,1510,o),
(587,1343,o),
(587,1132,cs),
(587,968,o),
(697,827,o),
(851,774,c),
(851,768,l),
(668,726,o),
(537,561,o),
(537,384,cs),
(537,160,o),
(744,-20,o),
(999,-20,cs)
);
},
{
closed = 1;
nodes = (
(768,26,o),
(583,189,o),
(583,386,cs),
(583,585,o),
(767,748,o),
(999,748,cs),
(1232,748,o),
(1415,585,o),
(1415,386,cs),
(1415,189,o),
(1232,26,o),
(999,26,cs)
);
},
{
closed = 1;
nodes = (
(798,788,o),
(633,946,o),
(633,1132,cs),
(633,1318,o),
(798,1464,o),
(999,1464,cs),
(1201,1464,o),
(1367,1318,o),
(1367,1132,cs),
(1367,946,o),
(1201,788,o),
(999,788,cs)
);
}
);
width = 2000;
}
);
note = "essentially two conjoined \"three\" glyphs";
unicode = 56;
}
{
glyphname = nine;
layers = (
{
layerId = m01;
name = Regular;
shapes = (
{
closed = 1;
nodes = (
(1305,-20,o),
(1513,277,o),
(1513,804,cs),
(1513,1352,o),
(1238,1506,o),
(993,1510,cs),
(687,1515,o),
(487,1288,o),
(487,1010,cs),
(487,723,o),
(699,517,o),
(956,517,cs),
(1112,517,o),
(1243,594,o),
(1323,716,c),
(1335,716,l),
(1335,355,o),
(1195,148,o),
(968,148,cs),
(811,148,o),
(718,247,o),
(687,379,c),
(499,379,l),
(534,141,o),
(715,-20,o),
(968,-20,cs)
);
},
{
closed = 1;
nodes = (
(804,683,o),
(673,828,o),
(673,1011,cs),
(673,1195,o),
(810,1343,o),
(990,1343,cs),
(1173,1343,o),
(1308,1186,o),
(1308,1015,cs),
(1308,840,o),
(1165,683,o),
(984,683,cs)
);
}
);
width = 2000;
},
{
layerId = "6D287F59-47E8-4638-B138-818E25D25DE1";
shapes = (
{
closed = 1;
nodes = (
(1335,-20,o),
(1430,416,o),
(1430,818,cs),
(1430,1286,o),
(1242,1510,o),
(988,1510,cs),
(739,1510,o),
(570,1295,o),
(570,1048,cs),
(570,783,o),
(762,582,o),
(998,582,cs),
(1169,582,o),
(1332,689,o),
(1378,838,c),
(1384,838,l),
(1384,314,o),
(1245,26,o),
(974,26,cs),
(779,26,o),
(657,172,o),
(642,376,c),
(596,376,l),
(611,143,o),
(753,-20,o),
(974,-20,cs)
);
},
{
closed = 1;
nodes = (
(785,628,o),
(616,812,o),
(616,1048,cs),
(616,1277,o),
(773,1463,o),
(988,1464,cs),
(1172,1463,o),
(1312,1329,o),
(1362,1068,cs),
(1405,835,o),
(1227,628,o),
(1000,628,cs)
);
}
);
width = 2000;
}
);
note = "six mirrored";
unicode = 57;
}
{
glyphname = "comma-han";
layers = (
{
layerId = m01;
shapes = (
{
closed = 1;
nodes = (
(455,446,o),
(560,561,o),
(560,754,cs),
(560,872,o),
(500,943,o),
(407,943,cs),
(326,943,o),
(268,888,o),
(268,808,cs),
(268,730,o),
(323,676,o),
(391,676,cs),
(440,676,o),
(471,727,o),
(471,772,c),
(452,772,l),
(452,767,o),
(452,764,o),
(452,759,cs),
(452,597,o),
(397,539,o),
(285,480,c),
(329,388,l)
);
}
);
width = 2000;
},
{
layerId = "6D287F59-47E8-4638-B138-818E25D25DE1";
shapes = (
{
closed = 1;
nodes = (
(455,498,o),
(502,608,o),
(502,717,cs),
(502,840,o),
(454,868,o),
(414,868,cs),
(376,868,o),
(349,843,o),
(349,808,cs),
(349,777,o),
(373,756,o),
(406,756,cs),
(437,756,o),
(459,777,o),
(459,808,c),
(440,808,l),
(451,778,o),
(456,747,o),
(456,717,cs),
(456,615,o),
(414,516,o),
(338,437,c),
(370,406,l)
);
}
);
width = 2000;
},
{
layerId = "6553A8EE-D982-49E3-AD79-1FB562774AD6";
shapes = (
{
closed = 1;
nodes = (
(601,386,o),
(685,559,o),
(685,783,cs),
(685,946,o),
(583,1022,o),
(461,1022,cs),
(336,1022,o),
(248,939,o),
(248,822,cs),
(248,707,o),
(329,626,o),
(445,626,cs),
(559,626,o),
(590,708,o),
(590,822,c),
(533,822,l),
(533,785,o),
(533,748,o),
(533,711,cs),
(533,602,o),
(482,497,o),
(276,430,c),
(320,293,l)
);
}
);
width = 2000;
}
);
tags = (
"can cartouche"
);
unicode = 12289;
}
{
glyphname = cornerbracketleft;
layers = (
{
layerId = m01;
shapes = (
{
closed = 1;
nodes = (
(2000,1674,l),
(1249,1674,l),
(1249,746,l),
(1435,746,l),
(1435,1499,l),
(2000,1499,l)
);
}
);
width = 2000;
}
);
script = han;
unicode = 12300;
}
{
glyphname = cornerbracketright;
layers = (
{
layerId = m01;
shapes = (
{
closed = 1;
nodes = (
(751,-184,l),
(751,744,l),
(565,744,l),
(565,-9,l),
(0,-9,l),
(0,-184,l)
);
}
);
width = 2000;
},
{
layerId = "6D287F59-47E8-4638-B138-818E25D25DE1";
shapes = (
{
closed = 1;
nodes = (
(681,-119,l),
(681,744,l),
(635,744,l),
(635,-73,l),
(0,-73,l),
(0,-119,l)
);
}
);
width = 2000;
},
{
layerId = "6553A8EE-D982-49E3-AD79-1FB562774AD6";
shapes = (
{
closed = 1;
nodes = (
(751,-184,l),
(751,744,l),
(347,744,l),
(347,142,l),
(0,142,l),
(0,-184,l)
);
}
);
width = 2000;
}
);
script = han;
tags = (
"can cartouche"
);
unicode = 12301;
}
{
glyphname = "comma-han.vert";
layers = (
{
layerId = m01;
shapes = (
{
closed = 1;
nodes = (
(781,1505,o),
(896,1400,o),
(1089,1400,cs),
(1207,1400,o),
(1278,1460,o),
(1278,1553,cs),
(1278,1634,o),
(1223,1692,o),
(1143,1692,cs),
(1065,1692,o),
(1011,1637,o),
(1011,1569,cs),
(1011,1520,o),
(1062,1489,o),
(1107,1489,c),
(1107,1508,l),
(1102,1508,o),
(1099,1508,o),
(1094,1508,cs),
(932,1508,o),
(874,1563,o),
(815,1675,c),
(723,1631,l)
);
}
);
width = 2000;
}
);
unicode = 65041;
}
{
glyphname = cornerbracketleft.vert;
layers = (
{
layerId = m01;
shapes = (
{
closed = 1;
nodes = (
(2000,-184,l),
(2000,567,l),
(1072,567,l),
(1072,381,l),
(1825,381,l),
(1825,-184,l)
);
}
);
width = 2000;
},
{
layerId = "6D287F59-47E8-4638-B138-818E25D25DE1";
shapes = (
{
closed = 1;
nodes = (
(1936,-184,l),
(1936,497,l),
(1072,497,l),
(1072,451,l),
(1890,451,l),
(1890,-184,l)
);
}
);
width = 2000;
},
{
layerId = "6553A8EE-D982-49E3-AD79-1FB562774AD6";
shapes = (
{
closed = 1;
nodes = (
(2000,-184,l),
(2000,567,l),
(1072,567,l),
(1072,241,l),
(1596,241,l),
(1596,-184,l)
);
}
);
width = 2000;
}
);
script = han;
unicode = 65089;
}
{
glyphname = cornerbracketright.vert;
layers = (
{
layerId = m01;
shapes = (
{
closed = 1;
nodes = (
(928,923,l),
(928,1109,l),
(175,1109,l),
(175,1674,l),
(0,1674,l),
(0,923,l)
);
}
);
width = 2000;
}
);
script = han;
unicode = 65090;
}
{
glyphname = "a-sp";
layers = (
{
layerId = m01;
shapes = (
{
closed = 1;
nodes = (
(1075,-8,o),
(1140,52,o),
(1167,111,c),
(1176,111,l),
(1177,0,l),
(1347,0,l),
(1346,619,l),
(1174,619,l),
(1175,499,l),
(1168,499,l),
(1142,562,o),
(1076,625,o),
(948,625,cs),
(791,625,o),
(653,530,o),
(652,309,cs),
(652,100,o),
(781,-8,o),
(948,-8,cs)
);
},
{
closed = 1;
nodes = (
(889,124,o),
(828,202,o),
(829,311,cs),
(830,414,o),
(887,492,o),
(1004,492,cs),
(1115,492,o),
(1176,419,o),
(1176,309,cs),
(1177,199,o),
(1115,124,o),
(1004,124,cs)
);
},
{
closed = 1;
nodes = (
(1095,816,l),
(1095,1490,l),
(905,1490,l),
(905,816,l)
);
}
);
width = 2000;
}
);
tags = (
"can cartouche"
);
unicode = 989440;
}
{
glyphname = "akesi-sp";
layers = (
{
layerId = m01;
shapes = (
{
closed = 1;
nodes = (
(1243,-24,o),
(1396,233,o),
(1396,642,cs),
(1396,1067,o),
(1243,1334,o),
(1000,1334,cs),
(757,1334,o),
(604,1067,o),
(604,642,cs),
(604,233,o),
(757,-24,o),
(1000,-24,cs)
);
},
{
closed = 1;
nodes = (
(1550,313,l),
(1550,489,l),
(450,489,l),
(450,313,l)
);
},
{
closed = 1;
nodes = (
(870,152,o),
(789,341,o),
(789,642,cs),
(789,959,o),
(870,1158,o),
(1000,1158,cs),
(1130,1158,o),
(1211,959,o),
(1211,642,cs),
(1211,341,o),
(1130,152,o),
(1000,152,cs)
);
},
{
closed = 1;
nodes = (
(1550,792,l),
(1550,968,l),
(450,968,l),
(450,792,l)
);
},
{
pos = (393,747);
ref = _part.dot;
},
{
pos = (1156,747);
ref = _part.dot;
}
);
width = 2000;
},
{
layerId = "6D287F59-47E8-4638-B138-818E25D25DE1";
shapes = (
{
closed = 1;
nodes = (
(1248,-24,o),
(1356,179,o),
(1356,642,cs),
(1356,1123,o),
(1248,1334,o),
(1000,1334,cs),
(752,1334,o),
(644,1123,o),
(644,642,cs),
(644,179,o),
(752,-24,o),
(1000,-24,cs)
);
},
{
closed = 1;
nodes = (
(1550,418,l),
(1550,464,l),
(450,464,l),
(450,418,l)
);
},
{
closed = 1;
nodes = (
(784,22,o),
(690,209,o),
(690,638,cs),
(690,1090,o),
(784,1288,o),
(1000,1288,cs),
(1216,1288,o),
(1310,1090,o),
(1310,638,cs),
(1310,209,o),
(1216,22,o),
(1000,22,cs)
);
},
{
closed = 1;
nodes = (
(1550,817,l),
(1550,863,l),
(450,863,l),
(450,817,l)
);
},
{
pos = (324,717);
ref = _part.dot;
},
{
pos = (1076,717);
ref = _part.dot;
}
);
width = 2000;
},
{
layerId = "6553A8EE-D982-49E3-AD79-1FB562774AD6";
shapes = (
{
closed = 1;
nodes = (
(1380,-110,o),
(1592,160,o),
(1592,642,cs),
(1592,1141,o),
(1380,1420,o),
(1000,1420,cs),
(621,1420,o),
(409,1141,o),
(409,642,cs),
(409,160,o),
(621,-110,o),
(1000,-110,cs)
);
},
{
closed = 1;
nodes = (
(1740,281,l),
(1740,581,l),
(260,581,l),
(260,281,l)
);
},
{
closed = 1;
nodes = (
(872,190,o),
(809,340,o),
(809,642,cs),
(809,962,o),
(872,1120,o),
(1000,1120,cs),
(1128,1120,o),
(1192,962,o),
(1192,642,cs),
(1192,340,o),
(1128,190,o),
(1000,190,cs)
);
},
{
closed = 1;
nodes = (
(1740,728,l),
(1740,1028,l),
(260,1028,l),
(260,728,l)
);
},
{
pos = (190,791);
ref = _part.dot;
},
{
pos = (1209,791);
ref = _part.dot;
}
);
width = 2000;
}
);
metricLeft = "|=";
tags = (
"can cartouche"
);
unicode = 989441;
}
{
glyphname = "ala-sp";
layers = (
{
layerId = m01;
shapes = (
{
closed = 1;
nodes = (
(1150,390,l),
(326,1216,l),
(210,1098,l),
(1034,274,l)
);
},
{
closed = 1;
nodes = (
(1150,1098,l),
(1034,1216,l),
(210,390,l),
(326,274,l)
);
}
);
width = 1360;
}
);
unicode = 989442;
}
{
glyphname = "alasa-sp";
layers = (
{
layerId = m01;
shapes = (
{
closed = 1;
nodes = (
(632,0,ls),
(972,0,o),
(1226,243,o),
(1226,728,cs),
(1226,1236,o),
(972,1490,o),
(632,1490,cs),
(446,1490,l),
(447,0,l)
);
},
{
closed = 1;
nodes = (
(632,1315,l),
(848,1315,o),
(1040,1119,o),
(1040,728,cs),
(1040,359,o),
(848,175,o),
(632,175,c)
);
},
{
closed = 1;
nodes = (
(1812,728,l),
(1416,1124,l),
(1300,1008,l),
(1591,779,l),
(1508,796,o),
(1425,811,o),
(1342,811,cs),
(188,811,l),
(188,645,l),
(1342,645,ls),
(1425,645,o),
(1508,660,o),
(1591,677,c),
(1300,448,l),
(1416,332,l)
);
}
);
width = 2000;
},
{
background = {
shapes = (
{
closed = 1;
nodes = (
(1530,674,l),
(1503,674,o),
(1477,675,o),
(1452,675,cs),
(202,675,l),
(202,629,l),
(1452,629,ls),
(1477,629,o),
(1503,629,o),
(1530,630,c)
);
}
);
};
layerId = "6D287F59-47E8-4638-B138-818E25D25DE1";
shapes = (
{
closed = 1;
nodes = (
(564,0,ls),
(1002,0,o),
(1256,275,o),
(1256,750,cs),
(1256,1214,o),
(1013,1490,o),
(602,1490,cs),
(486,1490,l),
(486,0,l)
);
},
{
closed = 1;
nodes = (
(532,1444,l),
(989,1444,o),
(1210,1185,o),
(1210,750,cs),
(1210,309,o),
(978,46,o),
(532,46,c)
);
},
{
closed = 1;
nodes = (
(1698,746,l),
(1366,1078,l),
(1333,1046,l),
(1631,763,l),
(1581,765,o),
(1441,771,o),
(1406,771,cs),
(252,771,l),
(252,725,l),
(1406,725,ls),
(1441,725,o),
(1581,726,o),
(1631,728,c),
(1332,445,l),
(1364,412,l)
);
}
);
width = 2000;
},
{
layerId = "6553A8EE-D982-49E3-AD79-1FB562774AD6";
shapes = (
{
closed = 1;
nodes = (
(632,-62,ls),
(972,-62,o),
(1370,243,o),
(1370,728,cs),
(1370,1236,o),
(972,1553,o),
(632,1553,cs),
(232,1553,l),
(235,-62,l)
);
},
{
closed = 1;
nodes = (
(632,1253,l),
(848,1253,o),
(970,1119,o),
(970,728,cs),
(970,359,o),
(848,238,o),
(632,238,c)
);
},
{
closed = 1;
nodes = (
(2017,741,l),
(1580,1178,l),
(1396,994,l),
(1705,783,l),
(1622,878,o),
(1555,878,o),
(1472,878,cs),
(62,878,l),
(62,618,l),
(1472,618,ls),
(1555,618,o),
(1619,621,o),
(1702,716,c),
(1389,509,l),
(1587,311,l)
);
}
);
width = 2000;
}
);
metricLeft = "|=";
tags = (
"can cartouche"
);
unicode = 989443;
}
{
glyphname = "ale-sp";
layers = (
{
layerId = m01;
shapes = (
{
closed = 1;
nodes = (
(708,341,o),
(829,417,o),
(914,500,cs),
(944,529,o),
(979,571,o),
(1002,599,c),
(1024,568,o),
(1056,531,o),
(1088,500,cs),
(1174,416,o),
(1294,341,o),
(1451,341,cs),
(1674,341,o),
(1853,521,o),
(1853,747,cs),
(1853,970,o),
(1674,1149,o),
(1451,1149,cs),
(1289,1149,o),
(1170,1070,o),
(1086,988,cs),
(1047,950,o),
(1024,924,o),
(1002,893,c),
(975,926,o),
(944,961,o),
(906,997,cs),
(818,1080,o),
(702,1150,o),
(553,1149,cs),
(327,1150,o),
(146,971,o),
(146,747,cs),
(146,521,o),
(326,341,o),
(553,341,cs)
);
},
{
closed = 1;
nodes = (
(424,515,o),
(321,618,o),
(320,747,cs),
(321,873,o),
(424,975,o),
(553,975,cs),
(649,975,o),
(730,925,o),
(792,865,cs),
(838,821,o),
(874,772,o),
(893,747,c),
(865,708,o),
(833,668,o),
(792,628,cs),
(723,561,o),
(645,515,o),
(553,515,cs)
);
},
{
closed = 1;
nodes = (
(1356,515,o),
(1278,561,o),
(1209,628,cs),
(1169,667,o),
(1137,706,o),
(1109,747,c),
(1125,766,o),
(1154,812,o),
(1208,864,cs),
(1270,924,o),
(1350,975,o),
(1451,975,cs),
(1576,975,o),
(1680,873,o),
(1679,747,cs),
(1680,617,o),
(1576,515,o),
(1451,515,cs)
);
}
);
width = 2000;
},
{
background = {
shapes = (
{
closed = 1;
nodes = (
(708,341,o),
(829,417,o),
(914,500,cs),
(944,529,o),
(979,571,o),
(1002,599,c),
(1024,568,o),
(1056,531,o),
(1088,500,cs),
(1174,416,o),
(1294,341,o),
(1451,341,cs),
(1674,341,o),
(1853,521,o),
(1853,747,cs),
(1853,970,o),
(1674,1149,o),
(1451,1149,cs),
(1289,1149,o),
(1170,1070,o),
(1086,988,cs),
(1047,950,o),
(1024,924,o),
(1002,893,c),
(975,926,o),
(944,961,o),
(906,997,cs),
(818,1080,o),
(702,1150,o),
(553,1149,cs),
(327,1150,o),
(146,971,o),
(146,747,cs),
(146,521,o),
(326,341,o),
(553,341,cs)
);
},
{
closed = 1;
nodes = (
(424,515,o),
(321,618,o),
(320,747,cs),
(321,873,o),
(424,975,o),
(553,975,cs),
(649,975,o),
(730,925,o),
(792,865,cs),
(838,821,o),
(874,772,o),
(893,747,c),
(865,708,o),
(833,668,o),
(792,628,cs),
(723,561,o),
(645,515,o),
(553,515,cs)
);
},
{
closed = 1;
nodes = (
(1356,515,o),
(1278,561,o),
(1209,628,cs),
(1169,667,o),
(1137,706,o),
(1109,747,c),
(1125,766,o),
(1154,812,o),
(1208,864,cs),
(1270,924,o),
(1350,975,o),
(1451,975,cs),
(1576,975,o),
(1680,873,o),
(1679,747,cs),
(1680,617,o),
(1576,515,o),
(1451,515,cs)
);
}
);
};
layerId = "6D287F59-47E8-4638-B138-818E25D25DE1";
shapes = (
{
closed = 1;
nodes = (
(738,398,o),
(854,515,o),
(959,650,c),
(972,669,o),
(987,687,o),
(999,706,c),
(1011,691,o),
(1022,676,o),
(1031,662,c),
(1140,522,o),
(1257,398,o),
(1437,398,cs),
(1624,398,o),
(1771,548,o),
(1771,746,cs),
(1771,941,o),
(1624,1092,o),
(1437,1092,cs),
(1262,1092,o),
(1150,980,o),
(1047,848,cs),
(1032,828,o),
(1016,806,o),
(999,784,c),
(981,810,o),
(961,836,o),
(941,862,cs),
(843,988,o),
(731,1092,o),
(563,1092,cs),
(376,1092,o),
(229,941,o),
(229,746,cs),
(229,548,o),
(370,398,o),
(563,398,cs)
);
},
{
closed = 1;
nodes = (
(406,444,o),
(274,586,o),
(275,746,cs),
(276,905,o),
(412,1046,o),
(563,1046,cs),
(706,1046,o),
(808,953,o),
(901,836,cs),
(924,807,o),
(948,777,o),
(971,744,c),
(953,721,o),
(936,697,o),
(919,674,cs),
(822,548,o),
(718,444,o),
(563,444,cs)
);
},
{
closed = 1;
nodes = (
(1275,444,o),
(1169,557,o),
(1069,690,cs),
(1055,708,o),
(1042,726,o),
(1029,744,c),
(1049,771,o),
(1068,797,o),
(1087,824,c),
(1183,945,o),
(1286,1046,o),
(1437,1046,cs),
(1588,1046,o),
(1724,905,o),
(1725,746,cs),
(1724,586,o),
(1588,444,o),
(1437,444,cs)
);
}
);
width = 2000;
}
);
metricLeft = "|=";
tags = (
"can cartouche"
);
unicode = 989444;
}
{
glyphname = "ante-sp";
layers = (
{
layerId = m01;
shapes = (
{
closed = 1;
nodes = (
(764,850,l),
(1416,1374,l),
(1300,1490,l),
(764,1024,l),
(228,1490,l),
(112,1374,l)
);
},
{
closed = 1;
nodes = (
(228,24,l),
(764,490,l),
(1300,24,l),
(1416,140,l),
(764,664,l),
(112,140,l)
);
}
);
width = 1528;
}
);
unicode = 989446;
}
{
glyphname = "anu-sp";
layers = (
{
layerId = m01;
shapes = (
{
closed = 1;
nodes = (
(850,0,l),
(850,610,l),
(1398,1490,l),
(1179,1490,l),
(885,1009,ls),
(822,906,o),
(774,821,o),
(719,669,c),
(795,669,l),
(740,818,o),
(693,901,o),
(627,1009,cs),
(332,1490,l),
(112,1490,l),
(660,610,l),
(660,0,l)
);
}
);
width = 1510;
}
);
unicode = 989447;
}
{
glyphname = "awen-sp";
layers = (
{
layerId = m01;
shapes = (
{
closed = 1;
nodes = (
(702,0,l),
(1020,1335,l),
(982,1335,l),
(1298,0,l),
(1799,0,l),
(1799,175,l),
(1449,175,l),
(1094,1490,l),
(908,1490,l),
(552,175,l),
(201,175,l),
(201,0,l)
);
}
);
width = 2000;
},
{
layerId = "6D287F59-47E8-4638-B138-818E25D25DE1";
shapes = (
{
closed = 1;
nodes = (
(574,0,l),
(1007,1410,l),
(995,1410,l),
(1426,0,l),
(1799,0,l),
(1799,46,l),
(1458,46,l),
(1024,1490,l),
(978,1490,l),
(542,46,l),
(201,46,l),
(201,0,l)
);
}
);
width = 2000;
},
{
layerId = "6553A8EE-D982-49E3-AD79-1FB562774AD6";
shapes = (
{
closed = 1;
nodes = (
(702,-62,l),
(1058,1367,l),
(944,1367,l),
(1298,-62,l),
(1839,-62,l),
(1839,238,l),
(1555,238,l),
(1241,1490,l),
(761,1490,l),
(447,238,l),
(161,238,l),
(161,-62,l)
);
}
);
width = 2000;
}
);
metricLeft = "|=";
tags = (
"can cartouche"
);
unicode = 989448;
}
{
glyphname = "en-sp";
layers = (
{
layerId = m01;
shapes = (
{
closed = 1;
nodes = (
(1081,73,l),
(1081,1417,l),
(919,1417,l),
(919,73,l)
);
},
{
closed = 1;
nodes = (
(1672,669,l),
(1672,821,l),
(328,821,l),
(328,669,l)
);
}
);
width = 2000;
},
{
layerId = "6D287F59-47E8-4638-B138-818E25D25DE1";
shapes = (
{
closed = 1;
nodes = (
(1023,73,l),
(1023,1417,l),
(977,1417,l),
(977,73,l)
);
},
{
closed = 1;
nodes = (
(1672,722,l),
(1672,768,l),
(328,768,l),
(328,722,l)
);
}
);
width = 2000;
}
);
metricLeft = "=|";
tags = (
"can cartouche"
);
unicode = 989450;
}
{
glyphname = "esun-sp";
layers = (
{
backgroundImage = {
imagePath = "../../../../var/folders/z_/jbxjqhss1jxbphlj51fmcfg80000gr/T/TemporaryItems/NSIRD_screencaptureui_DRc12M/Screenshot 2024-01-30 at 5.19.07 PM.png";
locked = 1;
pos = (96,-77);
scale = (2.7964,2.7964);
};
layerId = m01;
shapes = (
{
closed = 1;
nodes = (
(390,138,o),
(293,198,o),
(293,314,cs),
(293,441,o),
(408,483,o),
(539,500,cs),
(608,509,o),
(804,529,o),
(834,532,c),
(834,409,ls),
(834,272,o),
(723,138,o),
(524,138,cs)
);
},
{
closed = 1;
nodes = (
(832,736,l),
(832,671,l),
(777,672,o),
(691,670,o),
(547,652,cs),
(340,626,o),
(112,579,o),
(112,323,cs),
(112,103,o),
(281,-21,o),
(493,-21,cs),
(682,-21,o),
(1014,72,o),
(1014,406,c),
(1014,736,l)
);
},
{
closed = 1;
nodes = (
(1456,1334,o),
(1553,1274,o),
(1553,1158,cs),
(1553,1031,o),
(1438,989,o),
(1307,972,cs),
(1238,963,o),
(1042,943,o),
(1012,940,c),
(1012,1063,ls),
(1012,1200,o),
(1123,1334,o),
(1322,1334,cs)
);
},
{
closed = 1;
nodes = (
(1014,736,l),
(1014,801,l),
(1069,800,o),
(1155,802,o),
(1299,820,cs),
(1506,846,o),
(1734,893,o),
(1734,1149,cs),
(1734,1369,o),
(1565,1493,o),
(1353,1493,cs),
(1164,1493,o),
(832,1400,o),
(832,1066,c),
(832,736,l)
);
},
{
closed = 1;
nodes = (
(1660,143,l),
(1601,305,o),
(1229,671,o),
(1014,671,c),
(1014,532,l),
(1100,532,o),
(1458,235,o),
(1513,84,c)
);
},
{
closed = 1;
nodes = (
(186,1329,l),
(245,1167,o),
(617,801,o),
(832,801,c),
(832,940,l),
(746,940,o),
(388,1237,o),
(333,1388,c)
);
}
);
width = 1846;
}
);
unicode = 989451;
}
{
glyphname = "ilo-sp";
layers = (
{
layerId = m01;
shapes = (
{
closed = 1;
nodes = (
(1093,0,l),
(1093,706,l),
(1631,707,l),
(1631,1490,l),
(368,1490,l),
(368,707,l),
(907,706,l),
(907,0,l)
);
},
{
closed = 1;
nodes = (
(554,1315,l),
(907,1315,l),
(907,882,l),
(554,882,l)
);
},
{
closed = 1;
nodes = (
(1093,1315,l),
(1445,1315,l),
(1445,882,l),
(1093,882,l)
);
}
);
width = 2000;
},
{
layerId = "6D287F59-47E8-4638-B138-818E25D25DE1";
shapes = (
{
closed = 1;
nodes = (
(1023,0,l),
(1023,771,l),
(1561,771,l),
(1561,1426,l),
(438,1426,l),
(438,771,l),
(977,771,l),
(977,0,l)
);
},
{
closed = 1;
nodes = (
(484,1380,l),
(977,1380,l),
(977,817,l),
(484,817,l)
);
},
{
closed = 1;
nodes = (
(1023,1380,l),
(1515,1380,l),
(1515,817,l),
(1023,817,l)
);
}
);
width = 2000;
}
);
metricLeft = "|=";
tags = (
"can cartouche"
);
unicode = 989454;
}
{
glyphname = "jaki-sp";
layers = (
{
background = {
shapes = (
{
closed = 0;
nodes = (
(1576,1438,l),
(431,1081,l),
(1236,657,l),
(1387,1047,l),
(551,681,l),
(1328,184,l),
(1407,464,l),
(788,235,l),
(936,-102,l)
);
}
);
};
layerId = m01;
shapes = (
{
attr = {
strokeWidth = 150;
};
closed = 0;
nodes = (
(1526,1448,l),
(708,1374,o),
(380,1262,o),
(642,989,cs),
(957,661,o),
(1561,586,o),
(1492,911,cs),
(1412,1289,o),
(304,1113,o),
(535,719,cs),
(725,395,o),
(1403,41,o),
(1403,353,cs),
(1403,670,o),
(708,609,o),
(516,73,cs)
);
}
);
width = 2000;
},
{
layerId = "6D287F59-47E8-4638-B138-818E25D25DE1";
shapes = (
{
attr = {
strokeWidth = 46;
};
closed = 0;
nodes = (
(1526,1448,l),
(708,1374,o),
(380,1262,o),
(642,989,cs),
(957,661,o),
(1561,586,o),
(1492,911,cs),
(1412,1289,o),
(304,1113,o),
(535,719,cs),
(725,395,o),
(1403,41,o),
(1403,353,cs),
(1403,670,o),
(708,609,o),
(516,73,cs)
);
}
);
width = 2000;
},
{
layerId = "6553A8EE-D982-49E3-AD79-1FB562774AD6";
shapes = (
{
attr = {
strokeHeight = 260;
strokeWidth = 300;
};
closed = 0;
nodes = (
(1526,1448,l),
(708,1374,o),
(380,1262,o),
(642,989,cs),
(957,661,o),
(1561,586,o),
(1492,911,cs),
(1412,1289,o),
(304,1113,o),
(535,719,cs),
(725,395,o),
(1403,41,o),
(1403,353,cs),
(1403,670,o),
(708,609,o),
(516,73,cs)
);
}
);
width = 2000;
}
);
metricLeft = "=|";
tags = (
"can cartouche"
);
unicode = 989456;
}
{
glyphname = "jan-sp";
layers = (
{
layerId = m01;
shapes = (
{
closed = 1;
nodes = (
(1291,329,o),
(1558,550,o),
(1558,908,cs),
(1558,1268,o),
(1291,1490,o),
(1000,1490,cs),
(710,1490,o),
(442,1268,o),
(442,908,cs),
(442,550,o),
(710,329,o),
(1000,329,cs)
);
},
{
closed = 1;
nodes = (
(865,391,l),
(755,512,l),
(359,116,l),
(469,-5,l)
);
},
{
closed = 1;
nodes = (
(1641,116,l),
(1245,512,l),
(1135,391,l),
(1531,-5,l)
);
},
{
closed = 1;
nodes = (
(796,505,o),
(627,621,o),
(627,908,cs),
(627,1198,o),
(796,1314,o),
(1000,1314,cs),
(1202,1314,o),
(1373,1198,o),
(1373,908,cs),
(1373,621,o),
(1202,505,o),
(1000,505,cs)
);
}
);
width = 2000;
},
{
layerId = "6D287F59-47E8-4638-B138-818E25D25DE1";
shapes = (
{
closed = 1;
nodes = (
(1274,394,o),
(1489,620,o),
(1489,908,cs),
(1489,1198,o),
(1274,1425,o),
(1000,1425,cs),
(727,1425,o),
(512,1198,o),
(512,908,cs),
(512,620,o),
(727,394,o),
(1000,394,cs)
);
},
{
closed = 1;
nodes = (
(826,436,l),
(794,468,l),
(398,72,l),
(430,40,l)
);
},
{
closed = 1;
nodes = (
(1602,72,l),
(1206,468,l),
(1174,436,l),
(1570,40,l)
);
},
{
closed = 1;
nodes = (
(752,440,o),
(558,646,o),
(558,908,cs),
(558,1172,o),
(752,1379,o),
(1000,1379,cs),
(1248,1379,o),
(1443,1172,o),
(1443,908,cs),
(1443,646,o),
(1248,440,o),
(1000,440,cs)
);
}
);
width = 2000;
},
{
layerId = "6553A8EE-D982-49E3-AD79-1FB562774AD6";
shapes = (
{
closed = 1;
nodes = (
(1345,287,o),
(1616,560,o),
(1616,908,cs),
(1616,1257,o),
(1345,1532,o),
(1000,1532,cs),
(656,1532,o),
(385,1257,o),
(385,908,cs),
(385,560,o),
(656,287,o),
(1000,287,cs)
);
},
{
closed = 1;
nodes = (
(899,357,l),
(721,546,l),
(325,150,l),
(503,-39,l)
);
},
{
closed = 1;
nodes = (
(1675,150,l),
(1279,546,l),
(1101,357,l),
(1497,-39,l)
);
},
{
closed = 1;
nodes = (
(824,547,o),
(685,706,o),
(685,908,cs),
(685,1112,o),
(824,1272,o),
(1000,1272,cs),
(1177,1272,o),
(1316,1112,o),
(1316,908,cs),
(1316,706,o),
(1177,547,o),
(1000,547,cs)
);
}
);
width = 2000;
}
);
metricLeft = "|=";
tags = (
"can cartouche"
);
unicode = 989457;
}
{
glyphname = "jelo-sp";
layers = (
{
layerId = m01;
shapes = (
{
closed = 1;
nodes = (
(1203,708,o),
(1345,852,o),
(1345,1053,cs),
(1345,1254,o),
(1203,1400,o),
(1001,1400,cs),
(799,1400,o),
(657,1254,o),
(657,1053,cs),
(657,852,o),
(799,708,o),
(1001,708,cs)
);
},
{
closed = 1;
nodes = (
(899,868,o),
(827,944,o),
(827,1053,cs),
(827,1162,o),
(899,1240,o),
(1001,1240,cs),
(1104,1240,o),
(1175,1162,o),
(1175,1053,cs),
(1175,944,o),
(1104,868,o),
(1001,868,cs)
);
},
{
closed = 1;
nodes = (
(750,955,l),
(750,1152,l),
(469,1152,l),
(469,955,l)
);
},
{
closed = 1;
nodes = (
(1531,955,l),
(1531,1152,l),
(1275,1152,l),
(1275,955,l)
);
},
{
closed = 1;
nodes = (
(1099,1330,l),
(1099,1626,l),
(902,1626,l),
(902,1330,l)
);
},
{
closed = 1;
nodes = (
(1315.732,231,l),
(684.268,231,l),
(1000,574.055,l)
);
},
{
closed = 1;
nodes = (
(895,728,l),
(275.732,55,l),
(1724.268,55,l),
(1105,728,l)
);
}
);
width = 2000;
}
);
metricLeft = "|=";
tags = (
"can cartouche"
);
unicode = 989458;
}
{
glyphname = "jo-sp";
layers = (
{
layerId = m01;
shapes = (
{
closed = 1;
nodes = (
(1211,745,o),
(1384,918,o),
(1384,1130,cs),
(1384,1341,o),
(1211,1514,o),
(1000,1514,cs),
(788,1514,o),
(615,1341,o),
(615,1130,cs),
(615,918,o),
(788,745,o),
(1000,745,cs)
);
},
{
closed = 1;
nodes = (
(867,921,o),
(800,988,o),
(800,1130,cs),
(800,1271,o),
(867,1338,o),
(1000,1338,cs),
(1132,1338,o),
(1199,1271,o),
(1199,1130,cs),
(1199,988,o),
(1132,921,o),
(1000,921,cs)
);
},
{
closed = 1;
nodes = (
(650,725,ls),
(575,646,o),
(535,548,o),
(535,439,cs),
(535,419,ls),
(535,278,o),
(611,130,o),
(764,45,cs),
(788,32,ls),
(855,-5,o),
(927,-24,o),
(999,-24,cs),
(1072,-24,o),
(1144,-5,o),
(1212,32,cs),
(1235,45,ls),
(1385,129,o),
(1464,303,o),
(1464,494,cs),
(1464,605,l),
(1099,605,l),
(1099,430,l),
(1278,430,l),
(1278,353,o),
(1235,255,o),
(1139,197,cs),
(1095,171,o),
(1047,158,o),
(999,158,cs),
(952,158,o),
(905,171,o),
(861,197,cs),
(765,254,o),
(721,365,o),
(721,473,cs),
(721,559,o),
(774,650,o),
(871,732,cs),
(987,830,l),
(790,872,l)
);
}
);
width = 2000;
}
);
metricLeft = "|=";
unicode = 989459;
}
{
color = 0;
glyphname = "kala-sp";
layers = (
{
layerId = m01;
shapes = (
{
closed = 1;
nodes = (
(482,742,l),
(112,372,l),
(262,222,l),
(632,592,l),
(1206,180,o),
(1575,-21,o),
(1988,-21,c),
(2526,-21,o),
(2795,238,o),
(2795,757,cs),
(2795,1261,o),
(2526,1513,o),
(1988,1513,c),
(1575,1513,o),
(1206,1334,o),
(640,892,c),
(270,1262,l),
(112,1112,l)
);
},
{
closed = 1;
nodes = (
(1362,1174,o),
(1649,1338,o),
(1988,1338,cs),
(2402,1338,o),
(2609,1144,o),
(2609,757,cs),
(2609,355,o),
(2402,154,o),
(1988,154,cs),
(1649,154,o),
(1362,340,o),
(765,757,c)
);
}
);
width = 2907;
}
);
unicode = 989460;
}
{
glyphname = "kalama-sp";
layers = (
{
layerId = m01;
shapes = (
{
attr = {
strokeHeight = 176;
strokeWidth = 186;
};
closed = 1;
nodes = (
(1305,91,o),
(1550,314,o),
(1550,717,c),
(450,717,l),
(450,314,o),
(696,91,o),
(1001,91,cs)
);
},
{
closed = 1;
nodes = (
(754,1023,l),
(369,1407,l),
(238,1277,l),
(623,892,l)
);
},
{
closed = 1;
nodes = (
(1093,1023,l),
(1093,1567,l),
(908,1567,l),
(908,1023,l)
);
},
{
closed = 1;
nodes = (
(1763,1277,l),
(1632,1407,l),
(1247,1023,l),
(1378,892,l)
);
}
);
width = 2000;
}
);
metricLeft = "|=";
tags = (
"can cartouche"
);
unicode = 989461;
}
{
glyphname = "ken-sp";
layers = (
{
layerId = m01;
shapes = (
{
closed = 1;
nodes = (
(604,809,l),
(614,808,l),
(1250,1490,l),
(1001,1490,l),
(556,1009,ls),
(444,888,o),
(343,768,o),
(242,629,c),
(242,426,l)
);
},
{
closed = 1;
nodes = (
(302,0,l),
(302,566,l),
(299,659,l),
(302,980,l),
(302,1490,l),
(112,1490,l),
(112,0,l)
);
},
{
closed = 1;
nodes = (
(1251,0,l),
(605,906,l),
(487,758,l),
(1026,0,l)
);
}
);
width = 1363;
}
);
unicode = 989464;
}
{
glyphname = "kepeken-sp";
layers = (
{
layerId = m01;
shapes = (
{
closed = 1;
nodes = (
(242,771,l),
(112,641,l),
(481,0,l),
(756,0,l),
(756,333,o),
(859,507,o),
(1065,507,cs),
(1271,507,o),
(1374,337,o),
(1374,11,cs),
(1374,0,l),
(1560,0,l),
(1560,11,ls),
(1560,438,o),
(1395,658,o),
(1065,658,cs),
(785,658,o),
(624,498,o),
(581,187,c),
(570,187,l)
);
},
{
closed = 1;
nodes = (
(1509,921,l),
(1157,921,l),
(1157,1315,l),
(1509,1315,l)
);
},
{
closed = 1;
nodes = (
(971,745,l),
(971,512,l),
(1157,512,l),
(1157,745,l),
(1695,746,l),
(1695,1490,l),
(432,1490,l),
(432,746,l)
);
},
{
closed = 1;
nodes = (
(618,1315,l),
(971,1315,l),
(971,921,l),
(618,921,l)
);
}
);
width = 1807;
}
);
unicode = 989465;
}
{
glyphname = "kiwen-sp";
layers = (
{
layerId = m01;
shapes = (
{
closed = 1;
nodes = (
(1877,898,l),
(1335,1540,l),
(662,1540,l),
(123,898,l),
(1000,-52,l)
);
},
{
closed = 1;
nodes = (
(364,903,l),
(752,1365,l),
(1245,1365,l),
(1635,903,l),
(1000,215,l)
);
}
);
width = 2000;
},
{
layerId = "6D287F59-47E8-4638-B138-818E25D25DE1";
shapes = (
{
closed = 1;
nodes = (
(1779,898,l),
(1335,1476,l),
(662,1476,l),
(221,898,l),
(1000,59,l)
);
},
{
closed = 1;
nodes = (
(281,903,l),
(685,1430,l),
(1312,1430,l),
(1719,903,l),
(1000,126,l)
);
}
);
width = 2000;
},
{
layerId = "6553A8EE-D982-49E3-AD79-1FB562774AD6";
shapes = (
{
closed = 1;
nodes = (
(1956,898,l),
(1367,1599,l),
(630,1599,l),
(44,898,l),
(1000,-86,l)
);
},
{
closed = 1;
nodes = (
(460,935,l),
(779,1291,l),
(1218,1291,l),
(1540,935,l),
(1000,362,l)
);
}
);
width = 2000;
}
);
metricLeft = "|=";
tags = (
"can cartouche"
);
unicode = 989467;
}
{
color = 0;
glyphname = "ko-sp";
layers = (
{
layerId = m01;
shapes = (
{
attr = {
strokeHeight = 176;
strokeWidth = 186;
};
closed = 1;
nodes = (
(830,1481,o),
(694,1277,o),
(652,1138,c,{
"Letterink-NibData" = {
MainAxisWidth = "110";
MinorAxisWidth = "105";
ValidForParentMainAxisWidth = "30";
ValidForParentMinorAxisWidth = "15";
};
"Letterink-NibStyleId" = "1";
}),
(506,1152,o),
(341,1073,o),
(275,965,c,{
"Letterink-NibData" = {
MainAxisWidth = "110";
MinorAxisWidth = "105";
ValidForParentMainAxisWidth = "30";
ValidForParentMinorAxisWidth = "15";
};
"Letterink-NibStyleId" = "1";
}),
(176,806,o),
(379,632,o),
(490,537,c,{
"Letterink-NibData" = {
MainAxisWidth = "110";
MinorAxisWidth = "105";
ValidForParentMainAxisWidth = "30";
ValidForParentMinorAxisWidth = "15";
};
"Letterink-NibStyleId" = "1";
}),
(441,354,o),
(446,140,o),
(574,55,c,{
"Letterink-NibData" = {
MainAxisWidth = "110";
MinorAxisWidth = "105";
ValidForParentMainAxisWidth = "30";
ValidForParentMinorAxisWidth = "15";
};
"Letterink-NibStyleId" = "1";
}),
(717,-43,o),
(912,130,o),
(991,213,c,{
"Letterink-NibData" = {
MainAxisWidth = "110";
MinorAxisWidth = "105";
ValidForParentMainAxisWidth = "30";
ValidForParentMinorAxisWidth = "15";
};
"Letterink-NibStyleId" = "1";
}),
(1070,130,o),
(1265,-43,o),
(1408,55,c,{
"Letterink-NibData" = {
MainAxisWidth = "110";
MinorAxisWidth = "105";
ValidForParentMainAxisWidth = "30";
ValidForParentMinorAxisWidth = "15";
};
"Letterink-NibStyleId" = "1";
}),
(1536,140,o),
(1541,354,o),
(1492,537,c,{
"Letterink-NibData" = {
MainAxisWidth = "110";
MinorAxisWidth = "105";
ValidForParentMainAxisWidth = "30";
ValidForParentMinorAxisWidth = "15";
};
"Letterink-NibStyleId" = "1";
}),
(1603,632,o),
(1806,806,o),
(1707,965,c,{
"Letterink-NibData" = {
MainAxisWidth = "110";
MinorAxisWidth = "105";
ValidForParentMainAxisWidth = "30";
ValidForParentMinorAxisWidth = "15";
};
"Letterink-NibStyleId" = "1";
}),
(1641,1073,o),
(1476,1152,o),
(1330,1138,c,{
"Letterink-NibData" = {
MainAxisWidth = "110";
MinorAxisWidth = "105";
ValidForParentMainAxisWidth = "30";
ValidForParentMinorAxisWidth = "15";
};
"Letterink-NibStyleId" = "1";
}),
(1288,1277,o),
(1152,1481,o),
(991,1481,cs,{
"Letterink-NibData" = {
MainAxisWidth = "110";
MinorAxisWidth = "105";
ValidForParentMainAxisWidth = "30";
ValidForParentMinorAxisWidth = "15";
};
"Letterink-NibStyleId" = "1";
})
);
}
);
width = 2000;
},
{
layerId = "6D287F59-47E8-4638-B138-818E25D25DE1";
shapes = (
{
attr = {
strokeHeight = 46;
strokeWidth = 46;
};
closed = 1;
nodes = (
(830,1481,o),
(694,1277,o),
(652,1138,c,{
"Letterink-NibData" = {
MainAxisWidth = "110";
MinorAxisWidth = "105";
ValidForParentMainAxisWidth = "30";
ValidForParentMinorAxisWidth = "15";
};
"Letterink-NibStyleId" = "1";
}),
(506,1152,o),
(341,1073,o),
(275,965,c,{
"Letterink-NibData" = {
MainAxisWidth = "110";
MinorAxisWidth = "105";
ValidForParentMainAxisWidth = "30";
ValidForParentMinorAxisWidth = "15";
};
"Letterink-NibStyleId" = "1";
}),
(176,806,o),
(379,632,o),
(490,537,c,{
"Letterink-NibData" = {
MainAxisWidth = "110";
MinorAxisWidth = "105";
ValidForParentMainAxisWidth = "30";
ValidForParentMinorAxisWidth = "15";
};
"Letterink-NibStyleId" = "1";
}),
(441,354,o),
(446,140,o),
(574,55,c,{
"Letterink-NibData" = {
MainAxisWidth = "110";
MinorAxisWidth = "105";
ValidForParentMainAxisWidth = "30";
ValidForParentMinorAxisWidth = "15";
};
"Letterink-NibStyleId" = "1";
}),
(717,-43,o),
(912,130,o),
(991,213,c,{
"Letterink-NibData" = {
MainAxisWidth = "110";
MinorAxisWidth = "105";
ValidForParentMainAxisWidth = "30";
ValidForParentMinorAxisWidth = "15";
};
"Letterink-NibStyleId" = "1";
}),
(1070,130,o),
(1265,-43,o),
(1408,55,c,{
"Letterink-NibData" = {
MainAxisWidth = "110";
MinorAxisWidth = "105";
ValidForParentMainAxisWidth = "30";
ValidForParentMinorAxisWidth = "15";
};
"Letterink-NibStyleId" = "1";
}),
(1536,140,o),
(1541,354,o),
(1492,537,c,{
"Letterink-NibData" = {
MainAxisWidth = "110";
MinorAxisWidth = "105";
ValidForParentMainAxisWidth = "30";
ValidForParentMinorAxisWidth = "15";
};
"Letterink-NibStyleId" = "1";
}),
(1603,632,o),
(1806,806,o),
(1707,965,c,{
"Letterink-NibData" = {
MainAxisWidth = "110";
MinorAxisWidth = "105";
ValidForParentMainAxisWidth = "30";
ValidForParentMinorAxisWidth = "15";
};
"Letterink-NibStyleId" = "1";
}),
(1641,1073,o),
(1476,1152,o),
(1330,1138,c,{
"Letterink-NibData" = {
MainAxisWidth = "110";
MinorAxisWidth = "105";
ValidForParentMainAxisWidth = "30";
ValidForParentMinorAxisWidth = "15";
};
"Letterink-NibStyleId" = "1";
}),
(1288,1277,o),
(1152,1481,o),
(991,1481,cs,{
"Letterink-NibData" = {
MainAxisWidth = "110";
MinorAxisWidth = "105";
ValidForParentMainAxisWidth = "30";
ValidForParentMinorAxisWidth = "15";
};
"Letterink-NibStyleId" = "1";
})
);
}
);
width = 2000;
},
{
layerId = "6553A8EE-D982-49E3-AD79-1FB562774AD6";
shapes = (
{
attr = {
strokeHeight = 300;
strokeWidth = 400;
};
closed = 1;
nodes = (
(830,1481,o),
(694,1277,o),
(652,1138,c,{
"Letterink-NibData" = {
MainAxisWidth = "110";
MinorAxisWidth = "105";
ValidForParentMainAxisWidth = "30";
ValidForParentMinorAxisWidth = "15";
};
"Letterink-NibStyleId" = "1";
}),
(506,1152,o),
(341,1073,o),
(275,965,c,{
"Letterink-NibData" = {
MainAxisWidth = "110";
MinorAxisWidth = "105";
ValidForParentMainAxisWidth = "30";
ValidForParentMinorAxisWidth = "15";
};
"Letterink-NibStyleId" = "1";
}),
(176,806,o),
(379,632,o),
(490,537,c,{
"Letterink-NibData" = {
MainAxisWidth = "110";
MinorAxisWidth = "105";
ValidForParentMainAxisWidth = "30";
ValidForParentMinorAxisWidth = "15";
};
"Letterink-NibStyleId" = "1";
}),
(441,354,o),
(446,140,o),
(574,55,c,{
"Letterink-NibData" = {
MainAxisWidth = "110";
MinorAxisWidth = "105";
ValidForParentMainAxisWidth = "30";
ValidForParentMinorAxisWidth = "15";
};
"Letterink-NibStyleId" = "1";
}),
(717,-43,o),
(912,130,o),
(991,213,c,{
"Letterink-NibData" = {
MainAxisWidth = "110";
MinorAxisWidth = "105";
ValidForParentMainAxisWidth = "30";
ValidForParentMinorAxisWidth = "15";
};
"Letterink-NibStyleId" = "1";
}),
(1070,130,o),
(1265,-43,o),
(1408,55,c,{
"Letterink-NibData" = {
MainAxisWidth = "110";
MinorAxisWidth = "105";
ValidForParentMainAxisWidth = "30";
ValidForParentMinorAxisWidth = "15";
};
"Letterink-NibStyleId" = "1";
}),
(1536,140,o),
(1541,354,o),
(1492,537,c,{
"Letterink-NibData" = {
MainAxisWidth = "110";
MinorAxisWidth = "105";
ValidForParentMainAxisWidth = "30";
ValidForParentMinorAxisWidth = "15";
};
"Letterink-NibStyleId" = "1";
}),
(1603,632,o),
(1806,806,o),
(1707,965,c,{
"Letterink-NibData" = {
MainAxisWidth = "110";
MinorAxisWidth = "105";
ValidForParentMainAxisWidth = "30";
ValidForParentMinorAxisWidth = "15";
};
"Letterink-NibStyleId" = "1";
}),
(1641,1073,o),
(1476,1152,o),
(1330,1138,c,{
"Letterink-NibData" = {
MainAxisWidth = "110";
MinorAxisWidth = "105";
ValidForParentMainAxisWidth = "30";
ValidForParentMinorAxisWidth = "15";
};
"Letterink-NibStyleId" = "1";
}),
(1288,1277,o),
(1152,1481,o),
(991,1481,cs,{
"Letterink-NibData" = {
MainAxisWidth = "110";
MinorAxisWidth = "105";
ValidForParentMainAxisWidth = "30";
ValidForParentMinorAxisWidth = "15";
};
"Letterink-NibStyleId" = "1";
})
);
}
);
width = 2000;
}
);
metricLeft = "|=";
tags = (
"can cartouche"
);
unicode = 989468;
}
{
glyphname = "kule-sp";
layers = (
{
layerId = m01;
shapes = (
{
closed = 1;
nodes = (
(1701,0,l),
(1091,1490,l),
(912,1490,l),
(299,0,l)
);
},
{
closed = 1;
nodes = (
(1652,568,l),
(1652,733,l),
(347,733,l),
(347,568,l)
);
},
{
closed = 1;
nodes = (
(1031,1341,l),
(969,1341,l),
(1435,167,l),
(568,167,l)
);
}
);
width = 2000;
},
{
layerId = "6D287F59-47E8-4638-B138-818E25D25DE1";
shapes = (
{
closed = 1;
nodes = (
(1614,61,l),
(1091,1391,l),
(912,1391,l),
(388,61,l)
);
},
{
closed = 1;
nodes = (
(1652,628,l),
(1652,674,l),
(347,674,l),
(347,628,l)
);
},
{
closed = 1;
nodes = (
(940,1345,l),
(1060,1345,l),
(1546,107,l),
(456,107,l)
);
}
);
width = 2000;
},
{
layerId = "6553A8EE-D982-49E3-AD79-1FB562774AD6";
shapes = (
{
closed = 1;
nodes = (
(1984,-66,l),
(1163,1527,l),
(837,1527,l),
(16,-66,l)
);
},
{
closed = 1;
nodes = (
(1867,501,l),
(1867,801,l),
(132,801,l),
(132,501,l)
);
},
{
closed = 1;
nodes = (
(1027,1227,l),
(973,1227,l),
(1510,234,l),
(493,234,l)
);
}
);
width = 2000;
}
);
metricLeft = "|=";
tags = (
"can cartouche"
);
unicode = 989470;
}
{
glyphname = "kulupu-sp";
layers = (
{
layerId = m01;
shapes = (
{
closed = 1;
nodes = (
(682,43,o),
(819,173,o),
(819,361,cs),
(819,549,o),
(682,679,o),
(466,679,cs),
(249,679,o),
(112,549,o),
(112,361,cs),
(112,173,o),
(249,43,o),
(466,43,cs)
);
},
{
closed = 1;
nodes = (
(351,172,o),
(287,252,o),
(287,362,cs),
(287,472,o),
(351,550,o),
(466,550,cs),
(580,550,o),
(644,473,o),
(644,362,cs),
(644,251,o),
(580,172,o),
(466,172,cs)
);
},
{
closed = 1;
nodes = (
(1578,43,o),
(1715,173,o),
(1715,361,cs),
(1715,549,o),
(1578,679,o),
(1362,679,cs),
(1145,679,o),
(1008,549,o),
(1008,361,cs),
(1008,173,o),
(1145,43,o),
(1362,43,cs)
);
},
{
closed = 1;
nodes = (
(1247,172,o),
(1183,252,o),
(1183,362,cs),
(1183,472,o),
(1247,550,o),
(1362,550,cs),
(1476,550,o),
(1540,473,o),
(1540,362,cs),
(1540,251,o),
(1476,172,o),
(1362,172,cs)
);
},
{
closed = 1;
nodes = (
(1130,811,o),
(1267,941,o),
(1267,1129,cs),
(1267,1317,o),
(1130,1447,o),
(914,1447,cs),
(697,1447,o),
(560,1317,o),
(560,1129,cs),
(560,941,o),
(697,811,o),
(914,811,cs)
);
},
{
closed = 1;
nodes = (
(799,940,o),
(735,1020,o),
(735,1130,cs),
(735,1240,o),
(799,1318,o),
(914,1318,cs),
(1028,1318,o),
(1092,1241,o),
(1092,1130,cs),
(1092,1019,o),
(1028,940,o),
(914,940,cs)
);
}
);
width = 1827;
}
);
unicode = 989471;
}
{
glyphname = "kute-sp";
layers = (
{
layerId = m01;
shapes = (
{
closed = 1;
nodes = (
(783,0,o),
(1052,311,o),
(1052,745,cs),
(1052,1182,o),
(879,1490,o),
(632,1490,cs),
(327,1490,o),
(112,1336,o),
(112,1118,c),
(298,1118,l),
(298,1228,o),
(445,1315,o),
(576,1315,cs),
(763,1315,o),
(866,1064,o),
(866,745,cs),
(866,429,o),
(661,175,o),
(400,151,c),
(400,-24,l)
);
},
{
closed = 1;
nodes = (
(627,664,o),
(590,775,o),
(495,851,cs),
(425,907,l),
(309,771,l),
(379,715,ls),
(418,684,o),
(418,674,o),
(386,617,cs),
(341,537,l),
(502,450,l),
(548,529,ls)
);
}
);
width = 1164;
}
);
unicode = 989472;
}
{
glyphname = "la-sp";
layers = (
{
background = {
shapes = (
{
closed = 1;
nodes = (
(1041,-256,o),
(1344,187,o),
(1344,751,cs),
(1344,1308,o),
(1041,1746,o),
(656,1746,c),
(656,1570,l),
(941,1570,o),
(1159,1255,o),
(1159,751,cs),
(1159,239,o),
(941,-80,o),
(656,-80,c),
(656,-256,l)
);
}
);
};
layerId = m01;
shapes = (
{
closed = 1;
nodes = (
(1070.547,57.5,o),
(1346.5,392.897,o),
(1346.5,745,c),
(1346.5,1097.103,o),
(1070.547,1432.5,o),
(653,1432.5,c),
(653,1257.5,l),
(971.253,1257.5,o),
(1161.5,1021.497,o),
(1161.5,745,c),
(1161.5,468.503,o),
(971.253,232.5,o),
(653,232.5,c),
(653,57.5,l)
);
}
);
width = 2000;
},
{
layerId = "6D287F59-47E8-4638-B138-818E25D25DE1";
shapes = (
{
closed = 1;
nodes = (
(1002,122,o),
(1277,396,o),
(1277,745,c),
(1277,1094,o),
(1002,1368,o),
(653,1368,c),
(653,1322,l),
(977,1322,o),
(1231,1068,o),
(1231,745,c),
(1231,422,o),
(977,168,o),
(653,168,c),
(653,122,l)
);
}
);
width = 2000;
},
{
layerId = "6553A8EE-D982-49E3-AD79-1FB562774AD6";
shapes = (
{
closed = 1;
nodes = (
(1060,-5,o),
(1430,325,o),
(1430,745,c),
(1430,1165,o),
(1060,1495,o),
(589,1495,c),
(589,1195,l),
(836,1195,o),
(1030,997,o),
(1030,745,c),
(1030,493,o),
(836,295,o),
(589,295,c),
(589,-5,l)
);
}
);
width = 2000;
}
);
tags = (
"can cartouche"
);
unicode = 989473;
}
{
glyphname = "lape-sp";
layers = (
{
layerId = m01;
shapes = (
{
closed = 1;
nodes = (
(1651,313,o),
(1859,480,o),
(1859,744,cs),
(1859,1010,o),
(1651,1177,o),
(1435,1177,cs),
(1219,1177,o),
(1011,1010,o),
(1011,744,cs),
(1011,480,o),
(1219,313,o),
(1435,313,cs)
);
},
{
closed = 1;
nodes = (
(1319,489,o),
(1196,580,o),
(1196,744,cs),
(1196,910,o),
(1319,1001,o),
(1435,1001,cs),
(1551,1001,o),
(1674,910,o),
(1674,744,cs),
(1674,580,o),
(1551,489,o),
(1435,489,cs)
);
},
{
closed = 1;
nodes = (
(1092,656,l),
(1092,832,l),
(112,832,l),
(112,656,l)
);
}
);
width = 1971;
}
);
unicode = 989474;
}
{
glyphname = "laso-sp";
layers = (
{
background = {
shapes = (
{
closed = 1;
nodes = (
(1315.732,231,l),
(684.268,231,l),
(1000,574.055,l)
);
}
);
};
layerId = m01;
shapes = (
{
closed = 1;
nodes = (
(677,1093,o),
(870,1023,o),
(904,752,c),
(678,766,o),
(485,836,o),
(451,1107,c)
);
},
{
closed = 1;
nodes = (
(212,616,o),
(755,561,o),
(1092,577,c),
(1143,1243,o),
(600,1298,o),
(263,1282,c)
);
},
{
closed = 1;
nodes = (
(1515,1146,o),
(1322,1076,o),
(1096,1062,c),
(1130,1333,o),
(1323,1403,o),
(1549,1417,c)
);
},
{
closed = 1;
nodes = (
(1400,1608,o),
(857,1553,o),
(908,887,c),
(1245,871,o),
(1788,926,o),
(1737,1592,c)
);
},
{
closed = 1;
nodes = (
(908,643,l),
(1094,643,l),
(1094,1506,l),
(908,1506,l)
);
},
{
closed = 1;
nodes = (
(1315.732,231,l),
(684.268,231,l),
(1000,574.055,l)
);
},
{
closed = 1;
nodes = (
(275.732,55,l),
(1724.268,55,l),
(1000,841.945,l)
);
}
);
width = 2000;
}
);
metricLeft = "=|";
tags = (
"can cartouche"
);
unicode = 989475;
}
{
glyphname = "lawa-sp";
layers = (
{
layerId = m01;
shapes = (
{
closed = 1;
nodes = (
(1259,-20,o),
(1529,272,o),
(1529,744,cs),
(1529,1217,o),
(1259,1510,o),
(912,1510,cs),
(565,1510,o),
(293,1217,o),
(293,744,cs),
(293,272,o),
(565,-20,o),
(912,-20,cs)
);
},
{
closed = 1;
nodes = (
(669,156,o),
(479,364,o),
(479,744,cs),
(479,1126,o),
(669,1334,o),
(912,1334,cs),
(1153,1334,o),
(1343,1127,o),
(1343,744,cs),
(1343,363,o),
(1153,156,o),
(912,156,cs)
);
},
{
closed = 1;
nodes = (
(1816,952,l),
(1816,1117,l),
(384,1117,l),
(384,952,l)
);
}
);
width = 2000;
}
);
tags = (
"can cartouche"
);
unicode = 989476;
}
{
glyphname = "len-sp";
layers = (
{
layerId = m01;
shapes = (
{
closed = 1;
nodes = (
(298,1315,l),
(298,642,l),
(1109,642,l),
(1109,1315,l)
);
},
{
closed = 1;
nodes = (
(112,1490,l),
(1295,1490,l),
(1295,0,l),
(1109,0,l),
(1109,467,l),
(797,466,l),
(797,0,l),
(611,0,l),
(611,466,l),
(298,467,l),
(298,0,l),
(112,0,l)
);
}
);
width = 1407;
}
);
unicode = 989477;
}
{
glyphname = "lete-sp";
layers = (
{
layerId = m01;
shapes = (
{
closed = 1;
nodes = (
(647,660,l),
(355,146,l),
(507,54,l),
(804,575,l),
(1100,54,l),
(1252,146,l),
(960,660,l),
(1548,652,l),
(1548,837,l),
(959,829,l),
(1252,1344,l),
(1100,1436,l),
(804,915,l),
(507,1436,l),
(355,1344,l),
(648,829,l),
(58,837,l),
(58,652,l)
);
}
);
width = 1606;
}
);
unicode = 989478;
}
{
category = UCSUR;
glyphname = "li-sp";
layers = (
{
backgroundImage = {
imagePath = "nasin koko li.png";
locked = 1;
pos = (-94,-139);
scale = (3.5939,3.5939);
};
layerId = m01;
shapes = (
{
closed = 1;
nodes = (
(1083,738,l),
(228,0,l),
(112,116,l),
(833,738,l),
(112,1374,l),
(228,1490,l)
);
}
);
width = 1195;
}
);
script = "sitelen pona";
subCategory = "nimi pu";
unicode = 989479;
}
{
glyphname = "lili-sp";
layers = (
{
layerId = m01;
shapes = (
{
closed = 1;
nodes = (
(554,1009,l),
(934,481,l),
(1066,481,l),
(1445,1009,l),
(1259,1009,l),
(1000,641,l),
(740,1009,l)
);
}
);
width = 2000;
}
);
metricLeft = "|=";
tags = (
"can cartouche"
);
unicode = 989480;
}
{
glyphname = "linja-sp";
layers = (
{
layerId = m01;
shapes = (
{
closed = 1;
nodes = (
(1517,637,o),
(1367,620,o),
(1131,753,cs),
(885,891,ls),
(590,1057,o),
(326,1027,o),
(112,806,c),
(244,684,l),
(409,853,o),
(559,870,o),
(795,737,cs),
(1041,599,ls),
(1336,433,o),
(1600,463,o),
(1814,684,c),
(1682,806,l)
);
}
);
width = 1926;
}
);
unicode = 989481;
}
{
glyphname = "lipu-sp";
layers = (
{
layerId = m01;
shapes = (
{
closed = 1;
nodes = (
(1591,0,l),
(1591,1490,l),
(408,1490,l),
(408,0,l)
);
},
{
closed = 1;
nodes = (
(594,1315,l),
(1405,1315,l),
(1405,175,l),
(594,175,l)
);
}
);
width = 2000;
},
{
layerId = "6D287F59-47E8-4638-B138-818E25D25DE1";
shapes = (
{
closed = 1;
nodes = (
(1591,0,l),
(1591,1490,l),
(408,1490,l),
(408,0,l)
);
},
{
closed = 1;
nodes = (
(454,1444,l),
(1545,1444,l),
(1545,46,l),
(454,46,l)
);
}
);
width = 2000;
}
);
metricLeft = "|=";
tags = (
"can cartouche"
);
unicode = 989482;
}
{
glyphname = "loje-sp";
layers = (
{
layerId = m01;
shapes = (
{
closed = 1;
nodes = (
(1245,152,l),
(755,152,l),
(1000,440,l)
);
},
{
closed = 1;
nodes = (
(437,0,l),
(1563,0,l),
(1000,674,l)
);
},
{
alignment = -1;
pos = (143,488);
ref = _closedMouth;
}
);
width = 2000;
}
);
metricLeft = "=|";
tags = (
"can cartouche"
);
unicode = 989483;
}
{
glyphname = "lon-sp";
layers = (
{
layerId = m01;
shapes = (
{
closed = 1;
nodes = (
(375,631,l),
(375,456,l),
(1625,456,l),
(1625,631,l)
);
},
{
pos = (762,290);
ref = _part.dot;
}
);
width = 2000;
}
);
metricLeft = "|=";
tags = (
"can cartouche"
);
unicode = 989484;
}
{
glyphname = "luka-sp";
layers = (
{
layerId = m01;
shapes = (
{
closed = 1;
nodes = (
(920,0,l),
(920,856,l),
(920,1189,o),
(1023,1363,o),
(1229,1363,c),
(1435,1363,o),
(1538,1193,o),
(1538,867,c),
(1538,0,l),
(1724,0,l),
(1724,867,l),
(1724,1294,o),
(1559,1514,o),
(1229,1514,c),
(899,1514,o),
(734,1292,o),
(734,861,c),
(734,103,l),
(775,114,l),
(406,771,l),
(276,641,l),
(645,0,l)
);
}
);
width = 2000;
},
{
layerId = "6D287F59-47E8-4638-B138-818E25D25DE1";
shapes = (
{
closed = 1;
nodes = (
(850,0,l),
(850,856,l),
(850,1230,o),
(976,1416,o),
(1229,1416,c),
(1482,1416,o),
(1608,1234,o),
(1608,867,c),
(1608,0,l),
(1654,0,l),
(1654,867,l),
(1654,1265,o),
(1513,1462,o),
(1229,1462,c),
(945,1462,o),
(804,1263,o),
(804,861,c),
(804,61,l),
(816,65,l),
(357,722,l),
(325,690,l),
(804,0,l)
);
}
);
width = 2000;
},
{
layerId = "6553A8EE-D982-49E3-AD79-1FB562774AD6";
shapes = (
{
closed = 1;
nodes = (
(963,0,l),
(963,856,l),
(963,1110,o),
(1053,1289,o),
(1181,1289,c),
(1309,1289,o),
(1399,1115,o),
(1399,867,c),
(1399,0,l),
(1799,0,l),
(1799,867,l),
(1799,1291,o),
(1544,1589,o),
(1181,1589,c),
(818,1589,o),
(563,1288,o),
(563,861,c),
(563,5,l),
(720,22,l),
(394,823,l),
(160,589,l),
(417,0,l)
);
}
);
width = 2000;
}
);
tags = (
"can cartouche"
);
unicode = 989485;
}
{
glyphname = "lukin-sp";
layers = (
{
layerId = m01;
shapes = (
{
closed = 1;
nodes = (
(1048,176,o),
(1312,426,o),
(1312,744,cs),
(1312,1062,o),
(1048,1312,o),
(713,1312,cs),
(376,1312,o),
(112,1062,o),
(112,744,cs),
(112,426,o),
(376,176,o),
(713,176,cs)
);
},
{
closed = 1;
nodes = (
(469,350,o),
(297,513,o),
(297,746,cs),
(297,976,o),
(469,1138,o),
(713,1138,cs),
(956,1138,o),
(1127,976,o),
(1127,746,cs),
(1127,513,o),
(956,350,o),
(713,351,cs)
);
},
{
pos = (476,0);
ref = _part.dot;
}
);
width = 1424;
}
);
unicode = 989486;
}
{
glyphname = "lupa-sp";
layers = (
{
layerId = m01;
shapes = (
{
closed = 1;
nodes = (
(888,-20,o),
(1204,119,o),
(1204,530,cs),
(1204,1490,l),
(1014,1490,l),
(1014,530,ls),
(1014,234,o),
(776,152,o),
(651,152,cs),
(535,152,o),
(302,234,o),
(302,530,cs),
(302,1490,l),
(112,1490,l),
(112,530,ls),
(112,119,o),
(413,-20,o),
(651,-20,cs)
);
}
);
width = 1316;
}
);
unicode = 989487;
}
{
category = UCSUR;
glyphname = "ma-sp";
layers = (
{
layerId = m01;
shapes = (
{
closed = 1;
nodes = (
(1229,-20,o),
(1582,272,o),
(1582,744,cs),
(1582,1217,o),
(1229,1510,o),
(847,1510,cs),
(465,1510,o),
(112,1217,o),
(112,744,cs),
(112,272,o),
(465,-20,o),
(847,-20,cs)
);
},
{
closed = 1;
nodes = (
(579,156,o),
(297,364,o),
(297,744,cs),
(297,1126,o),
(579,1334,o),
(847,1334,cs),
(1113,1334,o),
(1397,1126,o),
(1397,744,cs),
(1397,364,o),
(1113,156,o),
(847,156,cs)
);
},
{
closed = 1;
nodes = (
(754,110,l),
(940,110,l),
(940,1425,l),
(754,1425,l)
);
},
{
closed = 1;
nodes = (
(212,656,l),
(1487,656,l),
(1487,832,l),
(212,832,l)
);
}
);
width = 1694;
}
);
script = "sitelen pona";
subCategory = "nimi pu";
unicode = 989488;
}
{
glyphname = "mani-sp";
layers = (
{
annotations = (
{
pos = (1649,1861);
text = "i saw a flat headed mani i might investigate that later";
type = Text;
}
);
layerId = m01;
shapes = (
{
closed = 1;
nodes = (
(1383,-20,o),
(1661,272,o),
(1661,744,cs),
(1661,1217,o),
(1383,1510,o),
(1001,1510,cs),
(619,1510,o),
(339,1217,o),
(339,744,cs),
(339,272,o),
(619,-20,o),
(1001,-20,cs)
);
},
{
closed = 1;
nodes = (
(733,156,o),
(524,364,o),
(524,744,cs),
(524,1126,o),
(733,1334,o),
(1001,1334,cs),
(1267,1334,o),
(1476,1127,o),
(1476,744,cs),
(1476,363,o),
(1267,156,o),
(1001,156,cs)
);
},
{
closed = 1;
nodes = (
(1653,1296,o),
(1583,1191,o),
(1418,1126,c),
(1486,964,l),
(1718,1054,o),
(1838,1235,o),
(1843,1488,c),
(1657,1492,l)
);
},
{
closed = 1;
nodes = (
(157,1488,l),
(162,1235,o),
(282,1054,o),
(514,964,c),
(582,1126,l),
(417,1191,o),
(347,1296,o),
(343,1492,c)
);
}
);
width = 2000;
}
);
metricLeft = "=|";
tags = (
"can cartouche"
);
unicode = 989490;
}
{
glyphname = "meli-sp";
layers = (
{
layerId = m01;
shapes = (
{
closed = 1;
nodes = (
(1252,614,o),
(1450,812,o),
(1450,1064,cs),
(1450,1316,o),
(1252,1514,o),
(1000,1514,cs),
(748,1514,o),
(550,1316,o),
(550,1064,cs),
(550,812,o),
(748,614,o),
(1000,614,cs)
);
},
{
closed = 1;
nodes = (
(1082,0,l),
(1082,720,l),
(918,720,l),
(918,0,l)
);
},
{
closed = 1;
nodes = (
(1300,279,l),
(1300,443,l),
(700,443,l),
(700,279,l)
);
},
{
closed = 1;
nodes = (
(846,789,o),
(725,910,o),
(725,1064,cs),
(725,1218,o),
(846,1339,o),
(1000,1339,cs),
(1154,1339,o),
(1275,1218,o),
(1275,1064,cs),
(1275,910,o),
(1154,789,o),
(1000,789,cs)
);
}
);
width = 2000;
},
{
layerId = "6D287F59-47E8-4638-B138-818E25D25DE1";
shapes = (
{
closed = 1;
nodes = (
(1216,679,o),
(1386,848,o),
(1386,1064,cs),
(1386,1280,o),
(1216,1450,o),
(1000,1450,cs),
(784,1450,o),
(615,1280,o),
(615,1064,cs),
(615,848,o),
(784,679,o),
(1000,679,cs)
);
},
{
closed = 1;
nodes = (
(1023,0,l),
(1023,720,l),
(977,720,l),
(977,0,l)
);
},
{
closed = 1;
nodes = (
(1300,339,l),
(1300,385,l),
(700,385,l),
(700,339,l)
);
},
{
closed = 1;
nodes = (
(810,725,o),
(661,874,o),
(661,1064,cs),
(661,1254,o),
(810,1404,o),
(1000,1404,cs),
(1190,1404,o),
(1340,1254,o),
(1340,1064,cs),
(1340,874,o),
(1190,725,o),
(1000,725,cs)
);
}
);
width = 2000;
},
{
layerId = "6553A8EE-D982-49E3-AD79-1FB562774AD6";
shapes = (
{
closed = 1;
nodes = (
(1333,552,o),
(1595,777,o),
(1595,1064,cs),
(1595,1351,o),
(1333,1577,o),
(1000,1577,cs),
(667,1577,o),
(406,1351,o),
(406,1064,cs),
(406,777,o),
(667,552,o),
(1000,552,cs)
);
},
{
closed = 1;
nodes = (
(1199,0,l),
(1199,720,l),
(799,720,l),
(799,0,l)
);
},
{
closed = 1;
nodes = (
(1422,211,l),
(1422,511,l),
(576,511,l),
(576,211,l)
);
},
{
closed = 1;
nodes = (
(891,852,o),
(806,945,o),
(806,1064,cs),
(806,1183,o),
(891,1277,o),
(1000,1277,cs),
(1109,1277,o),
(1195,1183,o),
(1195,1064,cs),
(1195,945,o),
(1109,852,o),
(1000,852,cs)
);
}
);
width = 2000;
}
);
metricLeft = "|=";
tags = (
"can cartouche"
);
unicode = 989491;
}
{
glyphname = "mije-sp";
layers = (
{
layerId = m01;
shapes = (
{
closed = 1;
nodes = (
(814,89,o),
(1012,287,o),
(1012,539,cs),
(1012,791,o),
(814,989,o),
(562,989,cs),
(310,989,o),
(112,791,o),
(112,539,cs),
(112,287,o),
(310,89,o),
(562,89,cs)
);
},
{
closed = 1;
nodes = (
(408,264,o),
(287,385,o),
(287,539,cs),
(287,693,o),
(408,814,o),
(562,814,cs),
(716,814,o),
(837,693,o),
(837,539,cs),
(837,385,o),
(716,264,o),
(562,264,cs)
);
},
{
closed = 1;
nodes = (
(1258,1352,l),
(751,842,l),
(865,728,l),
(1375,1235,l)
);
},
{
closed = 1;
nodes = (
(1250,1227,l),
(1250,886,l),
(1425,886,l),
(1425,1402,l),
(909,1402,l),
(909,1227,l)
);
}
);
width = 1537;
}
);
unicode = 989493;
}
{
glyphname = "moku-sp";
layers = (
{
layerId = m01;
shapes = (
{
closed = 1;
nodes = (
(281,771,l),
(151,641,l),
(520,0,l),
(795,0,l),
(795,333,o),
(898,507,o),
(1104,507,cs),
(1310,507,o),
(1413,337,o),
(1413,11,cs),
(1413,0,l),
(1599,0,l),
(1599,11,ls),
(1599,438,o),
(1434,658,o),
(1104,658,cs),
(824,658,o),
(663,498,o),
(620,187,c),
(609,187,l)
);
},
{
attr = {
strokeHeight = 176;
strokeWidth = 186;
};
closed = 1;
nodes = (
(1594,828,o),
(1371,605,o),
(1095,605,cs),
(818,605,o),
(594,828,o),
(594,1231,c),
(1594,1231,l)
);
}
);
width = 2000;
}
);
metricLeft = "|=";
tags = (
"can cartouche"
);
unicode = 989494;
}
{
glyphname = "mu-sp";
layers = (
{
layerId = m01;
shapes = (
{
closed = 1;
nodes = (
(1343,-17,o),
(1593,239,o),
(1593,580,cs),
(1593,921,o),
(1343,1177,o),
(1000,1177,cs),
(657,1177,o),
(407,921,o),
(407,580,cs),
(407,239,o),
(657,-17,o),
(1000,-17,cs)
);
},
{
alignment = -1;
pos = (0,-400);
ref = "interpunct-sp";
},
{
closed = 1;
nodes = (
(751,158,o),
(593,319,o),
(593,580,cs),
(593,841,o),
(751,1002,o),
(1000,1002,cs),
(1249,1002,o),
(1407,841,o),
(1407,580,cs),
(1407,319,o),
(1249,158,o),
(1000,158,cs)
);
},
{
closed = 1;
nodes = (
(691,832,o),
(843,984,o),
(843,1169,cs),
(843,1354,o),
(691,1507,o),
(500,1507,cs),
(309,1507,o),
(157,1354,o),
(157,1169,cs),
(157,984,o),
(309,832,o),
(500,832,cs)
);
},
{
closed = 1;
nodes = (
(402,1007,o),
(343,1066,o),
(343,1169,cs),
(343,1272,o),
(402,1332,o),
(500,1332,cs),
(598,1332,o),
(657,1272,o),
(657,1169,cs),
(657,1066,o),
(598,1007,o),
(500,1007,cs)
);
},
{
closed = 1;
nodes = (
(1691,832,o),
(1843,984,o),
(1843,1169,cs),
(1843,1354,o),
(1691,1507,o),
(1500,1507,cs),
(1309,1507,o),
(1157,1354,o),
(1157,1169,cs),
(1157,984,o),
(1309,832,o),
(1500,832,cs)
);
},
{
closed = 1;
nodes = (
(1402,1007,o),
(1343,1066,o),
(1343,1169,cs),
(1343,1272,o),
(1402,1332,o),
(1500,1332,cs),
(1598,1332,o),
(1657,1272,o),
(1657,1169,cs),
(1657,1066,o),
(1598,1007,o),
(1500,1007,cs)
);
}
);
width = 2000;
}
);
unicode = 989497;
}
{
glyphname = "mun-sp";
layers = (
{
layerId = m01;
shapes = (
{
closed = 1;
nodes = (
(416,1152,o),
(568,1000,o),
(568,745,cs),
(568,490,o),
(416,338,o),
(112,345,c),
(112,99,o),
(244,-24,o),
(507,-24,cs),
(700,-24,o),
(1132,232,o),
(1132,745,cs),
(1132,1258,o),
(700,1514,o),
(507,1514,c),
(244,1514,o),
(112,1391,o),
(112,1145,c)
);
},
{
closed = 1;
nodes = (
(352,1333,o),
(405,1339,o),
(507,1339,cs),
(637,1339,o),
(946,1172,o),
(946,745,cs),
(946,318,o),
(637,151,o),
(507,151,cs),
(405,151,o),
(352,157,o),
(325,191,c),
(591,255,o),
(754,457,o),
(754,745,cs),
(754,1033,o),
(591,1235,o),
(325,1299,c)
);
}
);
width = 1244;
}
);
unicode = 989498;
}
{
glyphname = "musi-sp";
layers = (
{
layerId = m01;
shapes = (
{
closed = 1;
nodes = (
(1343,-97,o),
(1593,159,o),
(1593,500,cs),
(1593,1030,l),
(1407,1030,l),
(1407,500,ls),
(1407,239,o),
(1249,78,o),
(1000,78,cs),
(751,78,o),
(593,239,o),
(593,500,cs),
(593,1030,l),
(407,1030,l),
(407,500,ls),
(407,159,o),
(657,-97,o),
(1000,-97,cs)
);
},
{
closed = 1;
nodes = (
(691,968,o),
(843,1120,o),
(843,1305,cs),
(843,1490,o),
(691,1643,o),
(500,1643,cs),
(309,1643,o),
(157,1490,o),
(157,1305,cs),
(157,1120,o),
(309,968,o),
(500,968,cs)
);
},
{
closed = 1;
nodes = (
(402,1143,o),
(343,1202,o),
(343,1305,cs),
(343,1408,o),
(402,1468,o),
(500,1468,cs),
(598,1468,o),
(657,1408,o),
(657,1305,cs),
(657,1202,o),
(598,1143,o),
(500,1143,cs)
);
},
{
closed = 1;
nodes = (
(1691,968,o),
(1843,1120,o),
(1843,1305,cs),
(1843,1490,o),
(1691,1643,o),
(1500,1643,cs),
(1309,1643,o),
(1157,1490,o),
(1157,1305,cs),
(1157,1120,o),
(1309,968,o),
(1500,968,cs)
);
},
{
closed = 1;
nodes = (
(1402,1143,o),
(1343,1202,o),
(1343,1305,cs),
(1343,1408,o),
(1402,1468,o),
(1500,1468,cs),
(1598,1468,o),
(1657,1408,o),
(1657,1305,cs),
(1657,1202,o),
(1598,1143,o),
(1500,1143,cs)
);
}
);
width = 2000;
},
{
layerId = "6D287F59-47E8-4638-B138-818E25D25DE1";
shapes = (
{
closed = 1;
nodes = (
(1293,-32,o),
(1523,202,o),
(1523,500,cs),
(1523,1054,l),
(1477,1054,l),
(1477,500,ls),
(1477,228,o),
(1267,14,o),
(1000,14,cs),
(733,14,o),
(523,228,o),
(523,500,cs),
(523,1054,l),
(477,1054,l),
(477,500,ls),
(477,202,o),
(707,-32,o),
(1000,-32,cs)
);
},
{
closed = 1;
nodes = (
(653,1033,o),
(773,1153,o),
(773,1305,cs),
(773,1458,o),
(653,1579,o),
(500,1579,cs),
(347,1579,o),
(227,1458,o),
(227,1305,cs),
(227,1153,o),
(347,1033,o),
(500,1033,cs)
);
},
{
closed = 1;
nodes = (
(373,1079,o),
(273,1178,o),
(273,1305,cs),
(273,1433,o),
(373,1533,o),
(500,1533,cs),
(627,1533,o),
(727,1433,o),
(727,1305,cs),
(727,1178,o),
(627,1079,o),
(500,1079,cs)
);
},
{
closed = 1;
nodes = (
(1653,1033,o),
(1773,1153,o),
(1773,1305,cs),
(1773,1458,o),
(1653,1579,o),
(1500,1579,cs),
(1347,1579,o),
(1227,1458,o),
(1227,1305,cs),
(1227,1153,o),
(1347,1033,o),
(1500,1033,cs)
);
},
{
closed = 1;
nodes = (
(1373,1079,o),
(1273,1178,o),
(1273,1305,cs),
(1273,1433,o),
(1373,1533,o),
(1500,1533,cs),
(1627,1533,o),
(1727,1433,o),
(1727,1305,cs),
(1727,1178,o),
(1627,1079,o),
(1500,1079,cs)
);
}
);
width = 2000;
},
{
layerId = "6553A8EE-D982-49E3-AD79-1FB562774AD6";
width = 2000;
}
);
metricLeft = "=|";
tags = (
"can cartouche"
);
unicode = 989499;
}
{
glyphname = "mute-sp";
layers = (
{
layerId = m01;
shapes = (
{
closed = 1;
nodes = (
(112,1490,l),
(112,0,l),
(302,0,l),
(302,1490,l)
);
},
{
closed = 1;
nodes = (
(522,1490,l),
(522,0,l),
(712,0,l),
(712,1490,l)
);
},
{
closed = 1;
nodes = (
(932,1490,l),
(932,0,l),
(1122,0,l),
(1122,1490,l)
);
}
);
width = 1234;
}
);
unicode = 989500;
}
{
glyphname = "nanpa-sp";
layers = (
{
layerId = m01;
shapes = (
{
closed = 1;
nodes = (
(1345,0,l),
(1329,1490,l),
(1178,1490,l),
(1192,0,l)
);
},
{
closed = 1;
nodes = (
(1740,411,l),
(1740,561,l),
(243,561,l),
(243,411,l)
);
},
{
closed = 1;
nodes = (
(821,0,l),
(805,1490,l),
(654,1490,l),
(670,0,l)
);
},
{
closed = 1;
nodes = (
(1740,927,l),
(1740,1079,l),
(243,1079,l),
(243,927,l)
);
}
);
width = 2000;
}
);
metricLeft = "|=";
tags = (
"can cartouche"
);
unicode = 989501;
}
{
glyphname = "nasin-sp";
layers = (
{
layerId = m01;
shapes = (
{
closed = 1;
nodes = (
(1000,932,l),
(1534,398,l),
(1666,522,l),
(1000,1188,l),
(334,522,l),
(466,398,l)
);
},
{
closed = 1;
nodes = (
(1093,0,l),
(1093,1514,l),
(907,1514,l),
(907,0,l)
);
}
);
width = 2000;
},
{
layerId = "6D287F59-47E8-4638-B138-818E25D25DE1";
shapes = (
{
closed = 1;
nodes = (
(1000,1037,l),
(1583,444,l),
(1617,476,l),
(1000,1083,l),
(383,476,l),
(417,444,l)
);
},
{
closed = 1;
nodes = (
(1023,0,l),
(1023,1514,l),
(977,1514,l),
(977,0,l)
);
}
);
width = 2000;
},
{
layerId = "6553A8EE-D982-49E3-AD79-1FB562774AD6";
shapes = (
{
closed = 1;
nodes = (
(1000,877,l),
(1498,364,l),
(1702,556,l),
(1000,1243,l),
(298,556,l),
(502,364,l)
);
},
{
closed = 1;
nodes = (
(1150,0,l),
(1150,1514,l),
(850,1514,l),
(850,0,l)
);
}
);
width = 2000;
}
);
tags = (
"can cartouche"
);
unicode = 989503;
}
{
glyphname = "nena-sp";
layers = (
{
layerId = m01;
shapes = (
{
closed = 1;
nodes = (
(413,1514,o),
(112,1375,o),
(112,964,cs),
(112,4,l),
(302,4,l),
(302,964,ls),
(302,1260,o),
(535,1342,o),
(651,1342,cs),
(776,1342,o),
(1014,1260,o),
(1014,964,cs),
(1014,4,l),
(1204,4,l),
(1204,964,ls),
(1204,1375,o),
(888,1514,o),
(651,1514,cs)
);
}
);
width = 1316;
}
);
unicode = 989504;
}
{
glyphname = "ni-sp";
layers = (
{
layerId = m01;
shapes = (
{
closed = 1;
nodes = (
(1652,652,l),
(1536,768,l),
(1019,241,l),
(1083,221,l),
(1083,1514,l),
(917,1514,l),
(917,221,l),
(981,241,l),
(464,768,l),
(348,652,l),
(1000,0,l)
);
}
);
width = 2000;
},
{
layerId = "6D287F59-47E8-4638-B138-818E25D25DE1";
shapes = (
{
closed = 1;
nodes = (
(1652,636,l),
(1618,670,l),
(1003,41,l),
(1023,41,l),
(1023,1490,l),
(977,1490,l),
(977,41,l),
(997,41,l),
(380,670,l),
(348,636,l),
(1000,-16,l)
);
}
);
width = 2000;
},
{
background = {
shapes = (
{
closed = 1;
nodes = (
(1652,652,l),
(1536,768,l),
(1326,557,ls),
(1224,454,o),
(1097,296,o),
(1019,193,c),
(1051,221,l),
(1068,304,o),
(1083,387,o),
(1083,470,cs),
(1083,1514,l),
(917,1514,l),
(917,470,ls),
(917,387,o),
(932,304,o),
(949,221,c),
(981,193,l),
(903,296,o),
(776,454,o),
(674,557,cs),
(464,768,l),
(348,652,l),
(1000,0,l)
);
}
);
};
layerId = "6553A8EE-D982-49E3-AD79-1FB562774AD6";
shapes = (
{
closed = 1;
nodes = (
(1788,788,l),
(1582,994,l),
(1025,440,l),
(1201,344,l),
(1201,1514,l),
(801,1514,l),
(801,344,l),
(978,440,l),
(418,995,l),
(212,789,l),
(1000,0,l)
);
}
);
width = 2000;
}
);
metricLeft = "|=";
subCategory = "";
tags = (
"can cartouche"
);
unicode = 989505;
}
{
glyphname = "nimi-sp";
layers = (
{
layerId = m01;
shapes = (
{
closed = 1;
nodes = (
(1495,245,ls),
(1642,245,o),
(1750,353,o),
(1750,500,cs),
(1750,990,ls),
(1750,1137,o),
(1642,1245,o),
(1495,1245,cs),
(505,1245,ls),
(358,1245,o),
(250,1137,o),
(250,990,cs),
(250,500,ls),
(250,353,o),
(358,245,o),
(505,245,cs)
);
},
{
closed = 1;
nodes = (
(466,420,o),
(436,455,o),
(436,500,cs),
(436,990,ls),
(436,1035,o),
(466,1070,o),
(505,1070,cs),
(1495,1070,ls),
(1534,1070,o),
(1564,1035,o),
(1564,990,cs),
(1564,500,ls),
(1564,455,o),
(1534,420,o),
(1495,420,cs),
(505,420,ls)
);
}
);
width = 2000;
},
{
layerId = "6D287F59-47E8-4638-B138-818E25D25DE1";
shapes = (
{
closed = 1;
nodes = (
(1495,310,ls),
(1599,310,o),
(1680,394,o),
(1680,500,cs),
(1680,990,ls),
(1680,1097,o),
(1599,1181,o),
(1495,1181,cs),
(505,1181,ls),
(401,1181,o),
(320,1097,o),
(320,990,cs),
(320,500,ls),
(320,394,o),
(401,310,o),
(505,310,cs)
);
},
{
closed = 1;
nodes = (
(427,356,o),
(366,419,o),
(366,500,cs),
(366,990,ls),
(366,1071,o),
(427,1135,o),
(505,1135,cs),
(1495,1135,ls),
(1573,1135,o),
(1634,1071,o),
(1634,990,cs),
(1634,500,ls),
(1634,419,o),
(1573,356,o),
(1495,356,cs),
(505,356,ls)
);
}
);
width = 2000;
},
{
layerId = "6553A8EE-D982-49E3-AD79-1FB562774AD6";
shapes = (
{
closed = 1;
nodes = (
(1657,182,ls),
(1787,182,o),
(1857,252,o),
(1857,382,cs),
(1857,1107,ls),
(1857,1237,o),
(1787,1307,o),
(1657,1307,cs),
(343,1307,ls),
(213,1307,o),
(143,1237,o),
(143,1107,cs),
(143,382,ls),
(143,252,o),
(213,182,o),
(343,182,cs)
);
},
{
closed = 1;
nodes = (
(578,482,o),
(543,517,o),
(543,582,cs),
(543,907,ls),
(543,972,o),
(578,1007,o),
(643,1007,cs),
(1357,1007,ls),
(1422,1007,o),
(1457,972,o),
(1457,907,cs),
(1457,582,ls),
(1457,517,o),
(1422,482,o),
(1357,482,cs),
(643,482,ls)
);
}
);
width = 2000;
}
);
tags = (
"can cartouche"
);
unicode = 989506;
}
{
glyphname = "noka-sp";
layers = (
{
layerId = m01;
shapes = (
{
closed = 1;
nodes = (
(1223,0,ls),
(1473,0,o),
(1669,170,o),
(1669,386,cs),
(1669,600,o),
(1473,770,o),
(1223,772,cs),
(1121,773,l),
(1121,1490,l),
(935,1490,l),
(935,603,l),
(1221,597,ls),
(1368,594,o),
(1483,501,o),
(1483,386,cs),
(1483,268,o),
(1369,175,o),
(1223,175,cs),
(613,175,l),
(613,1490,l),
(427,1490,l),
(427,0,l)
);
}
);
width = 2000;
},
{
layerId = "6D287F59-47E8-4638-B138-818E25D25DE1";
shapes = (
{
closed = 1;
nodes = (
(1351,65,ls),
(1544,65,o),
(1695,203,o),
(1695,378,cs),
(1695,554,o),
(1544,692,o),
(1351,692,cs),
(1051,692,l),
(1051,1490,l),
(1005,1490,l),
(1005,648,l),
(1349,646,ls),
(1517,645,o),
(1649,527,o),
(1649,378,cs),
(1649,228,o),
(1518,111,o),
(1351,111,cs),
(543,111,l),
(543,1490,l),
(497,1490,l),
(497,65,l)
);
}
);
width = 2000;
},
{
layerId = "6553A8EE-D982-49E3-AD79-1FB562774AD6";
shapes = (
{
closed = 1;
nodes = (
(1255,-62,ls),
(1565,-62,o),
(1808,151,o),
(1808,421,cs),
(1808,678,o),
(1577,891,o),
(1284,904,cs),
(1260,905,l),
(1260,1490,l),
(860,1490,l),
(860,580,l),
(1253,580,ls),
(1352,580,o),
(1408,523,o),
(1408,421,cs),
(1408,304,o),
(1353,238,o),
(1255,238,cs),
(624,238,l),
(624,1490,l),
(224,1490,l),
(224,-62,l)
);
}
);
width = 2000;
}
);
metricLeft = "|=";
tags = (
"can cartouche"
);
unicode = 989507;
}
{
glyphname = "o-sp";
layers = (
{
layerId = m01;
shapes = (
{
closed = 1;
nodes = (
(1216,-24,o),
(1353,106,o),
(1353,294,cs),
(1353,482,o),
(1216,612,o),
(1000,612,cs),
(783,612,o),
(646,482,o),
(646,294,cs),
(646,106,o),
(783,-24,o),
(1000,-24,cs)
);
},
{
closed = 1;
nodes = (
(885,105,o),
(821,185,o),
(821,295,cs),
(821,405,o),
(885,483,o),
(1000,483,cs),
(1114,483,o),
(1178,406,o),
(1178,295,cs),
(1178,184,o),
(1114,105,o),
(1000,105,cs)
);
},
{
closed = 1;
nodes = (
(905,1490,l),
(905,803,l),
(1095,803,l),
(1095,1490,l)
);
}
);
width = 2000;
}
);
metricLeft = "|=";
tags = (
"can cartouche"
);
unicode = 989508;
}
{
glyphname = "olin-sp";
layers = (
{
background = {
shapes = (
{
closed = 1;
nodes = (
(1454,432,ls),
(1562,540,o),
(1564,721,o),
(1453,830,cs),
(1341,937,o),
(1169,935,o),
(1060,827,cs),
(1000,768,l),
(939,827,ls),
(829,933,o),
(655,937,o),
(544,827,cs),
(436,721,o),
(435,541,o),
(544,432,cs),
(1000,-24,l)
);
},
{
closed = 1;
nodes = (
(657,545,ls),
(610,592,o),
(609,666,o),
(656,713,cs),
(703,759,o),
(779,759,o),
(828,712,cs),
(1001,545,l),
(1172,713,ls),
(1219,760,o),
(1293,761,o),
(1342,715,cs),
(1389,668,o),
(1388,593,o),
(1341,545,cs),
(1000,203,l)
);
},
{
closed = 1;
nodes = (
(1454,1002,ls),
(1562,1110,o),
(1565,1290,o),
(1453,1398,cs),
(1342,1506,o),
(1170,1504,o),
(1061,1396,cs),
(1001,1337,l),
(940,1396,ls),
(830,1502,o),
(656,1506,o),
(545,1396,cs),
(437,1290,o),
(436,1110,o),
(545,1001,cs),
(1001,545,l)
);
},
{
closed = 1;
nodes = (
(658,1114,ls),
(611,1161,o),
(610,1235,o),
(657,1282,cs),
(704,1328,o),
(780,1328,o),
(829,1281,cs),
(1002,1114,l),
(1173,1282,ls),
(1220,1328,o),
(1295,1329,o),
(1342,1283,cs),
(1390,1237,o),
(1389,1163,o),
(1341,1115,cs),
(1001,772,l)
);
}
);
};
layerId = m01;
shapes = (
{
attr = {
strokeHeight = 176;
strokeWidth = 186;
};
closed = 1;
nodes = (
(867,1389,o),
(687,1432,o),
(591,1344,cs),
(507,1268,o),
(518,1131,o),
(616,1033,cs),
(999,653,l),
(1382,1033,ls),
(1480,1131,o),
(1491,1268,o),
(1407,1344,cs),
(1311,1432,o),
(1131,1389,o),
(999,1247,c)
);
},
{
attr = {
strokeHeight = 176;
strokeWidth = 186;
};
closed = 1;
nodes = (
(867,795,o),
(687,838,o),
(591,750,cs),
(507,674,o),
(518,537,o),
(616,439,cs),
(999,59,l),
(1382,439,ls),
(1480,537,o),
(1491,674,o),
(1407,750,cs),
(1311,838,o),
(1131,795,o),
(999,653,c)
);
}
);
width = 2000;
},
{
layerId = "6D287F59-47E8-4638-B138-818E25D25DE1";
shapes = (
{
attr = {
strokeHeight = 46;
strokeWidth = 46;
};
closed = 1;
nodes = (
(867,1389,o),
(687,1432,o),
(591,1344,cs),
(507,1268,o),
(518,1131,o),
(616,1033,cs),
(999,653,l),
(1382,1033,ls),
(1480,1131,o),
(1491,1268,o),
(1407,1344,cs),
(1311,1432,o),
(1131,1389,o),
(999,1247,c)
);
},
{
attr = {
strokeHeight = 46;
strokeWidth = 46;
};
closed = 1;
nodes = (
(867,795,o),
(687,838,o),
(591,750,cs),
(507,674,o),
(518,537,o),
(616,439,cs),
(999,59,l),
(1382,439,ls),
(1480,537,o),
(1491,674,o),
(1407,750,cs),
(1311,838,o),
(1131,795,o),
(999,653,c)
);
}
);
width = 2000;
},
{
layerId = "6553A8EE-D982-49E3-AD79-1FB562774AD6";
shapes = (
{
attr = {
strokeHeight = 300;
strokeWidth = 400;
};
closed = 1;
nodes = (
(843,1507,o),
(630,1558,o),
(516,1454,cs),
(417,1364,o),
(427,1174,o),
(546,1062,cs),
(999,636,l),
(1452,1062,ls),
(1571,1174,o),
(1581,1364,o),
(1482,1454,cs),
(1368,1558,o),
(1155,1507,o),
(999,1339,c)
);
},
{
attr = {
strokeHeight = 300;
strokeWidth = 400;
};
closed = 1;
nodes = (
(843,804,o),
(630,855,o),
(516,751,cs),
(417,661,o),
(430,475,o),
(546,359,cs),
(999,-91,l),
(1452,359,ls),
(1568,475,o),
(1581,661,o),
(1482,751,cs),
(1368,855,o),
(1155,804,o),
(999,636,c)
);
}
);
width = 2000;
}
);
metricLeft = "|=";
tags = (
"can cartouche"
);
unicode = 989509;
}
{
glyphname = "pakala-sp";
layers = (
{
layerId = m01;
shapes = (
{
ref = "lipu-sp";
},
{
closed = 1;
nodes = (
(1025,825,l),
(636,825,l),
(938,1384,l),
(794,1454,l),
(382,665,l),
(771,665,l),
(469,106,l),
(613,36,l)
);
}
);
width = 1407;
}
);
unicode = 989512;
}
{
glyphname = "pali-sp";
layers = (
{
layerId = m01;
shapes = (
{
closed = 1;
nodes = (
(242,771,l),
(112,641,l),
(481,0,l),
(756,0,l),
(756,333,o),
(859,507,o),
(1065,507,cs),
(1271,507,o),
(1374,337,o),
(1374,11,cs),
(1374,0,l),
(1560,0,l),
(1560,11,ls),
(1560,438,o),
(1395,658,o),
(1065,658,cs),
(785,658,o),
(624,498,o),
(581,187,c),
(570,187,l)
);
},
{
closed = 1;
nodes = (
(1338,507,o),
(1529,714,o),
(1529,1008,cs),
(1529,1304,o),
(1338,1514,o),
(1065,1514,cs),
(792,1514,o),
(601,1304,o),
(601,1008,cs),
(601,714,o),
(792,507,o),
(1065,507,cs)
);
},
{
closed = 1;
nodes = (
(895,667,o),
(761,817,o),
(761,1008,cs),
(761,1202,o),
(895,1354,o),
(1065,1354,cs),
(1235,1354,o),
(1369,1202,o),
(1369,1008,cs),
(1369,817,o),
(1235,667,o),
(1065,667,cs)
);
}
);
width = 1672;
}
);
unicode = 989513;
}
{
glyphname = "palisa-sp";
layers = (
{
layerId = m01;
shapes = (
{
attr = {
strokeHeight = 176;
strokePos = 0;
strokeWidth = 186;
};
closed = 1;
nodes = (
(1089,158,o),
(1136,333,o),
(1136,658,cs),
(1136,831,ls),
(1136,1156,o),
(1088,1331,o),
(1001,1331,cs),
(913,1331,o),
(865,1156,o),
(865,831,cs),
(865,658,ls),
(865,333,o),
(913,158,o),
(1001,158,cs)
);
}
);
width = 2001;
}
);
metricLeft = "=|";
tags = (
"can cartouche"
);
unicode = 989514;
}
{
glyphname = "pan-sp";
layers = (
{
layerId = m01;
shapes = (
{
closed = 1;
nodes = (
(1652,645,l),
(1536,761,l),
(1326,550,ls),
(1224,447,o),
(1094,286,o),
(1000,167,c),
(906,286,o),
(776,447,o),
(674,550,cs),
(464,761,l),
(348,645,l),
(1000,-7,l)
);
},
{
closed = 1;
nodes = (
(1652,1029,l),
(1536,1145,l),
(1326,934,ls),
(1224,831,o),
(1094,670,o),
(1000,551,c),
(906,670,o),
(776,831,o),
(674,934,cs),
(464,1145,l),
(348,1029,l),
(1000,377,l)
);
},
{
closed = 1;
nodes = (
(1652,1413,l),
(1536,1529,l),
(1326,1318,ls),
(1224,1215,o),
(1094,1054,o),
(1000,935,c),
(906,1054,o),
(776,1215,o),
(674,1318,cs),
(464,1529,l),
(348,1413,l),
(1000,761,l)
);
}
);
width = 2000;
}
);
metricLeft = "|=";
unicode = 989515;
}
{
glyphname = "pana-sp";
layers = (
{
layerId = m01;
shapes = (
{
closed = 1;
nodes = (
(242,771,l),
(112,641,l),
(481,0,l),
(756,0,l),
(756,333,o),
(859,507,o),
(1065,507,cs),
(1271,507,o),
(1374,337,o),
(1374,11,cs),
(1374,0,l),
(1560,0,l),
(1560,11,ls),
(1560,438,o),
(1395,658,o),
(1065,658,cs),
(785,658,o),
(624,498,o),
(581,187,c),
(570,187,l)
);
},
{
closed = 1;
nodes = (
(973,946,l),
(1158,946,l),
(1158,1490,l),
(973,1490,l)
);
},
{
closed = 1;
nodes = (
(1312,946,l),
(1443,815,l),
(1828,1200,l),
(1697,1330,l)
);
},
{
closed = 1;
nodes = (
(303,1200,l),
(688,815,l),
(819,946,l),
(434,1330,l)
);
}
);
width = 1940;
}
);
unicode = 989516;
}
{
glyphname = "pi-sp";
layers = (
{
layerId = m01;
shapes = (
{
closed = 1;
nodes = (
(298,175,l),
(298,1490,l),
(112,1490,l),
(112,0,l),
(911,0,l),
(911,175,l)
);
}
);
width = 1023;
}
);
unicode = 989517;
}
{
glyphname = "pilin-sp";
layers = (
{
layerId = m01;
shapes = (
{
closed = 1;
nodes = (
(1794,724,ls),
(1971,902,o),
(1975,1199,o),
(1791,1377,cs),
(1608,1554,o),
(1326,1550,o),
(1146,1374,cs),
(1048,1278,l),
(948,1374,ls),
(768,1547,o),
(482,1554,o),
(299,1373,cs),
(123,1199,o),
(120,904,o),
(300,724,cs),
(1048,-24,l)
);
},
{
closed = 1;
nodes = (
(418,842,ls),
(306,954,o),
(302,1146,o),
(420,1258,cs),
(541,1373,o),
(720,1365,o),
(834,1254,cs),
(1048,1046,l),
(1262,1254,ls),
(1382,1371,o),
(1556,1364,o),
(1668,1264,cs),
(1792,1153,o),
(1793,957,o),
(1678,842,cs),
(1048,210,l)
);
}
);
width = 2044;
}
);
unicode = 989518;
}
{
glyphname = "pimeja-sp";
layers = (
{
layerId = m01;
shapes = (
{
closed = 1;
nodes = (
(1786,0,l),
(1110,1490,l),
(890,1490,l),
(221,0,l)
);
},
{
closed = 1;
nodes = (
(1025,1427,l),
(972,1427,l),
(1529,166,l),
(478,166,l)
);
},
{
attr = {
strokeHeight = 76;
strokeWidth = 186;
};
closed = 0;
nodes = (
(1311,83,l),
(689,888,l)
);
},
{
attr = {
strokeHeight = 76;
strokeWidth = 186;
};
closed = 0;
nodes = (
(689,83,l),
(1311,888,l)
);
}
);
width = 2000;
},
{
layerId = "6D287F59-47E8-4638-B138-818E25D25DE1";
shapes = (
{
closed = 1;
nodes = (
(1741,61,l),
(1030,1513,l),
(971,1513,l),
(259,61,l)
);
},
{
closed = 1;
nodes = (
(995,1459,l),
(1003,1459,l),
(1673,107,l),
(327,107,l)
);
},
{
attr = {
strokeHeight = 46;
strokeWidth = 46;
};
closed = 0;
nodes = (
(1311,83,l),
(689,888,l)
);
},
{
attr = {
strokeHeight = 46;
strokeWidth = 46;
};
closed = 0;
nodes = (
(689,83,l),
(1311,888,l)
);
}
);
width = 2000;
},
{
layerId = "6553A8EE-D982-49E3-AD79-1FB562774AD6";
shapes = (
{
closed = 1;
nodes = (
(1984,-66,l),
(1163,1527,l),
(837,1527,l),
(16,-66,l)
);
},
{
closed = 1;
nodes = (
(1027,1227,l),
(973,1227,l),
(1510,234,l),
(493,234,l)
);
},
{
attr = {
strokeHeight = 325;
strokeWidth = 325;
};
closed = 0;
nodes = (
(1311,83,l),
(689,888,l)
);
},
{
attr = {
strokeHeight = 325;
strokeWidth = 325;
};
closed = 0;
nodes = (
(689,83,l),
(1311,888,l)
);
}
);
width = 2000;
}
);
tags = (
"can cartouche"
);
unicode = 989519;
}
{
glyphname = "pini-sp";
layers = (
{
layerId = m01;
shapes = (
{
closed = 1;
nodes = (
(370,1315,l),
(370,175,l),
(112,175,l),
(112,0,l),
(814,0,l),
(814,175,l),
(556,175,l),
(556,1315,l),
(814,1315,l),
(814,1490,l),
(112,1490,l),
(112,1315,l)
);
}
);
width = 926;
}
);
unicode = 989520;
}
{
glyphname = "pipi-sp";
layers = (
{
layerId = m01;
shapes = (
{
closed = 1;
nodes = (
(112,1177,l),
(112,1001,l),
(1212,1001,l),
(1212,1177,l)
);
},
{
closed = 1;
nodes = (
(112,489,l),
(112,313,l),
(1212,313,l),
(1212,489,l)
);
},
{
pos = (55,747);
ref = _part.dot;
},
{
pos = (818,747);
ref = _part.dot;
},
{
closed = 1;
nodes = (
(750,1490,l),
(574,1490,l),
(574,0,l),
(750,0,l)
);
},
{
closed = 1;
nodes = (
(112,833,l),
(112,657,l),
(1212,657,l),
(1212,833,l)
);
}
);
width = 1324;
}
);
unicode = 989521;
}
{
glyphname = "poki-sp";
layers = (
{
layerId = m01;
shapes = (
{
closed = 1;
nodes = (
(1591,0,l),
(1591,1490,l),
(1405,1490,l),
(1405,175,l),
(594,175,l),
(594,1490,l),
(408,1490,l),
(408,0,l)
);
}
);
width = 2000;
},
{
layerId = "6D287F59-47E8-4638-B138-818E25D25DE1";
shapes = (
{
closed = 1;
nodes = (
(1521,65,l),
(1521,1490,l),
(1475,1490,l),
(1475,111,l),
(524,111,l),
(524,1490,l),
(478,1490,l),
(478,65,l)
);
}
);
width = 2000;
},
{
layerId = "6553A8EE-D982-49E3-AD79-1FB562774AD6";
shapes = (
{
closed = 1;
nodes = (
(1859,-42,l),
(1859,1490,l),
(1459,1490,l),
(1459,218,l),
(541,218,l),
(541,1490,l),
(141,1490,l),
(141,-42,l)
);
}
);
width = 2000;
}
);
metricLeft = "|=";
tags = (
"can cartouche"
);
unicode = 989523;
}
{
glyphname = "pona-sp";
layers = (
{
layerId = m01;
shapes = (
{
closed = 1;
nodes = (
(1413,373,o),
(1745,706,o),
(1745,1117,c),
(1560,1117,l),
(1560,797,o),
(1321,548,o),
(1001,548,cs),
(680,548,o),
(440,799,o),
(440,1117,c),
(255,1117,l),
(255,706,o),
(590,373,o),
(1001,373,cs)
);
}
);
width = 2000;
},
{
layerId = "6D287F59-47E8-4638-B138-818E25D25DE1";
shapes = (
{
closed = 1;
nodes = (
(1379,438,o),
(1676,737,o),
(1676,1117,c),
(1630,1117,l),
(1630,763,o),
(1353,484,o),
(1001,484,cs),
(648,484,o),
(371,763,o),
(371,1117,c),
(325,1117,l),
(325,737,o),
(622,438,o),
(1001,438,cs)
);
}
);
width = 2000;
},
{
layerId = "6553A8EE-D982-49E3-AD79-1FB562774AD6";
shapes = (
{
closed = 1;
nodes = (
(1478,320,o),
(1853,675,o),
(1853,1126,c),
(1453,1126,l),
(1453,852,o),
(1254,636,o),
(1001,636,cs),
(747,636,o),
(548,852,o),
(548,1126,c),
(148,1126,l),
(148,675,o),
(523,320,o),
(1001,320,cs)
);
}
);
width = 2000;
}
);
tags = (
"can cartouche"
);
unicode = 989524;
}
{
glyphname = "pu-sp";
layers = (
{
layerId = m01;
shapes = (
{
closed = 1;
nodes = (
(1591,0,l),
(1591,1490,l),
(408,1490,l),
(408,0,l)
);
},
{
closed = 1;
nodes = (
(1105,396,o),
(1191,481,o),
(1191,586,c),
(1108,586,l),
(1108,521,o),
(1064,476,o),
(1000,476,cs),
(936,476,o),
(891,521,o),
(891,586,c),
(808,586,l),
(808,481,o),
(895,396,o),
(1000,396,cs)
);
},
{
closed = 1;
nodes = (
(1185,217,o),
(1357,359,o),
(1357,590,cs),
(1357,821,o),
(1185,964,o),
(998,964,cs),
(812,964,o),
(639,821,o),
(639,590,cs),
(639,359,o),
(812,217,o),
(998,217,cs)
);
},
{
closed = 1;
nodes = (
(867,331,o),
(758,406,o),
(758,590,cs),
(758,777,o),
(867,852,o),
(998,852,cs),
(1129,852,o),
(1238,777,o),
(1238,590,cs),
(1238,406,o),
(1129,331,o),
(998,331,cs)
);
},
{
closed = 1;
nodes = (
(558,1350,l),
(1441,1350,l),
(1441,140,l),
(558,140,l)
);
},
{
closed = 1;
nodes = (
(866,1015,l),
(729,1250,l),
(626,1190,l),
(763,957,l)
);
},
{
closed = 1;
nodes = (
(1060,1015,l),
(1060,1273,l),
(940,1273,l),
(940,1015,l)
);
},
{
closed = 1;
nodes = (
(1374,1190,l),
(1271,1250,l),
(1134,1015,l),
(1237,957,l)
);
}
);
width = 2000;
},
{
layerId = "6D287F59-47E8-4638-B138-818E25D25DE1";
shapes = (
{
closed = 1;
nodes = (
(1539,47,l),
(1539,1443,l),
(460,1443,l),
(460,47,l)
);
},
{
closed = 1;
nodes = (
(1097,413,o),
(1173,489,o),
(1173,586,c),
(1127,586,l),
(1127,515,o),
(1071,459,o),
(1000,459,cs),
(929,459,o),
(873,515,o),
(873,586,c),
(827,586,l),
(827,489,o),
(903,413,o),
(1000,413,cs)
);
},
{
closed = 1;
nodes = (
(1179,251,o),
(1321,400,o),
(1321,590,cs),
(1321,781,o),
(1179,931,o),
(998,931,cs),
(818,931,o),
(676,781,o),
(676,590,cs),
(676,400,o),
(818,251,o),
(998,251,cs)
);
},
{
closed = 1;
nodes = (
(843,297,o),
(722,426,o),
(722,590,cs),
(722,755,o),
(843,885,o),
(998,885,cs),
(1153,885,o),
(1275,755,o),
(1275,590,cs),
(1275,426,o),
(1153,297,o),
(998,297,cs)
);
},
{
closed = 1;
nodes = (
(506,1397,l),
(1493,1397,l),
(1493,93,l),
(506,93,l)
);
},
{
closed = 1;
nodes = (
(843,1004,l),
(686,1227,l),
(649,1201,l),
(805,980,l)
);
},
{
closed = 1;
nodes = (
(1023,1015,l),
(1023,1273,l),
(977,1273,l),
(977,1015,l)
);
},
{
closed = 1;
nodes = (
(1350,1201,l),
(1314,1227,l),
(1158,1004,l),
(1195,980,l)
);
}
);
width = 2000;
},
{
layerId = "6553A8EE-D982-49E3-AD79-1FB562774AD6";
width = 2000;
}
);
tags = (
"can cartouche"
);
unicode = 989525;
}
{
glyphname = "sama-sp";
layers = (
{
hints = (
{
origin = (1,3);
type = TTSnap;
},
{
horizontal = 1;
origin = (1,3);
type = TTSnap;
},
{
horizontal = 1;
origin = (0,3);
type = TTSnap;
},
{
origin = (0,3);
type = TTSnap;
},
{
options = 4;
origin = (1,0);
target = (1,1);
type = TTStem;
},
{
options = 4;
origin = (0,0);
target = (0,1);
type = TTStem;
},
{
horizontal = 1;
options = 4;
origin = (1,3);
target = (1,0);
type = TTStem;
},
{
horizontal = 1;
options = 4;
origin = (0,3);
target = (0,0);
type = TTStem;
}
);
layerId = m01;
shapes = (
{
closed = 1;
nodes = (
(1016,879,l),
(1016,1045,l),
(112,1045,l),
(112,879,l)
);
},
{
closed = 1;
nodes = (
(1016,445,l),
(1016,611,l),
(112,611,l),
(112,445,l)
);
}
);
width = 1128;
}
);
unicode = 989526;
}
{
glyphname = "seli-sp";
layers = (
{
layerId = m01;
shapes = (
{
closed = 1;
nodes = (
(1824,1355,l),
(1640,1441,l),
(1223,520,l),
(1386,444,l)
);
},
{
alignment = -1;
pos = (762,-506);
ref = _part.dot;
},
{
closed = 1;
nodes = (
(776,518,l),
(359,1439,l),
(175,1353,l),
(613,442,l)
);
},
{
closed = 1;
nodes = (
(1089,549,l),
(1101,1560,l),
(898,1560,l),
(910,549,l)
);
}
);
width = 2000;
},
{
layerId = "6D287F59-47E8-4638-B138-818E25D25DE1";
shapes = (
{
closed = 1;
nodes = (
(1765,1382,l),
(1723,1402,l),
(1285,491,l),
(1327,471,l)
);
},
{
alignment = -1;
pos = (700,-506);
ref = _part.dot;
},
{
closed = 1;
nodes = (
(717,491,l),
(279,1402,l),
(237,1382,l),
(675,471,l)
);
},
{
closed = 1;
nodes = (
(1022,549,l),
(1023,1560,l),
(977,1560,l),
(977,549,l)
);
}
);
width = 2000;
},
{
layerId = "6553A8EE-D982-49E3-AD79-1FB562774AD6";
shapes = (
{
closed = 1;
nodes = (
(1869,1333,l),
(1598,1459,l),
(1186,536,l),
(1426,424,l)
);
},
{
alignment = -1;
pos = (574,-873);
ref = _part.dot;
scale = (1.4192,1.4192);
},
{
closed = 1;
nodes = (
(813,534,l),
(401,1457,l),
(130,1331,l),
(573,422,l)
);
},
{
closed = 1;
nodes = (
(1132,549,l),
(1150,1560,l),
(850,1560,l),
(867,549,l)
);
}
);
width = 2000;
}
);
unicode = 989527;
}
{
glyphname = "selo-sp";
layers = (
{
hints = (
{
options = 4;
origin = (0,15);
target = (0,14);
type = TTStem;
},
{
options = 4;
origin = (0,3);
target = (0,2);
type = TTStem;
},
{
options = 4;
origin = (0,7);
target = (0,6);
type = TTStem;
},
{
options = 4;
origin = (0,11);
target = (0,10);
type = TTStem;
},
{
options = 4;
origin = (0,15);
target = (0,0);
type = TTStem;
},
{
options = 4;
origin = (0,3);
target = (0,4);
type = TTStem;
},
{
options = 4;
origin = (0,7);
target = (0,8);
type = TTStem;
},
{
options = 4;
origin = (0,11);
target = (0,12);
type = TTStem;
},
{
horizontal = 1;
origin = (0,15);
type = TTSnap;
},
{
origin = (0,15);
type = TTSnap;
}
);
layerId = m01;
shapes = (
{
closed = 1;
nodes = (
(352,306,l),
(352,1025,l),
(538,1025,l),
(538,609,l),
(724,609,l),
(724,1025,l),
(1275,1025,l),
(1275,609,l),
(1461,609,l),
(1461,1025,l),
(1647,1025,l),
(1647,306,l),
(1833,306,l),
(1833,1200,l),
(166,1200,l),
(166,306,l)
);
}
);
width = 2000;
},
{
layerId = "6D287F59-47E8-4638-B138-818E25D25DE1";
shapes = (
{
closed = 1;
nodes = (
(282,394,l),
(282,1050,l),
(608,1050,l),
(608,697,l),
(654,697,l),
(654,1050,l),
(1345,1050,l),
(1345,697,l),
(1391,697,l),
(1391,1050,l),
(1717,1050,l),
(1717,394,l),
(1763,394,l),
(1763,1096,l),
(236,1096,l),
(236,394,l)
);
}
);
width = 2000;
},
{
layerId = "6553A8EE-D982-49E3-AD79-1FB562774AD6";
shapes = (
{
closed = 1;
nodes = (
(459,267,l),
(459,924,l),
(527,924,l),
(527,570,l),
(927,570,l),
(927,924,l),
(1072,924,l),
(1072,570,l),
(1472,570,l),
(1472,924,l),
(1540,924,l),
(1540,267,l),
(1940,267,l),
(1940,1224,l),
(59,1224,l),
(59,267,l)
);
}
);
width = 2000;
}
);
metricLeft = "|=";
tags = (
"can cartouche"
);
unicode = 989528;
}
{
glyphname = "seme-sp";
layers = (
{
layerId = m01;
shapes = (
{
closed = 1;
nodes = (
(564,449,l),
(564,460,ls),
(564,637,o),
(613,686,o),
(742,765,cs),
(871,844,o),
(945,956,o),
(945,1117,cs),
(945,1345,o),
(777,1510,o),
(518,1510,cs),
(282,1510,o),
(92,1366,o),
(82,1115,c),
(272,1115,l),
(283,1281,o),
(400,1351,o),
(518,1351,cs),
(653,1351,o),
(761,1263,o),
(761,1124,cs),
(761,1008,o),
(693,927,o),
(605,874,cs),
(467,791,o),
(383,733,o),
(383,460,cs),
(383,449,l)
);
},
{
closed = 1;
nodes = (
(550,-13,o),
(610,47,o),
(610,121,cs),
(610,196,o),
(550,256,o),
(476,256,cs),
(401,256,o),
(341,196,o),
(341,121,cs),
(341,47,o),
(401,-13,o),
(476,-13,cs)
);
}
);
width = 1027;
}
);
unicode = 989529;
}
{
glyphname = "sewi-sp";
layers = (
{
layerId = m01;
shapes = (
{
closed = 1;
nodes = (
(1442,-24,o),
(1542,117,o),
(1542,350,cs),
(1542,1358,l),
(1356,1358,l),
(1356,350,ls),
(1356,252,o),
(1306,175,o),
(1242,175,cs),
(1178,175,o),
(1128,252,o),
(1128,350,c),
(942,350,l),
(942,117,o),
(1042,-24,o),
(1242,-24,cs)
);
},
{
closed = 1;
nodes = (
(614,-24,o),
(714,117,o),
(714,350,cs),
(714,798,l),
(528,798,l),
(528,350,ls),
(528,252,o),
(478,175,o),
(414,175,cs),
(350,175,o),
(300,252,o),
(300,350,c),
(114,350,l),
(114,117,o),
(214,-24,o),
(414,-24,cs)
);
},
{
closed = 1;
nodes = (
(1028,-24,o),
(1128,117,o),
(1128,350,cs),
(1128,1091,l),
(942,1091,l),
(942,350,ls),
(942,252,o),
(892,175,o),
(828,175,cs),
(764,175,o),
(714,252,o),
(714,350,c),
(528,350,l),
(528,117,o),
(628,-24,o),
(828,-24,cs)
);
},
{
closed = 1;
nodes = (
(1886,0,l),
(1886,1490,l),
(1700,1490,l),
(1700,0,l)
);
}
);
width = 2000;
},
{
layerId = "6D287F59-47E8-4638-B138-818E25D25DE1";
shapes = (
{
closed = 1;
nodes = (
(1371,53,o),
(1472,184,o),
(1472,350,cs),
(1472,1358,l),
(1426,1358,l),
(1426,350,ls),
(1426,209,o),
(1345,99,o),
(1242,99,cs),
(1139,99,o),
(1058,209,o),
(1058,350,c),
(1012,350,l),
(1012,184,o),
(1113,53,o),
(1242,53,cs)
);
},
{
closed = 1;
nodes = (
(543,53,o),
(644,184,o),
(644,350,cs),
(644,798,l),
(598,798,l),
(598,350,ls),
(598,209,o),
(517,99,o),
(414,99,cs),
(311,99,o),
(230,209,o),
(230,350,c),
(184,350,l),
(184,184,o),
(285,53,o),
(414,53,cs)
);
},
{
closed = 1;
nodes = (
(957,53,o),
(1058,184,o),
(1058,350,cs),
(1058,1091,l),
(1012,1091,l),
(1012,350,ls),
(1012,209,o),
(931,99,o),
(828,99,cs),
(725,99,o),
(644,209,o),
(644,350,c),
(598,350,l),
(598,184,o),
(699,53,o),
(828,53,cs)
);
},
{
closed = 1;
nodes = (
(1816,63,l),
(1816,1490,l),
(1770,1490,l),
(1770,63,l)
);
}
);
width = 2000;
},
{
layerId = "6553A8EE-D982-49E3-AD79-1FB562774AD6";
width = 2000;
}
);
metricLeft = "=|";
tags = (
"can cartouche"
);
unicode = 989530;
}
{
glyphname = "sijelo-sp";
layers = (
{
layerId = m01;
shapes = (
{
closed = 1;
nodes = (
(295,1320,l),
(295,298,l),
(481,298,l),
(481,1145,l),
(907,1145,l),
(907,-39,l),
(1093,-39,l),
(1093,1145,l),
(1520,1145,l),
(1520,298,l),
(1706,298,l),
(1706,1320,l)
);
}
);
width = 2001;
}
);
metricLeft = "=|";
tags = (
"can cartouche"
);
unicode = 989531;
}
{
glyphname = "sike-sp";
layers = (
{
layerId = m01;
shapes = (
{
closed = 1;
nodes = (
(1229,-20,o),
(1582,272,o),
(1582,744,cs),
(1582,1217,o),
(1229,1510,o),
(847,1510,cs),
(465,1510,o),
(112,1217,o),
(112,744,cs),
(112,272,o),
(465,-20,o),
(847,-20,cs)
);
},
{
closed = 1;
nodes = (
(579,156,o),
(297,364,o),
(297,744,cs),
(297,1126,o),
(579,1334,o),
(847,1334,cs),
(1113,1334,o),
(1397,1126,o),
(1397,744,cs),
(1397,364,o),
(1113,156,o),
(847,156,cs)
);
},
{
closed = 1;
nodes = (
(736,520,o),
(648,585,o),
(648,745,cs),
(648,905,o),
(736,970,o),
(847,970,cs),
(957,970,o),
(1047,905,o),
(1047,745,cs),
(1047,585,o),
(957,520,o),
(847,520,cs)
);
},
{
closed = 1;
nodes = (
(1036,344,o),
(1232,491,o),
(1232,745,cs),
(1232,999,o),
(1036,1146,o),
(847,1146,cs),
(657,1146,o),
(463,999,o),
(463,745,cs),
(463,491,o),
(657,344,o),
(847,344,cs)
);
}
);
width = 1694;
}
);
unicode = 989532;
}
{
glyphname = "sin-sp";
layers = (
{
layerId = m01;
shapes = (
{
closed = 1;
nodes = (
(1083,582,l),
(1083,1142,l),
(917,1141,l),
(917,582,l)
);
},
{
closed = 1;
nodes = (
(849,348,l),
(849,514,l),
(289,514,l),
(289,348,l)
);
},
{
closed = 1;
nodes = (
(1710,348,l),
(1711,514,l),
(1151,514,l),
(1151,348,l)
);
}
);
width = 2000;
},
{
layerId = "6D287F59-47E8-4638-B138-818E25D25DE1";
shapes = (
{
closed = 1;
nodes = (
(1023,582,l),
(1023,1142,l),
(977,1141,l),
(977,582,l)
);
},
{
closed = 1;
nodes = (
(849,408,l),
(849,454,l),
(289,454,l),
(289,408,l)
);
},
{
closed = 1;
nodes = (
(1710,408,l),
(1711,454,l),
(1151,454,l),
(1151,408,l)
);
}
);
width = 2000;
},
{
layerId = "6553A8EE-D982-49E3-AD79-1FB562774AD6";
shapes = (
{
closed = 1;
nodes = (
(1200,710,l),
(1200,1270,l),
(800,1269,l),
(800,710,l)
);
},
{
closed = 1;
nodes = (
(721,281,l),
(721,581,l),
(161,581,l),
(161,281,l)
);
},
{
closed = 1;
nodes = (
(1838,281,l),
(1839,581,l),
(1279,581,l),
(1279,281,l)
);
}
);
width = 2000;
}
);
metricLeft = "=|";
tags = (
"can cartouche"
);
unicode = 989533;
}
{
glyphname = "sona-sp";
layers = (
{
layerId = m01;
shapes = (
{
closed = 1;
nodes = (
(1463,0,l),
(1463,1054,l),
(536,1054,l),
(536,0,l)
);
},
{
closed = 1;
nodes = (
(722,879,l),
(1277,879,l),
(1277,175,l),
(722,175,l)
);
},
{
closed = 1;
nodes = (
(794,1220,l),
(582,1584,l),
(422,1491,l),
(634,1128,l)
);
},
{
closed = 1;
nodes = (
(1095,1220,l),
(1095,1620,l),
(910,1620,l),
(910,1220,l)
);
},
{
closed = 1;
nodes = (
(1583,1491,l),
(1423,1584,l),
(1211,1220,l),
(1371,1128,l)
);
}
);
width = 2000;
},
{
layerId = "6D287F59-47E8-4638-B138-818E25D25DE1";
shapes = (
{
closed = 1;
nodes = (
(1393,65,l),
(1393,990,l),
(606,990,l),
(606,65,l)
);
},
{
closed = 1;
nodes = (
(652,944,l),
(1347,944,l),
(1347,111,l),
(652,111,l)
);
},
{
closed = 1;
nodes = (
(733,1185,l),
(522,1549,l),
(483,1526,l),
(693,1162,l)
);
},
{
closed = 1;
nodes = (
(1026,1220,l),
(1026,1620,l),
(980,1620,l),
(980,1220,l)
);
},
{
closed = 1;
nodes = (
(1522,1526,l),
(1483,1549,l),
(1272,1185,l),
(1312,1162,l)
);
}
);
width = 2000;
},
{
layerId = "6553A8EE-D982-49E3-AD79-1FB562774AD6";
width = 2000;
}
);
unicode = 989537;
}
{
color = 0;
glyphname = "soweli-sp";
layers = (
{
background = {
shapes = (
{
pos = (249,220);
ref = _part.dot;
},
{
pos = (633,220);
ref = _part.dot;
}
);
};
layerId = m01;
shapes = (
{
closed = 1;
nodes = (
(503,0,l),
(688,0,l),
(688,494,l),
(503,494,l)
);
},
{
closed = 1;
nodes = (
(347,0,l),
(162,0,l),
(162,494,l),
(347,494,l)
);
},
{
pos = (249,220);
ref = _part.dot;
},
{
pos = (633,220);
ref = _part.dot;
},
{
closed = 1;
nodes = (
(844,0,l),
(1029,0,l),
(1029,494,l),
(844,494,l)
);
}
);
width = 1500;
}
);
script = "sitelen pona";
unicode = 989538;
}
{
glyphname = "suli-sp";
layers = (
{
layerId = m01;
shapes = (
{
closed = 1;
nodes = (
(829,0,l),
(1359,1490,l),
(1162,1490,l),
(736,236,l),
(309,1490,l),
(112,1490,l),
(643,0,l)
);
}
);
width = 1471;
}
);
unicode = 989539;
}
{
glyphname = "suno-sp";
layers = (
{
layerId = m01;
shapes = (
{
closed = 1;
nodes = (
(1011,313,o),
(1219,480,o),
(1219,744,cs),
(1219,1010,o),
(1011,1177,o),
(795,1177,cs),
(579,1177,o),
(371,1010,o),
(371,744,cs),
(371,480,o),
(579,313,o),
(795,313,cs)
);
},
{
closed = 1;
nodes = (
(679,489,o),
(556,580,o),
(556,744,cs),
(556,910,o),
(679,1001,o),
(795,1001,cs),
(911,1001,o),
(1034,910,o),
(1034,744,cs),
(1034,580,o),
(911,489,o),
(795,489,cs)
);
},
{
closed = 1;
nodes = (
(887,0,l),
(887,376,l),
(702,376,l),
(702,0,l)
);
},
{
closed = 1;
nodes = (
(452,656,l),
(452,832,l),
(112,832,l),
(112,656,l)
);
},
{
closed = 1;
nodes = (
(1478,656,l),
(1478,832,l),
(1170,832,l),
(1170,656,l)
);
},
{
closed = 1;
nodes = (
(887,1124,l),
(887,1490,l),
(702,1490,l),
(702,1124,l)
);
}
);
width = 1590;
}
);
unicode = 989540;
}
{
glyphname = "supa-sp";
layers = (
{
layerId = m01;
shapes = (
{
closed = 1;
nodes = (
(1623,886,l),
(1623,1061,l),
(376,1061,l),
(376,886,l)
);
},
{
closed = 1;
nodes = (
(724,430,l),
(724,940,l),
(538,940,l),
(538,430,l)
);
},
{
closed = 1;
nodes = (
(1461,430,l),
(1461,940,l),
(1275,940,l),
(1275,430,l)
);
}
);
width = 2000;
},
{
layerId = "6D287F59-47E8-4638-B138-818E25D25DE1";
width = 2000;
}
);
metricLeft = "|=";
tags = (
"can cartouche"
);
unicode = 989541;
}
{
glyphname = "suwi-sp";
layers = (
{
layerId = m01;
shapes = (
{
closed = 1;
nodes = (
(1546,1272,l),
(1366,1272,l),
(1637,687,l),
(1807,763,l),
(1546,1316,l),
(1366,1316,l),
(1105,763,l),
(1275,687,l)
);
},
{
pos = (762,-419);
ref = _part.dot;
},
{
closed = 1;
nodes = (
(634,1272,l),
(454,1272,l),
(725,687,l),
(895,763,l),
(634,1316,l),
(454,1316,l),
(193,763,l),
(363,687,l)
);
}
);
width = 2000;
},
{
layerId = "6D287F59-47E8-4638-B138-818E25D25DE1";
shapes = (
{
closed = 1;
nodes = (
(1452,1302,l),
(1444,1302,l),
(1736,701,l),
(1779,717,l),
(1474,1348,l),
(1422,1348,l),
(1117,717,l),
(1160,701,l)
);
},
{
pos = (700,-483);
ref = _part.dot;
},
{
closed = 1;
nodes = (
(556,1302,l),
(548,1302,l),
(840,701,l),
(883,717,l),
(578,1348,l),
(526,1348,l),
(221,717,l),
(264,701,l)
);
}
);
width = 2000;
},
{
layerId = "6553A8EE-D982-49E3-AD79-1FB562774AD6";
shapes = (
{
closed = 1;
nodes = (
(1662,1320,l),
(1362,1320,l),
(1688,652,l),
(1948,766,l),
(1662,1364,l),
(1362,1364,l),
(1076,766,l),
(1336,652,l)
);
},
{
pos = (700,-451);
ref = _part.dot;
},
{
closed = 1;
nodes = (
(638,1320,l),
(338,1320,l),
(664,652,l),
(924,766,l),
(638,1364,l),
(338,1364,l),
(52,766,l),
(312,652,l)
);
}
);
width = 2000;
}
);
metricLeft = "=|";
tags = (
"can cartouche"
);
unicode = 989542;
}
{
glyphname = "tan-sp";
layers = (
{
layerId = m01;
shapes = (
{
closed = 1;
nodes = (
(1787,347,l),
(1883,610,o),
(1824,915,o),
(1613,1126,cs),
(1321,1418,o),
(851,1417,o),
(561,1126,cs),
(380,945,o),
(357,913,o),
(239,706,c),
(369,597,l),
(457,772,o),
(529,860,o),
(678,1009,cs),
(904,1235,o),
(1269,1235,o),
(1495,1009,cs),
(1659,845,o),
(1704,608,o),
(1631,404,c)
);
},
{
closed = 1;
nodes = (
(315,664,l),
(276,1107,l),
(103,1091,l),
(156,475,l),
(772,529,l),
(756,704,l)
);
}
);
width = 2000;
}
);
metricLeft = "|=";
tags = (
"can cartouche"
);
unicode = 989543;
}
{
glyphname = "taso-sp";
layers = (
{
layerId = m01;
shapes = (
{
closed = 1;
nodes = (
(1399,0,l),
(1399,1490,l),
(1213,1490,l),
(1213,833,l),
(600,833,l),
(600,658,l),
(1213,658,l),
(1213,0,l)
);
}
);
width = 2000;
},
{
layerId = "6D287F59-47E8-4638-B138-818E25D25DE1";
width = 2000;
}
);
metricLeft = "|=";
tags = (
"can cartouche"
);
unicode = 989544;
}
{
glyphname = "tenpo-sp";
layers = (
{
layerId = m01;
shapes = (
{
closed = 1;
nodes = (
(1382,-20,o),
(1735,272,o),
(1735,744,cs),
(1735,1217,o),
(1382,1510,o),
(1000,1510,cs),
(618,1510,o),
(265,1217,o),
(265,744,cs),
(265,272,o),
(618,-20,o),
(1000,-20,cs)
);
},
{
closed = 1;
nodes = (
(732,156,o),
(450,364,o),
(450,744,cs),
(450,1126,o),
(732,1334,o),
(1000,1334,cs),
(1266,1334,o),
(1550,1126,o),
(1550,744,cs),
(1550,364,o),
(1266,156,o),
(1000,156,cs)
);
},
{
closed = 1;
nodes = (
(1320,658,l),
(1320,833,l),
(1091,833,l),
(1091,1252,l),
(905,1252,l),
(905,658,l)
);
}
);
width = 2000;
},
{
layerId = "6D287F59-47E8-4638-B138-818E25D25DE1";
shapes = (
{
closed = 1;
nodes = (
(1373,45,o),
(1666,353,o),
(1666,744,cs),
(1666,1137,o),
(1373,1445,o),
(1000,1445,cs),
(628,1445,o),
(335,1137,o),
(335,744,cs),
(335,353,o),
(628,45,o),
(1000,45,cs)
);
},
{
closed = 1;
nodes = (
(653,91,o),
(381,378,o),
(381,744,cs),
(381,1111,o),
(653,1399,o),
(1000,1399,cs),
(1347,1399,o),
(1620,1111,o),
(1620,744,cs),
(1620,378,o),
(1347,91,o),
(1000,91,cs)
);
},
{
closed = 1;
nodes = (
(1320,723,l),
(1320,769,l),
(1021,769,l),
(1021,1252,l),
(975,1252,l),
(975,723,l)
);
}
);
width = 2000;
},
{
layerId = "6553A8EE-D982-49E3-AD79-1FB562774AD6";
shapes = (
{
closed = 1;
nodes = (
(1490,-82,o),
(1875,281,o),
(1875,744,cs),
(1875,1208,o),
(1490,1572,o),
(1000,1572,cs),
(511,1572,o),
(126,1208,o),
(126,744,cs),
(126,281,o),
(511,-82,o),
(1000,-82,cs)
);
},
{
closed = 1;
nodes = (
(735,218,o),
(526,449,o),
(526,744,cs),
(526,1040,o),
(735,1272,o),
(1000,1272,cs),
(1266,1272,o),
(1475,1040,o),
(1475,744,cs),
(1475,449,o),
(1266,218,o),
(1000,218,cs)
);
},
{
closed = 1;
nodes = (
(1368,564,l),
(1368,864,l),
(1198,864,l),
(1198,1220,l),
(798,1220,l),
(798,564,l)
);
}
);
width = 2000;
}
);
tags = (
"can cartouche"
);
unicode = 989547;
}
{
glyphname = "toki-sp";
layers = (
{
layerId = m01;
shapes = (
{
closed = 1;
nodes = (
(1303,-20,o),
(1581,201,o),
(1581,559,cs),
(1581,919,o),
(1303,1141,o),
(1000,1141,cs),
(698,1141,o),
(420,919,o),
(420,559,cs),
(420,201,o),
(698,-20,o),
(1000,-20,cs)
);
},
{
closed = 1;
nodes = (
(788,156,o),
(606,272,o),
(606,559,cs),
(606,849,o),
(788,965,o),
(1000,965,cs),
(1210,965,o),
(1395,849,o),
(1395,559,cs),
(1395,272,o),
(1210,156,o),
(1000,156,cs)
);
},
{
closed = 1;
nodes = (
(794,1220,l),
(582,1584,l),
(422,1491,l),
(634,1128,l)
);
},
{
closed = 1;
nodes = (
(1095,1220,l),
(1095,1620,l),
(910,1620,l),
(910,1220,l)
);
},
{
closed = 1;
nodes = (
(1583,1491,l),
(1423,1584,l),
(1211,1220,l),
(1371,1128,l)
);
}
);
width = 2000;
},
{
layerId = "6D287F59-47E8-4638-B138-818E25D25DE1";
shapes = (
{
closed = 1;
nodes = (
(1286,45,o),
(1511,271,o),
(1511,559,cs),
(1511,849,o),
(1286,1076,o),
(1000,1076,cs),
(714,1076,o),
(490,849,o),
(490,559,cs),
(490,271,o),
(714,45,o),
(1000,45,cs)
);
},
{
closed = 1;
nodes = (
(740,91,o),
(536,297,o),
(536,559,cs),
(536,823,o),
(740,1030,o),
(1000,1030,cs),
(1260,1030,o),
(1465,823,o),
(1465,559,cs),
(1465,297,o),
(1260,91,o),
(1000,91,cs)
);
},
{
closed = 1;
nodes = (
(733,1185,l),
(522,1549,l),
(483,1526,l),
(693,1162,l)
);
},
{
closed = 1;
nodes = (
(1026,1220,l),
(1026,1620,l),
(980,1620,l),
(980,1220,l)
);
},
{
closed = 1;
nodes = (
(1522,1526,l),
(1483,1549,l),
(1272,1185,l),
(1312,1162,l)
);
}
);
width = 2000;
},
{
layerId = "6553A8EE-D982-49E3-AD79-1FB562774AD6";
shapes = (
{
closed = 1;
nodes = (
(1357,-62,o),
(1638,211,o),
(1638,559,cs),
(1638,908,o),
(1357,1183,o),
(1000,1183,cs),
(643,1183,o),
(363,908,o),
(363,559,cs),
(363,211,o),
(643,-62,o),
(1000,-62,cs)
);
},
{
closed = 1;
nodes = (
(811,198,o),
(663,357,o),
(663,559,cs),
(663,763,o),
(811,923,o),
(1000,923,cs),
(1189,923,o),
(1338,763,o),
(1338,559,cs),
(1338,357,o),
(1189,198,o),
(1000,198,cs)
);
},
{
closed = 1;
nodes = (
(762,1224,l),
(489,1693,l),
(230,1544,l),
(502,1073,l)
);
},
{
closed = 1;
nodes = (
(1150,1241,l),
(1150,1785,l),
(850,1785,l),
(850,1241,l)
);
},
{
closed = 1;
nodes = (
(1769,1544,l),
(1510,1693,l),
(1237,1224,l),
(1497,1073,l)
);
}
);
width = 2000;
}
);
metricLeft = "|=";
tags = (
"can cartouche"
);
unicode = 989548;
}
{
glyphname = "tomo-sp";
layers = (
{
layerId = m01;
shapes = (
{
closed = 1;
nodes = (
(1109,745,l),
(1109,175,l),
(298,175,l),
(298,745,l),
(703,1235,l)
);
},
{
closed = 1;
nodes = (
(1295,0,l),
(1295,792,l),
(703,1490,l),
(112,792,l),
(112,0,l)
);
}
);
width = 1407;
}
);
unicode = 989549;
}
{
glyphname = "tu-sp";
layers = (
{
layerId = m01;
shapes = (
{
closed = 1;
nodes = (
(1300,0,l),
(1300,1490,l),
(1110,1490,l),
(1110,0,l)
);
},
{
closed = 1;
nodes = (
(890,0,l),
(890,1490,l),
(700,1490,l),
(700,0,l)
);
}
);
width = 2000;
},
{
layerId = "6D287F59-47E8-4638-B138-818E25D25DE1";
shapes = (
{
closed = 1;
nodes = (
(1228,0,l),
(1228,1490,l),
(1182,1490,l),
(1182,0,l)
);
},
{
closed = 1;
nodes = (
(818,0,l),
(818,1490,l),
(772,1490,l),
(772,0,l)
);
}
);
width = 2000;
},
{
layerId = "6553A8EE-D982-49E3-AD79-1FB562774AD6";
shapes = (
{
closed = 1;
nodes = (
(1541,0,l),
(1541,1490,l),
(1141,1490,l),
(1141,0,l)
);
},
{
closed = 1;
nodes = (
(859,0,l),
(859,1490,l),
(459,1490,l),
(459,0,l)
);
}
);
width = 2000;
}
);
metricLeft = "=|";
tags = (
"can cartouche"
);
unicode = 989550;
}
{
glyphname = "unpa-sp";
layers = (
{
background = {
shapes = (
{
attr = {
strokeHeight = 176;
strokeWidth = 186;
};
closed = 1;
nodes = (
(1135,190,o),
(1245,404,o),
(1245,668,cs),
(1245,932,o),
(1135,1146,o),
(1000,1146,cs),
(865,1146,o),
(755,932,o),
(755,668,cs),
(755,404,o),
(865,190,o),
(1000,190,cs)
);
},
{
attr = {
strokeHeight = 176;
strokeWidth = 186;
};
closed = 1;
nodes = (
(560,749,o),
(254,1068,o),
(404,1261,c),
(496,1382,o),
(754,1384,o),
(1000,1147,c),
(1246,1384,o),
(1504,1382,o),
(1596,1261,c),
(1746,1068,o),
(1440,749,o),
(1000,749,c)
);
}
);
};
layerId = m01;
shapes = (
{
closed = 1;
nodes = (
(1510,661,o),
(1876,1050,o),
(1670,1315,cs),
(1552,1470,o),
(1264,1480,o),
(1000,1267,c),
(736,1480,o),
(448,1470,o),
(330,1315,cs),
(124,1050,o),
(490,661,o),
(1000,661,cs)
);
},
{
closed = 1;
nodes = (
(1193,102,o),
(1338,344,o),
(1338,668,cs),
(1338,992,o),
(1193,1234,o),
(1000,1234,cs),
(807,1234,o),
(662,992,o),
(662,668,cs),
(662,344,o),
(807,102,o),
(1000,102,cs)
);
},
{
closed = 1;
nodes = (
(923,278,o),
(848,424,o),
(848,668,cs),
(848,912,o),
(923,1058,o),
(1000,1058,cs),
(1077,1058,o),
(1152,912,o),
(1152,668,cs),
(1152,424,o),
(1077,278,o),
(1000,278,cs)
);
},
{
closed = 1;
nodes = (
(601,837,o),
(374,1074,o),
(478,1207,cs),
(544,1295,o),
(718,1296,o),
(940,1079,c),
(1060,1080,l),
(1283,1296,o),
(1456,1295,o),
(1522,1207,cs),
(1626,1074,o),
(1399,837,o),
(1000,837,cs)
);
}
);
width = 2000;
},
{
layerId = "6D287F59-47E8-4638-B138-818E25D25DE1";
shapes = (
{
closed = 1;
nodes = (
(1385,717,o),
(1760,1066,o),
(1615,1275,cs),
(1518,1415,o),
(1226,1367,o),
(1000,1166,c),
(774,1367,o),
(482,1415,o),
(385,1275,cs),
(240,1066,o),
(615,717,o),
(1000,726,c)
);
},
{
closed = 1;
nodes = (
(1150,167,o),
(1268,387,o),
(1268,668,cs),
(1268,949,o),
(1150,1169,o),
(1000,1169,cs),
(850,1169,o),
(732,949,o),
(732,668,cs),
(732,387,o),
(850,167,o),
(1000,167,cs)
);
},
{
closed = 1;
nodes = (
(876,213,o),
(778,413,o),
(778,668,cs),
(778,923,o),
(876,1123,o),
(1000,1123,cs),
(1124,1123,o),
(1222,923,o),
(1222,668,cs),
(1222,413,o),
(1124,213,o),
(1000,213,cs)
);
},
{
closed = 1;
nodes = (
(601,772,o),
(313,1104,o),
(423,1247,cs),
(502,1350,o),
(718,1340,o),
(988,1123,c),
(1012,1123,l),
(1282,1340,o),
(1498,1350,o),
(1577,1247,cs),
(1687,1104,o),
(1399,772,o),
(1000,772,cs)
);
}
);
width = 2000;
},
{
layerId = "6553A8EE-D982-49E3-AD79-1FB562774AD6";
width = 2000;
}
);
tags = (
"can cartouche"
);
unicode = 989551;
}
{
glyphname = "utala-sp";
layers = (
{
layerId = m01;
shapes = (
{
closed = 1;
nodes = (
(461,0,l),
(1373,1395,l),
(1218,1491,l),
(409,256,l),
(260,435,l),
(118,322,l),
(386,0,l)
);
},
{
closed = 1;
nodes = (
(1099,0,l),
(1367,322,l),
(1225,435,l),
(1076,256,l),
(267,1491,l),
(112,1395,l),
(1024,0,l)
);
}
);
width = 1485;
}
);
unicode = 989553;
}
{
glyphname = "wan-sp";
layers = (
{
layerId = m01;
shapes = (
{
closed = 1;
nodes = (
(112,1490,l),
(112,0,l),
(302,0,l),
(302,1490,l)
);
}
);
width = 414;
}
);
unicode = 989555;
}
{
glyphname = "waso-sp";
layers = (
{
layerId = m01;
shapes = (
{
closed = 1;
nodes = (
(576,-96,l),
(576,232,l),
(1684,232,l),
(1815,407,l),
(1108,1672,l),
(984,1549,l),
(1627,333,l),
(1672,407,l),
(390,407,l),
(390,-96,l)
);
},
{
pos = (355,86);
ref = _part.dot;
},
{
pos = (743,86);
ref = _part.dot;
}
);
width = 2000;
},
{
layerId = "6D287F59-47E8-4638-B138-818E25D25DE1";
shapes = (
{
closed = 1;
nodes = (
(506,-96,l),
(506,297,l),
(1684,297,l),
(1711,343,l),
(1062,1627,l),
(1030,1594,l),
(1669,323,l),
(1682,343,l),
(460,343,l),
(460,-96,l)
);
},
{
pos = (355,86);
ref = _part.dot;
},
{
pos = (743,86);
ref = _part.dot;
}
);
width = 2000;
},
{
layerId = "6553A8EE-D982-49E3-AD79-1FB562774AD6";
shapes = (
{
closed = 1;
nodes = (
(683,-96,l),
(683,170,l),
(1588,170,l),
(1815,470,l),
(1169,1732,l),
(923,1489,l),
(1523,343,l),
(1672,470,l),
(283,470,l),
(283,-96,l)
);
},
{
pos = (99,86);
ref = _part.dot;
},
{
pos = (615,86);
ref = _part.dot;
}
);
width = 2000;
}
);
tags = (
"can cartouche"
);
unicode = 989556;
}
{
glyphname = "wawa-sp";
layers = (
{
layerId = m01;
shapes = (
{
closed = 1;
nodes = (
(1224,39,o),
(1400,230,o),
(1400,472,cs),
(1400,716,o),
(1224,907,o),
(1001,907,cs),
(776,907,o),
(600,716,o),
(600,472,cs),
(600,230,o),
(776,39,o),
(1001,39,cs)
);
},
{
closed = 1;
nodes = (
(588,534,l),
(328,1451,l),
(150,1403,l),
(410,486,l)
);
},
{
closed = 1;
nodes = (
(875,214,o),
(786,321,o),
(786,472,cs),
(786,625,o),
(875,732,o),
(1001,732,cs),
(1126,732,o),
(1214,625,o),
(1214,472,cs),
(1214,321,o),
(1126,214,o),
(1001,214,cs)
);
},
{
closed = 1;
nodes = (
(1850,1403,l),
(1672,1451,l),
(1412,534,l),
(1590,486,l)
);
}
);
width = 2000;
},
{
layerId = "6D287F59-47E8-4638-B138-818E25D25DE1";
shapes = (
{
closed = 1;
nodes = (
(1185,104,o),
(1330,266,o),
(1330,472,cs),
(1330,680,o),
(1185,843,o),
(1001,843,cs),
(816,843,o),
(670,680,o),
(670,472,cs),
(670,266,o),
(816,104,o),
(1001,104,cs)
);
},
{
closed = 1;
nodes = (
(554,529,l),
(225,1423,l),
(184,1408,l),
(513,514,l)
);
},
{
closed = 1;
nodes = (
(841,150,o),
(716,292,o),
(716,472,cs),
(716,654,o),
(841,797,o),
(1001,797,cs),
(1159,797,o),
(1284,654,o),
(1284,472,cs),
(1284,292,o),
(1159,150,o),
(1001,150,cs)
);
},
{
closed = 1;
nodes = (
(1816,1408,l),
(1775,1423,l),
(1446,529,l),
(1487,514,l)
);
}
);
width = 2000;
},
{
layerId = "6553A8EE-D982-49E3-AD79-1FB562774AD6";
shapes = (
{
closed = 1;
nodes = (
(1256,-3,o),
(1457,206,o),
(1457,472,cs),
(1457,740,o),
(1256,950,o),
(1001,950,cs),
(745,950,o),
(543,740,o),
(543,472,cs),
(543,206,o),
(745,-3,o),
(1001,-3,cs)
);
},
{
closed = 1;
nodes = (
(527,506,l),
(425,1454,l),
(165,1431,l),
(267,483,l)
);
},
{
closed = 1;
nodes = (
(913,257,o),
(843,352,o),
(843,472,cs),
(843,594,o),
(913,690,o),
(1001,690,cs),
(1088,690,o),
(1157,594,o),
(1157,472,cs),
(1157,352,o),
(1088,257,o),
(1001,257,cs)
);
},
{
closed = 1;
nodes = (
(1836,1431,l),
(1576,1454,l),
(1474,506,l),
(1734,483,l)
);
}
);
width = 2000;
}
);
unicode = 989557;
}
{
color = 1;
glyphname = "weka-sp";
layers = (
{
layerId = m01;
shapes = (
{
closed = 1;
nodes = (
(1660,1288,l),
(1542,1405,l),
(1048,910,l),
(1165,793,l)
);
},
{
closed = 1;
nodes = (
(952,580,l),
(835,697,l),
(340,202,l),
(457,85,l)
);
},
{
closed = 1;
nodes = (
(1660,202,l),
(1165,697,l),
(1048,580,l),
(1542,85,l)
);
},
{
closed = 1;
nodes = (
(952,910,l),
(457,1405,l),
(340,1288,l),
(835,793,l)
);
}
);
width = 2000;
},
{
layerId = "6D287F59-47E8-4638-B138-818E25D25DE1";
shapes = (
{
closed = 1;
nodes = (
(1617,1331,l),
(1584,1363,l),
(1090,868,l),
(1122,836,l)
);
},
{
closed = 1;
nodes = (
(909,623,l),
(877,655,l),
(382,160,l),
(414,128,l)
);
},
{
closed = 1;
nodes = (
(1618,160,l),
(1123,655,l),
(1090,622,l),
(1585,128,l)
);
},
{
closed = 1;
nodes = (
(910,868,l),
(415,1363,l),
(382,1330,l),
(877,835,l)
);
}
);
width = 2000;
},
{
layerId = "6553A8EE-D982-49E3-AD79-1FB562774AD6";
shapes = (
{
closed = 1;
nodes = (
(1706,1254,l),
(1508,1451,l),
(1014,956,l),
(1211,759,l)
);
},
{
closed = 1;
nodes = (
(986,534,l),
(789,731,l),
(294,236,l),
(491,39,l)
);
},
{
closed = 1;
nodes = (
(1707,237,l),
(1212,731,l),
(1014,533,l),
(1507,39,l)
);
},
{
closed = 1;
nodes = (
(987,956,l),
(492,1451,l),
(294,1253,l),
(789,758,l)
);
}
);
width = 2000;
}
);
tags = (
"can cartouche"
);
unicode = 989558;
}
{
glyphname = "wile-sp";
layers = (
{
layerId = m01;
shapes = (
{
closed = 1;
nodes = (
(711,130,o),
(810,239,o),
(846,407,c),
(812,407,l),
(849,247,o),
(937,130,o),
(1136,130,cs),
(1378,130,o),
(1552,302,o),
(1552,646,cs),
(1552,955,o),
(1413,1168,o),
(1311,1264,c),
(1109,1264,l),
(1228,1136,o),
(1370,941,o),
(1370,646,cs),
(1370,418,o),
(1285,290,o),
(1130,290,cs),
(984,290,o),
(921,406,o),
(921,624,cs),
(921,668,l),
(746,668,l),
(746,624,ls),
(746,406,o),
(672,290,o),
(529,290,cs),
(379,290,o),
(294,418,o),
(294,646,cs),
(294,934,o),
(428,1125,o),
(555,1264,c),
(353,1264,l),
(246,1163,o),
(112,947,o),
(112,646,cs),
(112,304,o),
(286,130,o),
(524,130,cs)
);
}
);
width = 1664;
}
);
unicode = 989559;
}
{
glyphname = "namako-sp";
layers = (
{
background = {
shapes = (
{
closed = 1;
nodes = (
(1584,1418,l),
(1416,1497,l),
(1296,1240,l),
(1464,1161,l)
);
},
{
attr = {
strokeHeight = 175;
strokeWidth = 186;
};
closed = 0;
nodes = (
(779,980,l),
(779,869,o),
(909,149,o),
(430,77,c),
(649,77,o),
(1379,-27,o),
(1379,980,c)
);
},
{
closed = 1;
nodes = (
(855,1240,l),
(735,1497,l),
(567,1418,l),
(687,1161,l)
);
},
{
closed = 1;
nodes = (
(1172,1240,l),
(1172,1524,l),
(986,1524,l),
(986,1240,l)
);
}
);
};
layerId = m01;
shapes = (
{
closed = 1;
nodes = (
(1584,1418,l),
(1416,1497,l),
(1296,1240,l),
(1464,1161,l)
);
},
{
closed = 1;
nodes = (
(554,3,l),
(1095,49,o),
(1472,243,o),
(1472,980,c),
(1286,980,l),
(1286,370.469,o),
(1010.036,211.109,o),
(756.625,172.656,c),
(952.054,439.739,o),
(872,902.829,o),
(872,980,c),
(686,980,l),
(686,877,o),
(773,380,o),
(465,100,c)
);
},
{
closed = 1;
nodes = (
(855,1240,l),
(735,1497,l),
(567,1418,l),
(687,1161,l)
);
},
{
closed = 1;
nodes = (
(1172,1240,l),
(1172,1524,l),
(986,1524,l),
(986,1240,l)
);
}
);
width = 2000;
},
{
background = {
shapes = (
{
closed = 1;
nodes = (
(1521,1448,l),
(1479,1467,l),
(1359,1210,l),
(1401,1191,l)
);
},
{
attr = {
strokeHeight = 46;
strokeWidth = 46;
};
closed = 0;
nodes = (
(779,980,l),
(779,869,o),
(909,149,o),
(430,77,c),
(649,77,o),
(1379,-27,o),
(1379,980,c)
);
},
{
closed = 1;
nodes = (
(792,1210,l),
(672,1467,l),
(630,1448,l),
(750,1191,l)
);
},
{
closed = 1;
nodes = (
(1102,1240,l),
(1102,1524,l),
(1056,1524,l),
(1056,1240,l)
);
}
);
};
layerId = "6D287F59-47E8-4638-B138-818E25D25DE1";
shapes = (
{
closed = 1;
nodes = (
(1521,1448,l),
(1479,1467,l),
(1359,1210,l),
(1401,1191,l)
);
},
{
closed = 1;
nodes = (
(518,56,l),
(906,55,o),
(1402,144.998,o),
(1402,980,c),
(1356,980,l),
(1356,153.837,o),
(858.838,94.765,o),
(568.344,96.957,c),
(909.205,274.823,o),
(802,882.212,o),
(802,980,c),
(756,980,l),
(756,875,o),
(866,261,o),
(503,86,c)
);
},
{
closed = 1;
nodes = (
(792,1210,l),
(672,1467,l),
(630,1448,l),
(750,1191,l)
);
},
{
closed = 1;
nodes = (
(1102,1240,l),
(1102,1524,l),
(1056,1524,l),
(1056,1240,l)
);
}
);
width = 2000;
},
{
background = {
shapes = (
{
closed = 1;
nodes = (
(1679,1389,l),
(1385,1526,l),
(1265,1269,l),
(1559,1132,l)
);
},
{
attr = {
strokeHeight = 300;
strokeWidth = 400;
};
closed = 0;
nodes = (
(779,980,l),
(779,869,o),
(909,149,o),
(430,77,c),
(649,77,o),
(1379,-27,o),
(1379,980,c)
);
},
{
closed = 1;
nodes = (
(886,1269,l),
(766,1526,l),
(472,1389,l),
(592,1132,l)
);
},
{
closed = 1;
nodes = (
(1242,1296,l),
(1242,1580,l),
(917,1580,l),
(917,1296,l)
);
}
);
};
layerId = "6553A8EE-D982-49E3-AD79-1FB562774AD6";
shapes = (
{
closed = 1;
nodes = (
(1679,1389,l),
(1385,1526,l),
(1265,1269,l),
(1559,1132,l)
);
},
{
closed = 1;
nodes = (
(434,-54,l),
(1172,4,o),
(1579,222,o),
(1579,980,c),
(1179,980,l),
(1179,591.903,o),
(1074.404,401.597,o),
(936.499,309.2,c),
(1038,583.871,o),
(979,913.726,o),
(979,980,c),
(579,980,l),
(579,873,o),
(644,393,o),
(273,84,c)
);
},
{
closed = 1;
nodes = (
(886,1269,l),
(766,1526,l),
(472,1389,l),
(592,1132,l)
);
},
{
closed = 1;
nodes = (
(1242,1296,l),
(1242,1580,l),
(917,1580,l),
(917,1296,l)
);
}
);
width = 2000;
}
);
unicode = 989560;
}
{
glyphname = "kin-sp";
layers = (
{
layerId = m01;
shapes = (
{
closed = 1;
nodes = (
(999,239,l),
(1145,-43,l),
(1273,29,l),
(1102,296,l),
(1419,284,l),
(1419,428,l),
(1102,415,l),
(1273,683,l),
(1145,755,l),
(999,473,l),
(853,755,l),
(727,683,l),
(898,415,l),
(581,428,l),
(581,284,l),
(898,296,l),
(727,29,l),
(853,-43,l)
);
},
{
closed = 1;
nodes = (
(1073,864,l),
(1073,1538,l),
(929,1538,l),
(929,864,l)
);
}
);
width = 2000;
}
);
unicode = 989561;
}
{
glyphname = "oko-sp";
layers = (
{
layerId = m01;
shapes = (
{
attr = {
strokeHeight = 175;
strokeWidth = 186;
};
closed = 0;
nodes = (
(1378,-49,l),
(1380,393,o),
(941,742,o),
(380,745,c),
(940,745,o),
(1379,1094,o),
(1378,1539,c)
);
},
{
attr = {
strokeHeight = 175;
strokeWidth = 186;
};
closed = 0;
nodes = (
(1239,195,l),
(1751,445,o),
(1751,1045,o),
(1239,1295,c)
);
},
{
alignment = -1;
pos = (492,0);
ref = "interpunct-sp";
}
);
width = 2000;
}
);
unicode = 989562;
}
{
glyphname = "kipisi-sp";
layers = (
{
layerId = m01;
shapes = (
{
closed = 1;
nodes = (
(1585,1209,l),
(1459,1335,l),
(405,281,l),
(531,155,l)
);
},
{
alignment = -1;
pos = (335,-467);
ref = "interpunct-sp";
},
{
alignment = -1;
pos = (-346,347);
ref = "interpunct-sp";
}
);
width = 2000;
},
{
layerId = "6D287F59-47E8-4638-B138-818E25D25DE1";
width = 2000;
}
);
unicode = 989563;
}
{
glyphname = "leko-sp";
layers = (
{
layerId = m01;
shapes = (
{
attr = {
strokeHeight = 186;
strokePos = 1;
strokeWidth = 175;
};
closed = 1;
nodes = (
(1700,44,l),
(1700,1444,l),
(300,1444,l),
(300,44,l)
);
},
{
attr = {
strokeHeight = 186;
strokePos = "1";
strokeWidth = 175;
};
closed = 1;
nodes = (
(650,1094,l),
(1350,1094,l),
(1350,394,l),
(650,394,l)
);
}
);
width = 2000;
}
);
unicode = 989564;
}
{
glyphname = "monsuta-sp";
layers = (
{
layerId = m01;
shapes = (
{
attr = {
strokeHeight = 150;
strokeWidth = 150;
};
closed = 0;
nodes = (
(300,628,l),
(488,839,l),
(608,544,l),
(819,1058,l),
(1000,388,l),
(1181,1058,l),
(1392,544,l),
(1512,839,l),
(1700,628,l)
);
}
);
width = 2000;
},
{
layerId = "6D287F59-47E8-4638-B138-818E25D25DE1";
width = 2000;
}
);
unicode = 989565;
}
{
glyphname = "tonsi-sp";
layers = (
{
layerId = m01;
shapes = (
{
closed = 1;
nodes = (
(1252,0,o),
(1450,198,o),
(1450,450,cs),
(1450,702,o),
(1252,900,o),
(1000,900,cs),
(748,900,o),
(550,702,o),
(550,450,cs),
(550,198,o),
(748,0,o),
(1000,0,cs)
);
},
{
closed = 1;
nodes = (
(846,175,o),
(725,296,o),
(725,450,cs),
(725,604,o),
(846,725,o),
(1000,725,cs),
(1154,725,o),
(1275,604,o),
(1275,450,cs),
(1275,296,o),
(1154,175,o),
(1000,175,cs)
);
},
{
closed = 1;
nodes = (
(1064,794,l),
(1055,1043,l),
(1278,918,l),
(1343,1030,l),
(1119,1154,l),
(1342,1279,l),
(1279,1389,l),
(1055,1265,l),
(1062,1514,l),
(936,1514,l),
(943,1265,l),
(719,1389,l),
(656,1279,l),
(879,1154,l),
(655,1030,l),
(720,918,l),
(943,1043,l),
(934,794,l)
);
}
);
width = 2000;
},
{
layerId = "6D287F59-47E8-4638-B138-818E25D25DE1";
shapes = (
{
closed = 1;
nodes = (
(1216,65,o),
(1386,234,o),
(1386,450,cs),
(1386,666,o),
(1216,836,o),
(1000,836,cs),
(784,836,o),
(615,666,o),
(615,450,cs),
(615,234,o),
(784,65,o),
(1000,65,cs)
);
},
{
closed = 1;
nodes = (
(810,111,o),
(661,260,o),
(661,450,cs),
(661,640,o),
(810,790,o),
(1000,790,cs),
(1190,790,o),
(1340,640,o),
(1340,450,cs),
(1340,260,o),
(1190,111,o),
(1000,111,cs)
);
},
{
closed = 1;
nodes = (
(1022,825,l),
(1022,1203,l),
(1350,1013,l),
(1374,1055,l),
(1044,1243,l),
(1374,1433,l),
(1350,1473,l),
(1022,1285,l),
(1022,1663,l),
(974,1663,l),
(974,1285,l),
(646,1473,l),
(622,1433,l),
(952,1243,l),
(622,1055,l),
(646,1013,l),
(974,1203,l),
(974,825,l)
);
}
);
width = 2000;
},
{
layerId = "6553A8EE-D982-49E3-AD79-1FB562774AD6";
shapes = (
{
closed = 1;
nodes = (
(1333,-62,o),
(1595,163,o),
(1595,450,cs),
(1595,737,o),
(1335,963,o),
(1001,963,cs),
(669,963,o),
(406,737,o),
(406,450,cs),
(406,163,o),
(667,-62,o),
(1000,-62,cs)
);
},
{
closed = 1;
nodes = (
(891,238,o),
(806,331,o),
(806,450,cs),
(806,569,o),
(891,663,o),
(1000,663,cs),
(1109,663,o),
(1195,569,o),
(1195,450,cs),
(1195,331,o),
(1109,238,o),
(1000,238,cs)
);
},
{
closed = 1;
nodes = (
(1144,898,l),
(1119,1072,l),
(1351,960,l),
(1478,1180,l),
(1119,1258,l),
(1478,1336,l),
(1351,1556,l),
(1119,1444,l),
(1145,1618,l),
(855,1618,l),
(881,1444,l),
(649,1556,l),
(522,1336,l),
(881,1258,l),
(522,1180,l),
(649,960,l),
(881,1072,l),
(856,898,l)
);
}
);
width = 2000;
}
);
metricLeft = "|=";
tags = (
"can cartouche"
);
unicode = 989566;
}
{
glyphname = "jasima-sp";
layers = (
{
layerId = m01;
shapes = (
{
alignment = -1;
ref = "telo-sp";
},
{
attr = {
strokeWidth = 186;
};
closed = 0;
nodes = (
(998,1580,l),
(998,-89,l)
);
}
);
width = 2000;
},
{
layerId = "6D287F59-47E8-4638-B138-818E25D25DE1";
shapes = (
{
alignment = -1;
ref = "telo-sp";
},
{
attr = {
strokeWidth = 46;
};
closed = 0;
nodes = (
(998,1580,l),
(998,-89,l)
);
}
);
width = 2000;
}
);
unicode = 989567;
}
{
glyphname = "kijetesantakalu-sp";
layers = (
{
layerId = m01;
shapes = (
{
attr = {
lineCapEnd = 3;
lineCapStart = 4;
strokeHeight = 150;
strokeWidth = 150;
};
closed = 0;
nodes = (
(908,257,l),
(943,6,l),
(401,6,l),
(284,6,o),
(192,116,o),
(192,256,c),
(192,396,o),
(284,506,o),
(401,506,c),
(703,506,l),
(703,802,l),
(703,1190,o),
(1065,1495,o),
(1522,1495,c),
(1522,1293,l),
(1809,1054,l),
(1554,785,l),
(1554,6,l)
);
},
{
alignment = -1;
pos = (555,445);
ref = "interpunct-sp";
scale = (0.7976,0.7976);
},
{
alignment = -1;
pos = (272,445);
ref = "interpunct-sp";
scale = (0.7976,0.7976);
},
{
attr = {
lineCapStart = 3;
strokeHeight = 150;
strokeWidth = 150;
};
closed = 0;
nodes = (
(1249,6,l),
(1249,257,l)
);
},
{
attr = {
strokeHeight = 150;
strokeWidth = 150;
};
closed = 0;
nodes = (
(703,73,l),
(703,506,l)
);
},
{
attr = {
strokeHeight = 150;
strokeWidth = 150;
};
closed = 0;
nodes = (
(439,73,l),
(439,506,l)
);
}
);
width = 2000;
},
{
layerId = "6D287F59-47E8-4638-B138-818E25D25DE1";
shapes = (
{
attr = {
lineCapEnd = "3";
lineCapStart = "4";
strokeHeight = 46;
strokeWidth = 46;
};
closed = 0;
nodes = (
(908,257,l),
(943,6,l),
(401,6,l),
(284,6,o),
(192,116,o),
(192,256,c),
(192,396,o),
(284,506,o),
(401,506,c),
(703,506,l),
(703,802,l),
(703,1190,o),
(1065,1495,o),
(1522,1495,c),
(1522,1293,l),
(1809,1054,l),
(1554,785,l),
(1554,6,l)
);
},
{
alignment = -1;
pos = (555,445);
ref = "interpunct-sp";
scale = (0.7976,0.7976);
},
{
alignment = -1;
pos = (272,445);
ref = "interpunct-sp";
scale = (0.7976,0.7976);
},
{
attr = {
lineCapStart = "3";
strokeHeight = 46;
strokeWidth = 46;
};
closed = 0;
nodes = (
(1249,6,l),
(1249,257,l)
);
},
{
attr = {
strokeHeight = 46;
strokeWidth = 46;
};
closed = 0;
nodes = (
(703,9,l),
(703,506,l)
);
},
{
attr = {
strokeHeight = 46;
strokeWidth = 46;
};
closed = 0;
nodes = (
(439,9,l),
(439,506,l)
);
}
);
width = 2000;
},
{
layerId = "6553A8EE-D982-49E3-AD79-1FB562774AD6";
shapes = (
{
attr = {
lineCapEnd = "3";
lineCapStart = "4";
strokeHeight = 325;
strokeWidth = 325;
};
closed = 0;
nodes = (
(888,192,l),
(931,-91,l),
(269,-91,l),
(126,-91,o),
(14,33,o),
(14,191,c),
(14,349,o),
(126,474,o),
(269,474,c),
(637,474,l),
(637,809,l),
(637,1503,o),
(1079,1592,o),
(1637,1592,c),
(1637,1364,l),
(1987,1094,l),
(1676,790,l),
(1676,-91,l)
);
},
{
alignment = -1;
pos = (651,445);
ref = "interpunct-sp";
scale = (0.7976,0.7976);
},
{
alignment = -1;
pos = (272,445);
ref = "interpunct-sp";
scale = (0.7976,0.7976);
},
{
attr = {
lineCapStart = "3";
strokeHeight = 325;
strokeWidth = 325;
};
closed = 0;
nodes = (
(1304,-91,l),
(1304,192,l)
);
},
{
attr = {
strokeHeight = 325;
strokeWidth = 325;
};
closed = 0;
nodes = (
(637,-16,l),
(637,474,l)
);
},
{
attr = {
strokeHeight = 325;
strokeWidth = 325;
};
closed = 0;
nodes = (
(315,-16,l),
(315,474,l)
);
}
);
width = 2000;
},
{
associatedMasterId = "6553A8EE-D982-49E3-AD79-1FB562774AD6";
attr = {
axisRules = (
{
max = 900;
min = 700;
}
);
};
layerId = "44F28438-68EE-42AE-B37D-672DDA1C63D1";
name = "Apr 5, 24 at 15:37";
shapes = (
{
attr = {
lineCapEnd = "3";
lineCapStart = "4";
strokeHeight = 325;
strokeWidth = 325;
};
closed = 0;
nodes = (
(888,192,l),
(931,-91,l),
(269,-91,l),
(126,-91,o),
(14,33,o),
(14,191,c),
(14,349,o),
(126,474,o),
(269,474,c),
(637,474,l),
(637,809,l),
(637,1503,o),
(1079,1592,o),
(1637,1592,c),
(1637,1364,l),
(1987,1094,l),
(1676,790,l),
(1676,-91,l)
);
},
{
alignment = -1;
pos = (651,445);
ref = "interpunct-sp";
scale = (0.7976,0.7976);
},
{
alignment = -1;
pos = (272,445);
ref = "interpunct-sp";
scale = (0.7976,0.7976);
},
{
attr = {
lineCapStart = "3";
strokeHeight = 325;
strokeWidth = 325;
};
closed = 0;
nodes = (
(1304,-91,l),
(1304,192,l)
);
},
{
attr = {
strokeHeight = 325;
strokeWidth = 325;
};
closed = 0;
nodes = (
(509,-16,l),
(509,474,l)
);
}
);
width = 2000;
},
{
associatedMasterId = m01;
attr = {
axisRules = (
{
max = 900;
min = 700;
}
);
};
layerId = "53CBEDD2-55CA-4A1A-BABF-AFB984DF22D3";
name = "Apr 5, 24 at 15:38";
shapes = (
{
attr = {
lineCapEnd = 3;
lineCapStart = 4;
strokeHeight = 150;
strokeWidth = 150;
};
closed = 0;
nodes = (
(908,257,l),
(943,6,l),
(401,6,l),
(284,6,o),
(192,116,o),
(192,256,c),
(192,396,o),
(284,506,o),
(401,506,c),
(703,506,l),
(703,802,l),
(703,1190,o),
(1065,1495,o),
(1522,1495,c),
(1522,1293,l),
(1809,1054,l),
(1554,785,l),
(1554,6,l)
);
},
{
alignment = -1;
pos = (555,445);
ref = "interpunct-sp";
scale = (0.7976,0.7976);
},
{
alignment = -1;
pos = (272,445);
ref = "interpunct-sp";
scale = (0.7976,0.7976);
},
{
attr = {
lineCapStart = 3;
strokeHeight = 150;
strokeWidth = 150;
};
closed = 0;
nodes = (
(1249,6,l),
(1249,257,l)
);
},
{
attr = {
strokeHeight = 150;
strokeWidth = 150;
};
closed = 0;
nodes = (
(575,33,l),
(575,506,l)
);
}
);
width = 2000;
},
{
associatedMasterId = "6D287F59-47E8-4638-B138-818E25D25DE1";
attr = {
axisRules = (
{
max = 900;
min = 700;
}
);
};
layerId = "FBD688D2-00E8-4457-B723-6F15B282E424";
name = "Apr 5, 24 at 15:38";
shapes = (
{
attr = {
lineCapEnd = "3";
lineCapStart = "4";
strokeHeight = 46;
strokeWidth = 46;
};
closed = 0;
nodes = (
(908,257,l),
(943,6,l),
(401,6,l),
(284,6,o),
(192,116,o),
(192,256,c),
(192,396,o),
(284,506,o),
(401,506,c),
(703,506,l),
(703,802,l),
(703,1190,o),
(1065,1495,o),
(1522,1495,c),
(1522,1293,l),
(1809,1054,l),
(1554,785,l),
(1554,6,l)
);
},
{
alignment = -1;
pos = (555,445);
ref = "interpunct-sp";
scale = (0.7976,0.7976);
},
{
alignment = -1;
pos = (272,445);
ref = "interpunct-sp";
scale = (0.7976,0.7976);
},
{
attr = {
lineCapStart = "3";
strokeHeight = 46;
strokeWidth = 46;
};
closed = 0;
nodes = (
(1249,6,l),
(1249,257,l)
);
},
{
attr = {
strokeHeight = 46;
strokeWidth = 46;
};
closed = 0;
nodes = (
(575,9,l),
(575,506,l)
);
}
);
width = 2000;
}
);
unicode = 989568;
}
{
glyphname = "soko-sp";
layers = (
{
layerId = m01;
shapes = (
{
attr = {
strokeHeight = 175;
strokeWidth = 186;
};
closed = 1;
nodes = (
(1539,1097,o),
(1332,1375,o),
(1002,1375,cs),
(680,1375,o),
(479,1097,o),
(479,654,c),
(1539,654,l)
);
},
{
attr = {
strokeHeight = 175;
strokeWidth = 186;
};
closed = 0;
nodes = (
(998,-25,l),
(998,589,l)
);
}
);
width = 2000;
}
);
unicode = 989569;
}
{
glyphname = "meso-sp";
layers = (
{
layerId = m01;
shapes = (
{
alignment = -1;
ref = "interpunct-sp";
},
{
attr = {
strokeWidth = 186;
};
closed = 0;
nodes = (
(1400,1495,l),
(1400,-5,l)
);
},
{
attr = {
strokeWidth = 186;
};
closed = 0;
nodes = (
(600,1495,l),
(600,-5,l)
);
}
);
width = 2000;
},
{
layerId = "6D287F59-47E8-4638-B138-818E25D25DE1";
width = 2000;
}
);
unicode = 989570;
}
{
glyphname = "epiku-sp";
layers = (
{
layerId = m01;
shapes = (
{
closed = 1;
nodes = (
(1762,1224,l),
(1631,1354,l),
(1246,970,l),
(1377,839,l)
);
},
{
alignment = -1;
pos = (0,-384);
ref = "pona-sp";
},
{
closed = 1;
nodes = (
(753,970,l),
(368,1354,l),
(237,1224,l),
(622,839,l)
);
},
{
closed = 1;
nodes = (
(1092,970,l),
(1092,1514,l),
(907,1514,l),
(907,970,l)
);
}
);
width = 2000;
},
{
layerId = "6D287F59-47E8-4638-B138-818E25D25DE1";
shapes = (
{
closed = 1;
nodes = (
(1713,1273,l),
(1680,1305,l),
(1296,921,l),
(1328,888,l)
);
},
{
alignment = -1;
pos = (0,-384);
ref = "pona-sp";
},
{
closed = 1;
nodes = (
(705,974,l),
(321,1358,l),
(288,1326,l),
(673,941,l)
);
},
{
closed = 1;
nodes = (
(1024,1023,l),
(1024,1567,l),
(978,1567,l),
(978,1023,l)
);
}
);
width = 2000;
}
);
unicode = 989571;
}
{
glyphname = "kokosila-sp";
layers = (
{
layerId = m01;
shapes = (
{
attr = {
strokeHeight = 175;
strokeWidth = 186;
};
closed = 0;
nodes = (
(1620,1048,l),
(380,68,l)
);
},
{
alignment = -1;
ref = "toki-sp";
}
);
width = 2000;
},
{
layerId = "6D287F59-47E8-4638-B138-818E25D25DE1";
shapes = (
{
attr = {
strokeHeight = 46;
strokeWidth = 46;
};
closed = 0;
nodes = (
(1620,1048,l),
(380,68,l)
);
},
{
alignment = -1;
ref = "toki-sp";
}
);
width = 2000;
},
{
layerId = "6553A8EE-D982-49E3-AD79-1FB562774AD6";
shapes = (
{
attr = {
strokeHeight = 300;
strokeWidth = 400;
};
closed = 0;
nodes = (
(1853,916,l),
(146,210,l)
);
},
{
alignment = -1;
ref = "toki-sp";
}
);
width = 2000;
}
);
unicode = 989572;
}
{
glyphname = "lanpan-sp";
layers = (
{
layerId = m01;
shapes = (
{
closed = 1;
nodes = (
(1594,-16,l),
(1524,736,o),
(549,755,o),
(369,14,c),
(463,-8,l),
(554,-8,l),
(706,552,o),
(1356,535,o),
(1408,-16,c)
);
},
{
attr = {
strokeHeight = 175;
strokeWidth = 186;
};
closed = 0;
nodes = (
(876,948,l),
(474,715,o),
(459,536,o),
(459,-8,c)
);
},
{
alignment = -1;
pos = (-3,-577);
ref = "interpunct-sp";
},
{
closed = 1;
nodes = (
(1235,745,o),
(1408,918,o),
(1408,1130,cs),
(1408,1341,o),
(1235,1514,o),
(1024,1514,cs),
(812,1514,o),
(639,1341,o),
(639,1130,cs),
(639,918,o),
(812,745,o),
(1024,745,cs)
);
},
{
closed = 1;
nodes = (
(891,921,o),
(824,988,o),
(824,1130,cs),
(824,1271,o),
(891,1338,o),
(1024,1338,cs),
(1156,1338,o),
(1223,1271,o),
(1223,1130,cs),
(1223,988,o),
(1156,921,o),
(1024,921,cs)
);
}
);
width = 2000;
},
{
layerId = "6D287F59-47E8-4638-B138-818E25D25DE1";
shapes = (
{
closed = 1;
nodes = (
(1524,-16,l),
(1437,607,o),
(602,603,o),
(439,-8,c),
(462,-8,l),
(485,-8,l),
(637,552,o),
(1426,535,o),
(1478,-16,c)
);
},
{
attr = {
strokeHeight = 46;
strokeWidth = 46;
};
closed = 0;
nodes = (
(830,918,l),
(428,685,o),
(459,536,o),
(459,-8,c)
);
},
{
alignment = -1;
pos = (-3,-577);
ref = "interpunct-sp";
},
{
closed = 1;
nodes = (
(1200,810,o),
(1339,951,o),
(1339,1130,cs),
(1339,1309,o),
(1200,1449,o),
(1024,1449,cs),
(848,1449,o),
(709,1309,o),
(709,1130,cs),
(709,951,o),
(848,810,o),
(1024,810,cs)
);
},
{
closed = 1;
nodes = (
(873,856,o),
(755,977,o),
(755,1130,cs),
(755,1283,o),
(873,1403,o),
(1024,1403,cs),
(1175,1403,o),
(1293,1283,o),
(1293,1130,cs),
(1293,977,o),
(1175,856,o),
(1024,856,cs)
);
}
);
width = 2000;
},
{
layerId = "6553A8EE-D982-49E3-AD79-1FB562774AD6";
shapes = (
{
closed = 1;
nodes = (
(1701,-16,l),
(1631,736,o),
(442,755,o),
(262,14,c),
(463,-8,l),
(662,-8,l),
(644,422,o),
(1283,525,o),
(1301,-16,c)
);
},
{
attr = {
strokeHeight = 300;
strokeWidth = 400;
};
closed = 0;
nodes = (
(876,948,l),
(642,813,o),
(459,392,o),
(459,-8,c)
);
},
{
alignment = -1;
pos = (-19,-644);
ref = "interpunct-sp";
},
{
closed = 1;
nodes = (
(1317,683,o),
(1548,880,o),
(1548,1130,cs),
(1548,1380,o),
(1317,1576,o),
(1024,1576,cs),
(731,1576,o),
(500,1380,o),
(500,1130,cs),
(500,880,o),
(731,683,o),
(1024,683,cs)
);
},
{
closed = 1;
nodes = (
(955,983,o),
(900,1048,o),
(900,1130,cs),
(900,1212,o),
(955,1276,o),
(1024,1276,cs),
(1093,1276,o),
(1148,1212,o),
(1148,1130,cs),
(1148,1048,o),
(1093,983,o),
(1024,983,cs)
);
}
);
width = 2000;
}
);
unicode = 989573;
}
{
glyphname = "n-sp";
layers = (
{
layerId = m01;
shapes = (
{
closed = 1;
nodes = (
(842,0,l),
(842,366,ls),
(842,438,o),
(909,486,o),
(1004,486,cs),
(1096,486,o),
(1156,440,o),
(1156,366,cs),
(1156,0,l),
(1328,0,l),
(1328,398,ls),
(1328,533,o),
(1224,625,o),
(1070,625,cs),
(944,625,o),
(864,560,o),
(830,468,c),
(834,468,l),
(831,619,l),
(672,619,l),
(672,0,l)
);
},
{
closed = 1;
nodes = (
(1095,816,l),
(1095,1490,l),
(905,1490,l),
(905,816,l)
);
}
);
width = 2000;
},
{
layerId = "6D287F59-47E8-4638-B138-818E25D25DE1";
shapes = (
{
closed = 1;
nodes = (
(777,-1,l),
(777,378,ls),
(777,477,o),
(876,545,o),
(1007,545,cs),
(1135,545,o),
(1223,481,o),
(1223,382,cs),
(1223,-1,l),
(1270,-1,l),
(1270,385,ls),
(1270,512,o),
(1166,589,o),
(1015,589,cs),
(901,589,o),
(801,546,o),
(767,452,c),
(776,452,l),
(776,582,l),
(730,582,l),
(730,-1,l)
);
},
{
closed = 1;
nodes = (
(1023,816,l),
(1023,1490,l),
(977,1490,l),
(977,816,l)
);
}
);
width = 2000;
},
{
layerId = "6553A8EE-D982-49E3-AD79-1FB562774AD6";
shapes = (
{
closed = 1;
nodes = (
(896,-58,l),
(896,307,ls),
(896,349,o),
(937,379,o),
(1000,379,cs),
(1065,379,o),
(1103,348,o),
(1103,298,cs),
(1103,-58,l),
(1386,-58,l),
(1386,358,ls),
(1386,489,o),
(1271,600,o),
(1114,600,cs),
(985,600,o),
(917,522,o),
(888,431,c),
(879,431,l),
(870,596,l),
(613,596,l),
(613,-58,l)
);
},
{
closed = 1;
nodes = (
(1200,768,l),
(1200,1570,l),
(800,1570,l),
(800,768,l)
);
}
);
width = 2000;
}
);
metricLeft = "=|";
tags = (
"can cartouche"
);
unicode = 989574;
}
{
glyphname = "misikeke-sp";
layers = (
{
layerId = m01;
shapes = (
{
attr = {
strokeHeight = 175;
strokeWidth = 186;
};
closed = 1;
nodes = (
(1211,119,o),
(1323,259,o),
(1323,519,cs),
(1323,957,ls),
(1323,1217,o),
(1211,1357,o),
(1004,1357,cs),
(797,1357,o),
(685,1217,o),
(685,957,cs),
(685,519,ls),
(685,259,o),
(797,119,o),
(1004,119,cs)
);
},
{
attr = {
strokeHeight = 175;
strokeWidth = 186;
};
closed = 0;
nodes = (
(1329,745,l),
(689,745,l)
);
}
);
width = 2000;
},
{
layerId = "6D287F59-47E8-4638-B138-818E25D25DE1";
shapes = (
{
attr = {
strokeHeight = 46;
strokeWidth = 46;
};
closed = 1;
nodes = (
(1211,119,o),
(1323,259,o),
(1323,519,cs),
(1323,957,ls),
(1323,1217,o),
(1211,1357,o),
(1004,1357,cs),
(797,1357,o),
(685,1217,o),
(685,957,cs),
(685,519,ls),
(685,259,o),
(797,119,o),
(1004,119,cs)
);
},
{
attr = {
strokeHeight = 46;
strokeWidth = 46;
};
closed = 0;
nodes = (
(1329,745,l),
(689,745,l)
);
}
);
width = 2000;
},
{
layerId = "6553A8EE-D982-49E3-AD79-1FB562774AD6";
shapes = (
{
attr = {
strokeHeight = 300;
strokeWidth = 400;
};
closed = 1;
nodes = (
(1210,119,o),
(1371,295,o),
(1371,519,cs),
(1371,957,ls),
(1371,1181,o),
(1210,1357,o),
(1004,1357,cs),
(798,1357,o),
(636,1181,o),
(636,957,cs),
(636,519,ls),
(636,295,o),
(798,119,o),
(1004,119,cs)
);
},
{
attr = {
strokeHeight = 300;
strokeWidth = 400;
};
closed = 0;
nodes = (
(1378,745,l),
(640,745,l)
);
}
);
width = 2000;
}
);
unicode = 989575;
}
{
glyphname = "ku-sp";
layers = (
{
layerId = m01;
shapes = (
{
closed = 1;
nodes = (
(408,0,l),
(1591,0,l),
(1591,1490,l),
(408,1490,l)
);
},
{
closed = 1;
nodes = (
(1441,1350,l),
(1441,140,l),
(558,140,l),
(558,1350,l)
);
},
{
attr = {
strokeHeight = 140;
strokeWidth = 150;
};
closed = 0;
nodes = (
(1539,1235,l),
(828,856,l),
(1075,74,l)
);
},
{
alignment = -1;
pos = (240,-340);
ref = "interpunct-sp";
},
{
attr = {
strokeHeight = 140;
strokeWidth = 150;
};
closed = 0;
nodes = (
(1483,591,l),
(828,856,l)
);
}
);
width = 2000;
}
);
unicode = 989576;
}
{
glyphname = "cartouchestart-sp";
layers = (
{
hints = (
{
name = _cap.butt;
origin = (0,0);
type = Cap;
},
{
name = _cap.butt;
origin = (0,10);
type = Cap;
}
);
layerId = m01;
shapes = (
{
closed = 1;
nodes = (
(2000,-360,l),
(2000,-185,l),
(1417,-185,ls),
(1122,-185,o),
(907,30,o),
(907,325,cs),
(907,1165,ls),
(907,1460,o),
(1122,1675,o),
(1417,1675,cs),
(2000,1675,l),
(2000,1850,l),
(1417,1850,ls),
(1018,1850,o),
(721,1555,o),
(721,1165,cs),
(721,325,ls),
(721,-65,o),
(1018,-360,o),
(1417,-360,cs)
);
}
);
width = 2000;
},
{
hints = (
{
name = _cap.butt;
origin = (0,0);
type = Cap;
},
{
name = _cap.butt;
options = 8;
origin = (0,10);
type = Cap;
}
);
layerId = "6D287F59-47E8-4638-B138-818E25D25DE1";
shapes = (
{
closed = 1;
nodes = (
(2000,-295,l),
(2000,-249,l),
(1417,-249,ls),
(1092,-249,o),
(837,4,o),
(837,325,cs),
(837,1165,ls),
(837,1487,o),
(1092,1740,o),
(1417,1740,cs),
(2000,1740,l),
(2000,1786,l),
(1417,1786,ls),
(1066,1786,o),
(791,1513,o),
(791,1165,cs),
(791,325,ls),
(791,-22,o),
(1066,-295,o),
(1417,-295,cs)
);
}
);
width = 2000;
},
{
layerId = "6553A8EE-D982-49E3-AD79-1FB562774AD6";
width = 2000;
}
);
unicode = 989584;
}
{
glyphname = "cartoucheend-sp";
layers = (
{
background = {
shapes = (
{
closed = 0;
nodes = (
(0,-185,l),
(1093,-185,l),
(1093,1675,l),
(0,1675,l)
);
}
);
};
layerId = m01;
shapes = (
{
closed = 1;
nodes = (
(583,-360,ls),
(982,-360,o),
(1279,-65,o),
(1279,325,cs),
(1279,1165,ls),
(1279,1555,o),
(982,1850,o),
(583,1850,cs),
(0,1850,l),
(0,1675,l),
(583,1675,ls),
(878,1675,o),
(1093,1460,o),
(1093,1165,cs),
(1093,325,ls),
(1093,30,o),
(878,-185,o),
(583,-185,cs),
(0,-185,l),
(0,-360,l)
);
}
);
width = 2000;
},
{
layerId = "6D287F59-47E8-4638-B138-818E25D25DE1";
shapes = (
{
closed = 1;
nodes = (
(583,-295,ls),
(934,-295,o),
(1209,-22,o),
(1209,325,cs),
(1209,1165,ls),
(1209,1513,o),
(934,1786,o),
(583,1786,cs),
(0,1786,l),
(0,1740,l),
(583,1740,ls),
(908,1740,o),
(1163,1487,o),
(1163,1165,cs),
(1163,325,ls),
(1163,4,o),
(908,-249,o),
(583,-249,cs),
(0,-249,l),
(0,-295,l)
);
}
);
width = 2000;
},
{
layerId = "6553A8EE-D982-49E3-AD79-1FB562774AD6";
shapes = (
{
closed = 1;
nodes = (
(583,-422,ls),
(1033,-422,o),
(1386,-93,o),
(1386,325,cs),
(1386,1165,ls),
(1386,1584,o),
(1033,1913,o),
(583,1913,cs),
(0,1913,l),
(0,1613,l),
(583,1613,ls),
(809,1613,o),
(986,1416,o),
(986,1165,cs),
(986,325,ls),
(986,75,o),
(809,-122,o),
(583,-122,cs),
(0,-122,l),
(0,-422,l)
);
}
);
width = 2000;
}
);
unicode = 989585;
}
{
glyphname = "pake-sp";
layers = (
{
layerId = m01;
shapes = (
{
closed = 1;
nodes = (
(906,1322,l),
(906,0,l),
(1096,0,l),
(1096,1322,l),
(1691,1322,l),
(1691,1490,l),
(309,1490,l),
(309,1322,l)
);
}
);
width = 2000;
}
);
unicode = 989600;
}
{
glyphname = "apeja-sp";
layers = (
{
layerId = m01;
shapes = (
{
closed = 1;
nodes = (
(1664,915,o),
(1801,1045,o),
(1801,1233,cs),
(1801,1421,o),
(1664,1551,o),
(1448,1551,cs),
(1231,1551,o),
(1094,1421,o),
(1094,1233,cs),
(1094,1045,o),
(1231,915,o),
(1448,915,cs)
);
},
{
closed = 1;
nodes = (
(1216,-45,o),
(1353,85,o),
(1353,273,cs),
(1353,461,o),
(1216,591,o),
(1000,591,cs),
(783,591,o),
(646,461,o),
(646,273,cs),
(646,85,o),
(783,-45,o),
(1000,-45,cs)
);
},
{
closed = 1;
nodes = (
(885,84,o),
(821,162,o),
(821,272,cs),
(821,382,o),
(885,462,o),
(1000,462,cs),
(1114,462,o),
(1178,383,o),
(1178,272,cs),
(1178,161,o),
(1114,84,o),
(1000,84,cs)
);
},
{
attr = {
strokeHeight = 130;
strokeWidth = 160;
};
closed = 0;
nodes = (
(250,503,l),
(1000,869,l),
(1750,530,l)
);
},
{
closed = 1;
nodes = (
(768,915,o),
(905,1045,o),
(905,1233,cs),
(905,1421,o),
(768,1551,o),
(552,1551,cs),
(335,1551,o),
(198,1421,o),
(198,1233,cs),
(198,1045,o),
(335,915,o),
(552,915,cs)
);
},
{
closed = 1;
nodes = (
(437,1044,o),
(373,1122,o),
(373,1232,cs),
(373,1342,o),
(437,1422,o),
(552,1422,cs),
(666,1422,o),
(730,1343,o),
(730,1232,cs),
(730,1121,o),
(666,1044,o),
(552,1044,cs)
);
},
{
closed = 1;
nodes = (
(1333,1044,o),
(1269,1122,o),
(1269,1232,cs),
(1269,1342,o),
(1333,1422,o),
(1448,1422,cs),
(1562,1422,o),
(1626,1343,o),
(1626,1232,cs),
(1626,1121,o),
(1562,1044,o),
(1448,1044,cs)
);
}
);
width = 2000;
},
{
layerId = "6D287F59-47E8-4638-B138-818E25D25DE1";
shapes = (
{
closed = 1;
nodes = (
(1610,957,o),
(1737,1078,o),
(1737,1233,cs),
(1737,1388,o),
(1610,1510,o),
(1448,1510,cs),
(1286,1510,o),
(1159,1388,o),
(1159,1233,cs),
(1159,1078,o),
(1286,957,o),
(1448,957,cs)
);
},
{
closed = 1;
nodes = (
(1162,-3,o),
(1289,118,o),
(1289,273,cs),
(1289,428,o),
(1162,550,o),
(1000,550,cs),
(838,550,o),
(711,428,o),
(711,273,cs),
(711,118,o),
(838,-3,o),
(1000,-3,cs)
);
},
{
closed = 1;
nodes = (
(864,43,o),
(757,144,o),
(757,272,cs),
(757,402,o),
(864,504,o),
(1000,504,cs),
(1136,504,o),
(1243,402,o),
(1243,272,cs),
(1243,144,o),
(1136,43,o),
(1000,43,cs)
);
},
{
attr = {
strokeHeight = 46;
strokeWidth = 46;
};
closed = 0;
nodes = (
(250,503,l),
(1000,869,l),
(1750,530,l)
);
},
{
closed = 1;
nodes = (
(714,957,o),
(841,1078,o),
(841,1233,cs),
(841,1388,o),
(714,1510,o),
(552,1510,cs),
(390,1510,o),
(263,1388,o),
(263,1233,cs),
(263,1078,o),
(390,957,o),
(552,957,cs)
);
},
{
closed = 1;
nodes = (
(416,1003,o),
(309,1104,o),
(309,1232,cs),
(309,1362,o),
(416,1464,o),
(552,1464,cs),
(688,1464,o),
(795,1362,o),
(795,1232,cs),
(795,1104,o),
(688,1003,o),
(552,1003,cs)
);
},
{
closed = 1;
nodes = (
(1312,1003,o),
(1205,1104,o),
(1205,1232,cs),
(1205,1362,o),
(1312,1464,o),
(1448,1464,cs),
(1584,1464,o),
(1691,1362,o),
(1691,1232,cs),
(1691,1104,o),
(1584,1003,o),
(1448,1003,cs)
);
}
);
width = 2000;
}
);
unicode = 989601;
}
{
glyphname = "majuna-sp";
layers = (
{
background = {
shapes = (
{
closed = 1;
nodes = (
(1332,352,o),
(1332,538,o),
(1212,657,cs),
(1093,777,o),
(907,777,o),
(788,657,cs),
(668,538,o),
(668,352,o),
(788,233,cs),
(907,113,o),
(1093,113,o),
(1212,233,cs)
);
},
{
closed = 1;
nodes = (
(1301,614,o),
(1169,746,o),
(1000,745,cs),
(831,746,o),
(699,614,o),
(700,445,cs),
(699,276,o),
(831,144,o),
(1000,145,cs),
(1169,144,o),
(1301,276,o),
(1300,445,cs)
);
}
);
};
layerId = m01;
shapes = (
{
closed = 1;
nodes = (
(1590,916,l),
(1471,1035,l),
(1153,716,l),
(1271,598,l)
);
},
{
closed = 1;
nodes = (
(698,350,l),
(698,516,l),
(248,514,l),
(248,348,l)
);
},
{
closed = 1;
nodes = (
(847,716,l),
(529,1035,l),
(410,916,l),
(729,598,l)
);
},
{
closed = 1;
nodes = (
(1752,514,l),
(1302,516,l),
(1302,350,l),
(1752,348,l)
);
},
{
closed = 1;
nodes = (
(1083,747,l),
(1083,1197,l),
(917,1196,l),
(917,747,l)
);
}
);
width = 2000;
},
{
layerId = "6D287F59-47E8-4638-B138-818E25D25DE1";
shapes = (
{
closed = 1;
nodes = (
(1547,959,l),
(1515,992,l),
(1196,673,l),
(1228,641,l)
);
},
{
closed = 1;
nodes = (
(698,410,l),
(698,455,l),
(248,454,l),
(248,409,l)
);
},
{
closed = 1;
nodes = (
(804,673,l),
(485,992,l),
(453,959,l),
(772,641,l)
);
},
{
closed = 1;
nodes = (
(1752,454,l),
(1302,455,l),
(1302,410,l),
(1752,409,l)
);
},
{
closed = 1;
nodes = (
(1023,747,l),
(1023,1197,l),
(977,1196,l),
(977,747,l)
);
}
);
width = 2000;
},
{
background = {
shapes = (
{
closed = 1;
nodes = (
(1413,329,o),
(1413,561,o),
(1264,709,cs),
(1116,858,o),
(884,858,o),
(736,709,cs),
(587,561,o),
(587,329,o),
(736,181,cs),
(884,32,o),
(1116,32,o),
(1264,181,cs)
);
},
{
closed = 1;
nodes = (
(1375,655,o),
(1210,820,o),
(1000,819,cs),
(790,820,o),
(625,655,o),
(626,445,cs),
(625,235,o),
(790,70,o),
(1000,71,cs),
(1210,70,o),
(1375,235,o),
(1374,445,cs)
);
}
);
};
layerId = "6553A8EE-D982-49E3-AD79-1FB562774AD6";
shapes = (
{
closed = 1;
nodes = (
(1688,922,l),
(1477,1133,l),
(1159,814,l),
(1369,604,l)
);
},
{
closed = 1;
nodes = (
(626,286,l),
(626,582,l),
(176,578,l),
(176,282,l)
);
},
{
closed = 1;
nodes = (
(844,815,l),
(527,1134,l),
(314,922,l),
(633,604,l)
);
},
{
closed = 1;
nodes = (
(1824,578,l),
(1374,582,l),
(1374,286,l),
(1824,282,l)
);
},
{
closed = 1;
nodes = (
(1150,819,l),
(1150,1269,l),
(850,1268,l),
(850,819,l)
);
}
);
width = 2000;
}
);
unicode = 989602;
}
{
glyphname = "powe-sp";
layers = (
{
layerId = m01;
shapes = (
{
closed = 1;
nodes = (
(375,439,l),
(375,264,l),
(1625,264,l),
(1625,439,l)
);
},
{
closed = 1;
nodes = (
(1324,700,l),
(798,1228,l),
(676,1104,l),
(1202,578,l)
);
},
{
closed = 1;
nodes = (
(1324,1104,l),
(1202,1228,l),
(676,700,l),
(798,578,l)
);
}
);
width = 2000;
}
);
unicode = 989603;
}
{
glyphname = "isipin-sp";
layers = (
{
layerId = m01;
shapes = (
{
alignment = -1;
pos = (56,-200);
ref = "lawa-sp";
},
{
closed = 1;
nodes = (
(1047,1804,l),
(862,1804,l),
(862,1404,l),
(1047,1404,l)
);
},
{
closed = 1;
nodes = (
(746,1404,l),
(534,1768,l),
(374,1675,l),
(586,1312,l)
);
},
{
closed = 1;
nodes = (
(1535,1675,l),
(1375,1768,l),
(1163,1404,l),
(1323,1312,l)
);
}
);
width = 2000;
}
);
unicode = 989604;
}
{
glyphname = "kan-sp";
layers = (
{
layerId = m01;
shapes = (
{
attr = {
strokeHeight = 176;
strokeWidth = 186;
};
closed = 1;
nodes = (
(1182,-12,o),
(1442,248,o),
(1442,570,cs),
(1442,891,o),
(1182,1151,o),
(861,1151,cs),
(539,1151,o),
(279,891,o),
(279,570,cs),
(279,248,o),
(539,-12,o),
(861,-12,cs)
);
},
{
attr = {
strokeHeight = 176;
strokeWidth = 186;
};
closed = 0;
nodes = (
(1442,568,l),
(1607,649,o),
(1721,819,o),
(1721,1015,cs),
(1721,1289,o),
(1498,1512,o),
(1224,1512,cs),
(993,1512,o),
(798,1353,o),
(743,1139,c)
);
}
);
width = 2000;
},
{
layerId = "6D287F59-47E8-4638-B138-818E25D25DE1";
shapes = (
{
attr = {
strokeHeight = 46;
strokeWidth = 46;
};
closed = 1;
nodes = (
(1182,-12,o),
(1442,248,o),
(1442,570,cs),
(1442,891,o),
(1182,1151,o),
(861,1151,cs),
(539,1151,o),
(279,891,o),
(279,570,cs),
(279,248,o),
(539,-12,o),
(861,-12,cs)
);
},
{
attr = {
strokeHeight = 46;
strokeWidth = 46;
};
closed = 0;
nodes = (
(1442,568,l),
(1607,649,o),
(1721,819,o),
(1721,1015,cs),
(1721,1289,o),
(1498,1512,o),
(1224,1512,cs),
(993,1512,o),
(798,1353,o),
(743,1139,c)
);
}
);
width = 2000;
},
{
layerId = "6553A8EE-D982-49E3-AD79-1FB562774AD6";
shapes = (
{
attr = {
strokeHeight = 300;
strokeWidth = 400;
};
closed = 1;
nodes = (
(1182,-12,o),
(1442,248,o),
(1442,570,cs),
(1442,891,o),
(1182,1151,o),
(861,1151,cs),
(539,1151,o),
(279,891,o),
(279,570,cs),
(279,248,o),
(539,-12,o),
(861,-12,cs)
);
},
{
attr = {
strokeHeight = 300;
strokeWidth = 400;
};
closed = 0;
nodes = (
(1442,568,l),
(1607,649,o),
(1721,819,o),
(1721,1015,cs),
(1721,1289,o),
(1498,1512,o),
(1224,1512,cs),
(993,1512,o),
(798,1353,o),
(743,1139,c)
);
}
);
width = 2000;
}
);
unicode = 989605;
}
{
glyphname = "oke-sp";
layers = (
{
layerId = m01;
shapes = (
{
closed = 1;
nodes = (
(1704,1151,l),
(1583,1270,l),
(793,484,l),
(412,858,l),
(295,738,l),
(793,242,l)
);
}
);
width = 2000;
},
{
layerId = "6D287F59-47E8-4638-B138-818E25D25DE1";
width = 2000;
}
);
unicode = 989606;
}
{
glyphname = "po-sp";
layers = (
{
layerId = m01;
shapes = (
{
closed = 1;
nodes = (
(1510,431,l),
(1510,598,l),
(612,598,l),
(612,610,l),
(1143,1310,l),
(1176,1310,l),
(1176,1490,l),
(1061,1490,l),
(409,586,l),
(409,431,l)
);
},
{
closed = 1;
nodes = (
(1348,0,l),
(1348,1490,l),
(1167,1490,l),
(1167,550,l),
(1166,477,l),
(1166,0,l)
);
}
);
width = 2000;
}
);
unicode = 989608;
}
{
glyphname = "san-sp";
layers = (
{
layerId = m01;
shapes = (
{
closed = 1;
nodes = (
(1602,0,l),
(1602,1314,l),
(1612,1314,l),
(1869,1123,l),
(1869,1327,l),
(1648,1490,l),
(1415,1490,l),
(1415,0,l)
);
},
{
closed = 1;
nodes = (
(322,0,l),
(322,1314,l),
(332,1314,l),
(589,1123,l),
(589,1327,l),
(368,1490,l),
(135,1490,l),
(135,0,l)
);
},
{
closed = 1;
nodes = (
(962,0,l),
(962,1314,l),
(972,1314,l),
(1229,1123,l),
(1229,1327,l),
(1008,1490,l),
(775,1490,l),
(775,0,l)
);
}
);
width = 2000;
},
{
layerId = "6D287F59-47E8-4638-B138-818E25D25DE1";
shapes = (
{
closed = 1;
nodes = (
(1533,0,l),
(1533,1440,l),
(1541,1440,l),
(1861,1202,l),
(1861,1258,l),
(1551,1490,l),
(1487,1490,l),
(1487,0,l)
);
},
{
closed = 1;
nodes = (
(253,0,l),
(253,1440,l),
(261,1440,l),
(581,1202,l),
(581,1258,l),
(271,1490,l),
(207,1490,l),
(207,0,l)
);
},
{
closed = 1;
nodes = (
(893,0,l),
(893,1440,l),
(901,1440,l),
(1221,1202,l),
(1221,1258,l),
(911,1490,l),
(847,1490,l),
(847,0,l)
);
}
);
width = 2000;
},
{
layerId = "6553A8EE-D982-49E3-AD79-1FB562774AD6";
shapes = (
{
closed = 1;
nodes = (
(1709,0,l),
(1709,1142,l),
(1719,1142,l),
(1936,922,l),
(1936,1266,l),
(1711,1490,l),
(1344,1490,l),
(1344,0,l)
);
},
{
closed = 1;
nodes = (
(429,0,l),
(429,1142,l),
(439,1142,l),
(656,922,l),
(656,1266,l),
(431,1490,l),
(64,1490,l),
(64,0,l)
);
},
{
closed = 1;
nodes = (
(1069,0,l),
(1069,1142,l),
(1079,1142,l),
(1296,922,l),
(1296,1266,l),
(1071,1490,l),
(704,1490,l),
(704,0,l)
);
}
);
width = 2000;
}
);
unicode = 989609;
}
{
glyphname = _cap.butt;
layers = (
{
anchors = (
{
name = origin;
pos = (99,139);
}
);
layerId = m01;
shapes = (
{
closed = 0;
nodes = (
(99,139,l),
(186,76,l),
(274,139,l)
);
}
);
width = 600;
}
);
tags = (
"can cartouche"
);
}
{
glyphname = _cap.smallButt;
layers = (
{
anchors = (
{
name = origin;
pos = (112,139);
}
);
layerId = m01;
shapes = (
{
closed = 0;
nodes = (
(112,139,l),
(186,76,l),
(262,139,l)
);
}
);
width = 600;
}
);
}
{
export = 0;
glyphname = _closedMouth;
layers = (
{
layerId = m01;
shapes = (
{
closed = 1;
nodes = (
(1270,11,o),
(1602,344,o),
(1602,755,c),
(1469,755,l),
(1469,756,l),
(292,756,l),
(292,755,l),
(112,755,l),
(112,344,o),
(447,11,o),
(858,11,cs)
);
},
{
closed = 1;
nodes = (
(598,186,o),
(392,350,o),
(322,581,c),
(1392,581,l),
(1323,349,o),
(1117,186,o),
(858,186,cs)
);
}
);
width = 1715;
}
);
}
{
category = "";
export = 0;
glyphname = "_jelo-sp.suno";
layers = (
{
anchors = (
{
name = _peak;
pos = (1001,765);
}
);
layerId = "6D287F59-47E8-4638-B138-818E25D25DE1";
shapes = (
{
closed = 1;
nodes = (
(750,1031,l),
(750,1077,l),
(469,1077,l),
(469,1031,l)
);
},
{
closed = 1;
nodes = (
(1159,765,o),
(1283,892,o),
(1283,1053,cs),
(1283,1215,o),
(1159,1343,o),
(1001,1343,cs),
(843,1343,o),
(719,1215,o),
(719,1053,cs),
(719,892,o),
(843,765,o),
(1001,765,cs)
);
},
{
closed = 1;
nodes = (
(869,811,o),
(765,917,o),
(765,1053,cs),
(765,1190,o),
(869,1297,o),
(1001,1297,cs),
(1133,1297,o),
(1237,1190,o),
(1237,1053,cs),
(1237,917,o),
(1133,811,o),
(1001,811,cs)
);
},
{
closed = 1;
nodes = (
(1531,1031,l),
(1531,1077,l),
(1275,1077,l),
(1275,1031,l)
);
},
{
closed = 1;
nodes = (
(1024,1330,l),
(1024,1626,l),
(978,1626,l),
(978,1330,l)
);
}
);
width = 2000;
},
{
anchors = (
{
name = _peak;
pos = (1001,708);
}
);
layerId = m01;
shapes = (
{
closed = 1;
nodes = (
(750,955,l),
(750,1152,l),
(469,1152,l),
(469,955,l)
);
},
{
closed = 1;
nodes = (
(1203,708,o),
(1345,852,o),
(1345,1053,cs),
(1345,1254,o),
(1203,1400,o),
(1001,1400,cs),
(799,1400,o),
(657,1254,o),
(657,1053,cs),
(657,852,o),
(799,708,o),
(1001,708,cs)
);
},
{
closed = 1;
nodes = (
(899,868,o),
(827,944,o),
(827,1053,cs),
(827,1162,o),
(899,1240,o),
(1001,1240,cs),
(1104,1240,o),
(1175,1162,o),
(1175,1053,cs),
(1175,944,o),
(1104,868,o),
(1001,868,cs)
);
},
{
closed = 1;
nodes = (
(1531,955,l),
(1531,1152,l),
(1275,1152,l),
(1275,955,l)
);
},
{
closed = 1;
nodes = (
(1099,1330,l),
(1099,1626,l),
(902,1626,l),
(902,1330,l)
);
}
);
width = 2000;
},
{
anchors = (
{
name = _peak;
pos = (1001,686);
}
);
layerId = "6553A8EE-D982-49E3-AD79-1FB562774AD6";
shapes = (
{
closed = 1;
nodes = (
(622,952,l),
(622,1252,l),
(322,1252,l),
(322,952,l)
);
},
{
closed = 1;
nodes = (
(1271,686,o),
(1484,869,o),
(1484,1101,cs),
(1484,1335,o),
(1271,1518,o),
(1001,1518,cs),
(731,1518,o),
(518,1335,o),
(518,1101,cs),
(518,869,o),
(731,686,o),
(1001,686,cs)
);
},
{
closed = 1;
nodes = (
(955,986,o),
(918,1037,o),
(918,1101,cs),
(918,1167,o),
(955,1218,o),
(1001,1218,cs),
(1047,1218,o),
(1084,1167,o),
(1084,1101,cs),
(1084,1037,o),
(1047,986,o),
(1001,986,cs)
);
},
{
closed = 1;
nodes = (
(1659,952,l),
(1659,1252,l),
(1403,1252,l),
(1403,952,l)
);
},
{
closed = 1;
nodes = (
(1201,1378,l),
(1201,1674,l),
(801,1674,l),
(801,1378,l)
);
}
);
width = 2000;
}
);
script = han;
}
{
category = "";
export = 0;
glyphname = "_laso-sp.kasi";
layers = (
{
layerId = "6D287F59-47E8-4638-B138-818E25D25DE1";
shapes = (
{
closed = 1;
nodes = (
(1024,688,l),
(1024,1508,l),
(978,1508,l),
(978,688,l)
);
},
{
attr = {
strokeHeight = 46;
strokeWidth = 46;
};
closed = 1;
nodes = (
(1285,1510,o),
(1013,1283,o),
(1001,969,c),
(1361,940,o),
(1633,1167,o),
(1644,1481,c)
);
},
{
attr = {
strokeHeight = 46;
strokeWidth = 46;
};
closed = 1;
nodes = (
(369,999,o),
(641,772,o),
(1001,801,c),
(989,1115,o),
(717,1342,o),
(358,1313,c)
);
}
);
width = 2000;
},
{
layerId = m01;
shapes = (
{
closed = 1;
nodes = (
(1094,632,l),
(1094,1508,l),
(908,1508,l),
(908,632,l)
);
},
{
attr = {
strokeHeight = 176;
strokeWidth = 186;
};
closed = 1;
nodes = (
(1285,1510,o),
(1013,1283,o),
(1001,969,c),
(1361,940,o),
(1633,1167,o),
(1644,1481,c)
);
},
{
attr = {
strokeHeight = 176;
strokeWidth = 186;
};
closed = 1;
nodes = (
(369,911,o),
(641,684,o),
(1001,713,c),
(989,1027,o),
(717,1254,o),
(358,1225,c)
);
}
);
width = 2000;
},
{
layerId = "6553A8EE-D982-49E3-AD79-1FB562774AD6";
shapes = (
{
closed = 1;
nodes = (
(1201,632,l),
(1201,1508,l),
(801,1508,l),
(801,632,l)
);
},
{
attr = {
strokeHeight = 260;
strokeWidth = 400;
};
closed = 1;
nodes = (
(1413,1510,o),
(1141,1283,o),
(1129,969,c),
(1489,940,o),
(1761,1167,o),
(1772,1481,c)
);
},
{
attr = {
strokeHeight = 260;
strokeWidth = 400;
};
closed = 1;
nodes = (
(241,911,o),
(513,684,o),
(873,713,c),
(861,1027,o),
(589,1254,o),
(230,1225,c)
);
}
);
width = 2000;
}
);
script = han;
}
{
export = 0;
glyphname = "_moku-sp.mouth";
layers = (
{
anchors = (
{
name = _attachment;
pos = (1095,583);
}
);
layerId = "6D287F59-47E8-4638-B138-818E25D25DE1";
shapes = (
{
attr = {
strokeHeight = 46;
strokeWidth = 46;
};
closed = 1;
nodes = (
(1371,583,o),
(1594,806,o),
(1594,1209,c),
(594,1209,l),
(594,806,o),
(818,583,o),
(1095,583,cs)
);
}
);
width = 2000;
},
{
anchors = (
{
name = _attachment;
pos = (1095,605);
}
);
layerId = m01;
shapes = (
{
attr = {
strokeHeight = 176;
strokeWidth = 186;
};
closed = 1;
nodes = (
(1371,605,o),
(1594,828,o),
(1594,1231,c),
(594,1231,l),
(594,828,o),
(818,605,o),
(1095,605,cs)
);
}
);
width = 2000;
},
{
anchors = (
{
name = _attachment;
pos = (1095,605);
}
);
layerId = "6553A8EE-D982-49E3-AD79-1FB562774AD6";
shapes = (
{
attr = {
strokeHeight = 300;
strokeWidth = 400;
};
closed = 1;
nodes = (
(1371,605,o),
(1618,828,o),
(1618,1231,c),
(570,1231,l),
(570,828,o),
(818,605,o),
(1095,605,cs)
);
}
);
width = 2000;
}
);
}
{
glyphname = .notdef;
layers = (
{
layerId = m01;
shapes = (
{
closed = 1;
nodes = (
(408,0,l),
(1591,0,l),
(1591,1490,l),
(408,1490,l)
);
},
{
closed = 1;
nodes = (
(1000,628,l),
(646,274,l),
(530,390,l),
(884,744,l),
(530,1098,l),
(646,1216,l),
(1000,861,l),
(1354,1216,l),
(1470,1098,l),
(1116,744,l),
(1470,390,l),
(1354,274,l)
);
}
);
width = 2000;
}
);
}
{
export = 0;
glyphname = "_pali-sp.head";
layers = (
{
anchors = (
{
name = _attachment;
pos = (1114,583);
}
);
layerId = "6D287F59-47E8-4638-B138-818E25D25DE1";
shapes = (
{
closed = 1;
nodes = (
(1342,560,o),
(1521,755,o),
(1521,1004,cs),
(1521,1255,o),
(1342,1453,o),
(1114,1453,cs),
(886,1453,o),
(707,1255,o),
(707,1004,cs),
(707,755,o),
(886,560,o),
(1114,560,cs)
);
},
{
closed = 1;
nodes = (
(912,606,o),
(753,781,o),
(753,1004,cs),
(753,1230,o),
(912,1407,o),
(1114,1407,cs),
(1316,1407,o),
(1475,1230,o),
(1475,1004,cs),
(1475,781,o),
(1316,606,o),
(1114,606,cs)
);
}
);
width = 2000;
},
{
anchors = (
{
name = _attachment;
pos = (1114,587);
}
);
layerId = m01;
shapes = (
{
closed = 1;
nodes = (
(1387,507,o),
(1578,714,o),
(1578,1008,cs),
(1578,1304,o),
(1387,1514,o),
(1114,1514,cs),
(841,1514,o),
(650,1304,o),
(650,1008,cs),
(650,714,o),
(841,507,o),
(1114,507,cs)
);
},
{
closed = 1;
nodes = (
(944,667,o),
(810,817,o),
(810,1008,cs),
(810,1202,o),
(944,1354,o),
(1114,1354,cs),
(1284,1354,o),
(1418,1202,o),
(1418,1008,cs),
(1418,817,o),
(1284,667,o),
(1114,667,cs)
);
}
);
width = 2000;
},
{
anchors = (
{
name = _attachment;
pos = (1114,595);
}
);
layerId = "6553A8EE-D982-49E3-AD79-1FB562774AD6";
shapes = (
{
closed = 1;
nodes = (
(1468,445,o),
(1746,696,o),
(1746,1016,cs),
(1746,1339,o),
(1468,1592,o),
(1114,1592,cs),
(760,1592,o),
(482,1339,o),
(482,1016,cs),
(482,696,o),
(760,445,o),
(1114,445,cs)
);
},
{
closed = 1;
nodes = (
(984,745,o),
(882,864,o),
(882,1016,cs),
(882,1171,o),
(984,1292,o),
(1114,1292,cs),
(1244,1292,o),
(1346,1171,o),
(1346,1016,cs),
(1346,864,o),
(1244,745,o),
(1114,745,cs)
);
}
);
width = 2000;
}
);
}
{
export = 0;
glyphname = _part.bottom_box;
layers = (
{
layerId = m01;
shapes = (
{
closed = 1;
nodes = (
(1305,0,l),
(1305,578,l),
(1119,578,l),
(1119,175,l),
(308,175,l),
(308,578,l),
(122,578,l),
(122,0,l)
);
}
);
width = 1427;
},
{
layerId = "6D287F59-47E8-4638-B138-818E25D25DE1";
shapes = (
{
closed = 1;
nodes = (
(1305,0,l),
(1305,449,l),
(1259,449,l),
(1259,46,l),
(168,46,l),
(168,449,l),
(122,449,l),
(122,0,l)
);
}
);
width = 1427;
}
);
}
{
export = 0;
glyphname = _part.cartouche.vert;
layers = (
{
hints = (
{
name = _cap.butt;
origin = (0,0);
type = Cap;
},
{
name = _cap.butt;
origin = (1,0);
type = Cap;
}
);
layerId = m01;
shapes = (
{
closed = 1;
nodes = (
(1930,-494,l),
(2105,-494,l),
(2105,1985,l),
(1930,1985,l)
);
},
{
closed = 1;
nodes = (
(-105,-494,l),
(70,-494,l),
(70,1985,l),
(-105,1985,l)
);
}
);
width = 2000;
}
);
script = han;
}
{
export = 0;
glyphname = _part.dot;
layers = (
{
layerId = m01;
shapes = (
{
closed = 1;
nodes = (
(324,595,o),
(396,662,o),
(396,745,cs),
(396,828,o),
(324,895,o),
(237,895,cs),
(151,895,o),
(79,828,o),
(79,745,cs),
(79,662,o),
(151,595,o),
(237,595,cs)
);
}
);
width = 475;
}
);
}
{
glyphname = _part.kijetesantakaluCartouche;
layers = (
{
hints = (
{
name = _cap.smallButt;
origin = (0,0);
type = Cap;
},
{
name = _cap.smallButt;
origin = (1,0);
type = Cap;
}
);
layerId = m01;
shapes = (
{
closed = 1;
nodes = (
(2000,1700,l),
(2000,1850,l),
(0,1850,l),
(0,1700,l)
);
},
{
closed = 1;
nodes = (
(2000,-361,l),
(2000,-211,l),
(0,-211,l),
(0,-361,l)
);
},
{
closed = 1;
nodes = (
(1850,-268,l),
(2000,-268,l),
(2000,1724,l),
(1850,1724,l)
);
}
);
width = 2000;
}
);
script = han;
}
{
export = 0;
glyphname = _part.kijetesantakaluCartouche.vert;
layers = (
{
hints = (
{
name = _cap.smallButt;
origin = (0,3);
type = Cap;
},
{
name = _cap.smallButt;
origin = (2,3);
type = Cap;
}
);
layerId = m01;
shapes = (
{
closed = 1;
nodes = (
(2083,-494,l),
(2083,1984,l),
(1933,1984,l),
(1933,-494,l)
);
},
{
closed = 1;
nodes = (
(1942,-384,l),
(1931,-234,l),
(41,-234,l),
(41,-384,l)
);
},
{
closed = 1;
nodes = (
(66,-494,l),
(66,1984,l),
(-84,1984,l),
(-84,-494,l)
);
}
);
width = 2000;
}
);
script = han;
}
{
export = 0;
glyphname = _part.kule_radical;
layers = (
{
anchors = (
{
name = peak;
pos = (1000,762);
}
);
background = {
shapes = (
{
closed = 0;
nodes = (
(941,788,l),
(941,802,l),
(895,802,l)
);
},
{
closed = 0;
nodes = (
(1105,802,l),
(1059,802,l),
(1059,788,l)
);
}
);
};
layerId = "6D287F59-47E8-4638-B138-818E25D25DE1";
shapes = (
{
closed = 1;
nodes = (
(1474,158,l),
(526,158,l),
(941,788,l),
(1059,788,l)
);
},
{
closed = 1;
nodes = (
(1566,112,l),
(1105,802,l),
(895,802,l),
(434,112,l)
);
}
);
width = 2000;
},
{
anchors = (
{
name = peak;
pos = (1000,688);
}
);
layerId = m01;
shapes = (
{
closed = 1;
nodes = (
(1316,231,l),
(684,231,l),
(1057,636,l),
(943,636,l)
);
},
{
closed = 1;
nodes = (
(1724,55,l),
(1105,728,l),
(895,728,l),
(276,55,l)
);
}
);
width = 2000;
},
{
anchors = (
{
name = peak;
pos = (1000,725);
}
);
layerId = "6553A8EE-D982-49E3-AD79-1FB562774AD6";
shapes = (
{
closed = 1;
nodes = (
(1184,293,l),
(816,293,l),
(1114,662,l),
(886,662,l)
);
},
{
closed = 1;
nodes = (
(1852,-7,l),
(1232,781,l),
(768,781,l),
(148,-7,l)
);
}
);
width = 2000;
}
);
script = han;
}
{
export = 0;
glyphname = _part.pronoun;
layers = (
{
layerId = m01;
shapes = (
{
closed = 1;
nodes = (
(310,1491,o),
(112,1286,o),
(112,998,cs),
(112,857,o),
(188,562,o),
(413,-19,c),
(578,-19,l),
(328,708,l),
(310,708,l),
(350,624,o),
(490,556,o),
(610,556,cs),
(881,556,o),
(1059,735,o),
(1059,1013,cs),
(1059,1290,o),
(859,1491,o),
(586,1491,cs)
);
},
{
closed = 1;
nodes = (
(757,1328,o),
(878,1195,o),
(878,1013,cs),
(878,826,o),
(757,698,o),
(586,698,cs),
(414,698,o),
(292,826,o),
(292,1009,cs),
(292,1195,o),
(413,1328,o),
(586,1328,cs)
);
}
);
width = 1171;
}
);
}
{
export = 0;
glyphname = _part.side_box;
layers = (
{
layerId = m01;
shapes = (
{
closed = 1;
nodes = (
(815,0,l),
(815,1490,l),
(112,1490,l),
(112,1315,l),
(629,1315,l),
(629,175,l),
(112,175,l),
(112,0,l)
);
}
);
width = 927;
}
);
}
{
export = 0;
glyphname = _part.smallLuka;
layers = (
{
anchors = (
{
name = attachment;
pos = (1095,626);
}
);
layerId = m01;
shapes = (
{
closed = 1;
nodes = (
(786,0,l),
(786,333,o),
(889,507,o),
(1095,507,cs),
(1301,507,o),
(1404,337,o),
(1404,0,c),
(1590,0,l),
(1590,438,o),
(1425,658,o),
(1095,658,cs),
(815,658,o),
(654,498,o),
(611,187,c),
(476,413,l),
(346,283,l),
(511,0,l)
);
}
);
width = 2000;
},
{
anchors = (
{
name = attachment;
pos = (1007,590);
}
);
layerId = "6D287F59-47E8-4638-B138-818E25D25DE1";
shapes = (
{
closed = 1;
nodes = (
(584,0,l),
(584,314,o),
(770,560,o),
(1007,560,cs),
(1219,560,o),
(1386,318,o),
(1386,0,c),
(1432,0,l),
(1432,344,o),
(1245,606,o),
(1007,606,cs),
(783,606,o),
(577,379,o),
(538,90,c),
(384,321,l),
(352,287,l),
(538,0,l)
);
}
);
width = 2000;
},
{
anchors = (
{
name = attachment;
pos = (1102,637);
}
);
layerId = "6553A8EE-D982-49E3-AD79-1FB562774AD6";
shapes = (
{
closed = 1;
nodes = (
(875,-56,l),
(875,222,o),
(961,377,o),
(1102,377,cs),
(1252,377,o),
(1329,222,o),
(1329,-56,c),
(1729,-56,l),
(1729,414,o),
(1502,677,o),
(1102,677,cs),
(814,677,o),
(627,510,o),
(573,211,c),
(454,451,l),
(188,337,l),
(375,-56,l)
);
}
);
width = 2000;
}
);
script = han;
}
{
export = 0;
glyphname = _part.small_ilo;
layers = (
{
anchors = (
{
name = _attachment;
pos = (1045,616);
}
);
layerId = "6D287F59-47E8-4638-B138-818E25D25DE1";
shapes = (
{
closed = 1;
nodes = (
(1068,616,l),
(1068,842,l),
(1606,842,l),
(1606,1458,l),
(483,1458,l),
(483,842,l),
(1022,842,l),
(1022,616,l)
);
},
{
closed = 1;
nodes = (
(529,1412,l),
(1022,1412,l),
(1022,888,l),
(529,888,l)
);
},
{
closed = 1;
nodes = (
(1068,1412,l),
(1560,1412,l),
(1560,888,l),
(1068,888,l)
);
}
);
width = 2000;
},
{
anchors = (
{
name = _attachment;
pos = (1045,512);
}
);
layerId = m01;
shapes = (
{
closed = 1;
nodes = (
(1138,512,l),
(1138,745,l),
(1676,746,l),
(1676,1490,l),
(413,1490,l),
(413,746,l),
(952,745,l),
(952,512,l)
);
},
{
closed = 1;
nodes = (
(599,1315,l),
(952,1315,l),
(952,921,l),
(599,921,l)
);
},
{
closed = 1;
nodes = (
(1138,1315,l),
(1490,1315,l),
(1490,921,l),
(1138,921,l)
);
}
);
width = 2000;
},
{
anchors = (
{
name = _attachment;
pos = (891,624);
}
);
layerId = "6553A8EE-D982-49E3-AD79-1FB562774AD6";
shapes = (
{
closed = 1;
nodes = (
(1091,624,l),
(1091,795,l),
(1669,796,l),
(1669,1665,l),
(112,1665,l),
(112,796,l),
(691,795,l),
(691,624,l)
);
},
{
closed = 1;
nodes = (
(512,1365,l),
(691,1365,l),
(691,1095,l),
(512,1095,l)
);
},
{
closed = 1;
nodes = (
(1091,1365,l),
(1269,1365,l),
(1269,1095,l),
(1091,1095,l)
);
}
);
width = 1781;
}
);
script = han;
}
{
glyphname = _part.tally1;
layers = (
{
layerId = m01;
shapes = (
{
closed = 1;
nodes = (
(900,-549,l),
(1100,-549,l),
(1100,-9,l),
(900,-9,l)
);
}
);
width = 2000;
}
);
script = han;
}
{
export = 0;
glyphname = _part.tally2;
layers = (
{
layerId = m01;
shapes = (
{
closed = 1;
nodes = (
(700,-549,l),
(900,-549,l),
(900,-9,l),
(700,-9,l)
);
},
{
closed = 1;
nodes = (
(1100,-549,l),
(1300,-549,l),
(1300,-9,l),
(1100,-9,l)
);
}
);
width = 2000;
}
);
}
{
export = 0;
glyphname = _part.tally3;
layers = (
{
layerId = m01;
shapes = (
{
closed = 1;
nodes = (
(500,-549,l),
(700,-549,l),
(700,-9,l),
(500,-9,l)
);
},
{
closed = 1;
nodes = (
(900,-549,l),
(1100,-549,l),
(1100,-9,l),
(900,-9,l)
);
},
{
closed = 1;
nodes = (
(1300,-549,l),
(1500,-549,l),
(1500,-9,l),
(1300,-9,l)
);
}
);
width = 2000;
}
);
}
{
export = 0;
glyphname = _part.tally4;
layers = (
{
layerId = m01;
shapes = (
{
closed = 1;
nodes = (
(300,-549,l),
(500,-549,l),
(500,-9,l),
(300,-9,l)
);
},
{
closed = 1;
nodes = (
(700,-549,l),
(900,-549,l),
(900,-9,l),
(700,-9,l)
);
},
{
closed = 1;
nodes = (
(1100,-549,l),
(1300,-549,l),
(1300,-9,l),
(1100,-9,l)
);
},
{
closed = 1;
nodes = (
(1500,-549,l),
(1700,-549,l),
(1700,-9,l),
(1500,-9,l)
);
}
);
width = 2000;
}
);
}
{
export = 0;
glyphname = _part.tally5;
layers = (
{
layerId = m01;
shapes = (
{
closed = 1;
nodes = (
(1900,-606,l),
(1900,-322,l),
(1700,-322,l),
(1700,-606,l)
);
},
{
closed = 1;
nodes = (
(300,-606,l),
(300,-322,l),
(100,-322,l),
(100,-606,l)
);
},
{
closed = 1;
nodes = (
(700,-606,l),
(700,-322,l),
(500,-322,l),
(500,-606,l)
);
},
{
closed = 1;
nodes = (
(1100,-606,l),
(1100,-322,l),
(900,-322,l),
(900,-606,l)
);
},
{
closed = 1;
nodes = (
(1500,-606,l),
(1500,-322,l),
(1300,-322,l),
(1300,-606,l)
);
}
);
width = 2000;
}
);
script = han;
}
{
export = 0;
glyphname = _part.walking;
layers = (
{
layerId = m01;
shapes = (
{
closed = 1;
nodes = (
(625,0,l),
(625,1151,l),
(1183,427,l),
(848,124,l),
(978,0,l),
(1443,427,l),
(619,1490,l),
(440,1330,l),
(440,176,l),
(112,176,l),
(112,0,l)
);
}
);
width = 1555;
}
);
}
{
export = 0;
glyphname = "_pasila-sp.bowl";
layers = (
{
anchors = (
{
name = _attachment;
pos = (1104,594);
}
);
layerId = m01;
shapes = (
{
attr = {
strokeHeight = 176;
strokeWidth = 186;
};
closed = 0;
nodes = (
(648,1439,l),
(648,1008,l),
(648,848,o),
(776,593,o),
(1104,594,cs),
(1432,595,o),
(1560,851,o),
(1560,1008,c),
(1560,1437,l)
);
}
);
width = 2000;
},
{
anchors = (
{
name = _attachment;
pos = (1104,583);
}
);
layerId = "6D287F59-47E8-4638-B138-818E25D25DE1";
shapes = (
{
attr = {
strokeHeight = 46;
strokeWidth = 46;
};
closed = 0;
nodes = (
(648,1428,l),
(648,997,l),
(648,837,o),
(776,582,o),
(1104,583,cs),
(1432,584,o),
(1560,840,o),
(1560,997,c),
(1560,1426,l)
);
}
);
width = 2000;
},
{
anchors = (
{
name = _attachment;
pos = (1104,594);
}
);
layerId = "6553A8EE-D982-49E3-AD79-1FB562774AD6";
shapes = (
{
attr = {
strokeHeight = 300;
strokeWidth = 400;
};
closed = 0;
nodes = (
(648,1439,l),
(648,1008,l),
(648,848,o),
(776,593,o),
(1104,594,cs),
(1432,595,o),
(1560,851,o),
(1560,1008,c),
(1560,1437,l)
);
}
);
width = 2000;
}
);
}
{
glyphname = _tally1.vert;
layers = (
{
layerId = m01;
shapes = (
{
closed = 1;
nodes = (
(2412,3123,l),
(2412,3323,l),
(2000,3323,l),
(2000,3123,l)
);
}
);
vertWidth = 0;
width = 2000;
}
);
script = han;
}
{
glyphname = cartouche;
layers = (
{
hints = (
{
name = _cap.butt;
origin = (0,0);
type = Cap;
},
{
name = _cap.butt;
origin = (1,0);
type = Cap;
}
);
layerId = m01;
shapes = (
{
closed = 1;
nodes = (
(0,1675,l),
(0,1850,l),
(-2000,1850,l),
(-2000,1675,l)
);
},
{
closed = 1;
nodes = (
(0,-360,l),
(0,-185,l),
(-2000,-185,l),
(-2000,-360,l)
);
}
);
width = 0;
},
{
hints = (
{
name = _cap.butt;
origin = (1,0);
type = Cap;
},
{
name = _cap.butt;
origin = (0,0);
type = Cap;
}
);
layerId = "6D287F59-47E8-4638-B138-818E25D25DE1";
shapes = (
{
closed = 1;
nodes = (
(0,1740,l),
(0,1786,l),
(-2000,1786,l),
(-2000,1740,l)
);
},
{
closed = 1;
nodes = (
(0,-295,l),
(0,-249,l),
(-2000,-249,l),
(-2000,-295,l)
);
}
);
width = 0;
},
{
hints = (
{
name = _cap.butt;
origin = (0,0);
type = Cap;
},
{
name = _cap.butt;
origin = (1,0);
type = Cap;
}
);
layerId = "6553A8EE-D982-49E3-AD79-1FB562774AD6";
shapes = (
{
closed = 1;
nodes = (
(0,1613,l),
(0,1913,l),
(-2000,1913,l),
(-2000,1613,l)
);
},
{
closed = 1;
nodes = (
(0,-422,l),
(0,-122,l),
(-2000,-122,l),
(-2000,-422,l)
);
}
);
width = 0;
}
);
script = han;
}
{
glyphname = cartouche.kijetesantakalu;
layers = (
{
hints = (
{
name = _cap.smallButt;
origin = (0,0);
type = Cap;
},
{
name = _cap.smallButt;
origin = (1,0);
type = Cap;
}
);
layerId = m01;
shapes = (
{
closed = 1;
nodes = (
(0,1700,l),
(0,1850,l),
(-2000,1850,l),
(-2000,1700,l)
);
},
{
closed = 1;
nodes = (
(0,-361,l),
(0,-211,l),
(-2000,-211,l),
(-2000,-361,l)
);
},
{
closed = 1;
nodes = (
(0,-268,l),
(0,1724,l),
(-150,1724,l),
(-150,-268,l)
);
}
);
width = 0;
}
);
script = han;
}
{
glyphname = cartouche.kijetesantakalu.vert;
layers = (
{
hints = (
{
name = _cap.smallButt;
origin = (0,3);
type = Cap;
},
{
name = _cap.smallButt;
origin = (2,3);
type = Cap;
}
);
layerId = m01;
shapes = (
{
closed = 1;
nodes = (
(2083,1984,l),
(2083,4462,l),
(1933,4462,l),
(1933,1984,l)
);
},
{
closed = 1;
nodes = (
(1942,2094,l),
(1931,2244,l),
(41,2244,l),
(41,2094,l)
);
},
{
closed = 1;
nodes = (
(66,1984,l),
(66,4462,l),
(-84,4462,l),
(-84,1984,l)
);
}
);
vertWidth = 0;
width = 2000;
},
{
hints = (
{
name = _cap.smallButt;
options = 8;
origin = (0,3);
type = Cap;
},
{
name = _cap.smallButt;
options = 8;
origin = (2,3);
type = Cap;
}
);
layerId = "6D287F59-47E8-4638-B138-818E25D25DE1";
shapes = (
{
closed = 1;
nodes = (
(2031,1984,l),
(2031,4462,l),
(1985,4462,l),
(1985,1984,l)
);
},
{
closed = 1;
nodes = (
(2004,2146,l),
(1993,2192,l),
(1,2192,l),
(1,2146,l)
);
},
{
closed = 1;
nodes = (
(14,1984,l),
(14,4462,l),
(-32,4462,l),
(-32,1984,l)
);
}
);
vertWidth = 0;
width = 2000;
}
);
script = han;
}
{
glyphname = cartouche.vert;
layers = (
{
hints = (
{
name = _cap.butt;
origin = (0,3);
type = Cap;
},
{
name = _cap.butt;
origin = (1,3);
type = Cap;
}
);
layerId = m01;
shapes = (
{
closed = 1;
nodes = (
(2105,1984,l),
(2105,4463,l),
(1930,4463,l),
(1930,1984,l)
);
},
{
closed = 1;
nodes = (
(70,1984,l),
(70,4463,l),
(-105,4463,l),
(-105,1984,l)
);
}
);
vertWidth = 0;
width = 2000;
},
{
hints = (
{
name = _cap.butt;
options = 8;
origin = (0,3);
type = Cap;
},
{
name = _cap.butt;
options = 8;
origin = (1,3);
type = Cap;
}
);
layerId = "6D287F59-47E8-4638-B138-818E25D25DE1";
shapes = (
{
closed = 1;
nodes = (
(2041,1984,l),
(2041,4463,l),
(1995,4463,l),
(1995,1984,l)
);
},
{
closed = 1;
nodes = (
(6,1984,l),
(6,4463,l),
(-40,4463,l),
(-40,1984,l)
);
}
);
vertWidth = 0;
width = 2000;
},
{
layerId = "6553A8EE-D982-49E3-AD79-1FB562774AD6";
width = 2000;
}
);
script = han;
}
{
glyphname = "cartoucheend-sp.vert";
layers = (
{
layerId = m01;
shapes = (
{
closed = 1;
nodes = (
(1420,705,ls),
(1810,705,o),
(2105,1002,o),
(2105,1401,cs),
(2105,1984,l),
(1930,1984,l),
(1930,1401,ls),
(1930,1106,o),
(1715,891,o),
(1420,891,cs),
(580,891,ls),
(285,891,o),
(70,1106,o),
(70,1401,cs),
(70,1984,l),
(-105,1984,l),
(-105,1401,ls),
(-105,1002,o),
(190,705,o),
(580,705,cs)
);
}
);
width = 2048;
}
);
}
{
glyphname = "cartouchestart-sp.vert";
layers = (
{
hints = (
{
name = _cap.butt;
origin = (0,19);
type = Cap;
},
{
name = _cap.butt;
origin = (0,9);
type = Cap;
}
);
layerId = m01;
shapes = (
{
closed = 1;
nodes = (
(70,-494,l),
(70,89,ls),
(70,384,o),
(285,599,o),
(580,599,cs),
(1420,599,ls),
(1715,599,o),
(1930,384,o),
(1930,89,cs),
(1930,-494,l),
(2105,-494,l),
(2105,89,ls),
(2105,488,o),
(1810,785,o),
(1420,785,cs),
(580,785,ls),
(190,785,o),
(-105,488,o),
(-105,89,cs),
(-105,-494,l)
);
}
);
width = 2000;
},
{
hints = (
{
name = _cap.butt;
origin = (0,19);
type = Cap;
},
{
name = _cap.butt;
origin = (0,9);
type = Cap;
}
);
layerId = "6D287F59-47E8-4638-B138-818E25D25DE1";
shapes = (
{
closed = 1;
nodes = (
(6,-494,l),
(6,89,ls),
(6,414,o),
(259,669,o),
(580,669,cs),
(1420,669,ls),
(1742,669,o),
(1995,414,o),
(1995,89,cs),
(1995,-494,l),
(2041,-494,l),
(2041,89,ls),
(2041,440,o),
(1768,715,o),
(1420,715,cs),
(580,715,ls),
(233,715,o),
(-40,440,o),
(-40,89,cs),
(-40,-494,l)
);
}
);
width = 2000;
},
{
hints = (
{
name = _cap.butt;
options = 8;
origin = (0,9);
type = Cap;
},
{
name = _cap.butt;
options = 10;
origin = (0,19);
type = Cap;
}
);
layerId = "6553A8EE-D982-49E3-AD79-1FB562774AD6";
shapes = (
{
closed = 1;
nodes = (
(183,-494,l),
(183,89,ls),
(183,343,o),
(358,542,o),
(580,542,cs),
(1420,542,ls),
(1643,542,o),
(1818,343,o),
(1818,89,cs),
(1818,-494,l),
(2218,-494,l),
(2218,89,ls),
(2218,511,o),
(1867,842,o),
(1420,842,cs),
(580,842,ls),
(134,842,o),
(-217,511,o),
(-217,89,cs),
(-217,-494,l)
);
}
);
width = 2000;
}
);
}
{
glyphname = "kijetesantakalu-sp.end";
layers = (
{
layerId = m01;
shapes = (
{
attr = {
strokeHeight = 150;
strokeWidth = 150;
};
closed = 0;
nodes = (
(0,1775,l),
(490,1775,o),
(304,214,o),
(1200,214,c),
(1502,214,l),
(1619,214,o),
(1711,104,o),
(1711,-36,c),
(1711,-176,o),
(1619,-286,o),
(1502,-286,c),
(960,-286,l),
(0,-286,l)
);
},
{
attr = {
strokeHeight = 150;
strokeWidth = 150;
};
closed = 0;
nodes = (
(1372,-248,l),
(1372,185,l)
);
}
);
width = 2000;
},
{
layerId = "6D287F59-47E8-4638-B138-818E25D25DE1";
shapes = (
{
attr = {
strokeHeight = 46;
strokeWidth = 46;
};
closed = 0;
nodes = (
(0,1775,l),
(490,1775,o),
(304,214,o),
(1200,214,c),
(1502,214,l),
(1619,214,o),
(1711,104,o),
(1711,-36,c),
(1711,-176,o),
(1619,-286,o),
(1502,-286,c),
(960,-286,l),
(0,-286,l)
);
},
{
attr = {
strokeHeight = 46;
strokeWidth = 46;
};
closed = 0;
nodes = (
(1372,-278,l),
(1372,215,l)
);
}
);
width = 2000;
}
);
}
{
glyphname = "kijetesantakalu-sp.end.vert";
layers = (
{
layerId = m01;
shapes = (
{
attr = {
strokeHeight = 150;
strokeWidth = 150;
};
closed = 0;
nodes = (
(2008,1984,l),
(2008,1494,o),
(469,1680,o),
(469,784,c),
(469,482,l),
(469,365,o),
(359,273,o),
(219,273,c),
(79,273,o),
(-9,365,o),
(-9,482,c),
(-9,1024,l),
(-9,1984,l)
);
},
{
attr = {
strokeHeight = 150;
strokeWidth = 150;
};
closed = 0;
nodes = (
(29,612,l),
(440,612,l)
);
}
);
width = 2000;
},
{
layerId = "6D287F59-47E8-4638-B138-818E25D25DE1";
shapes = (
{
attr = {
strokeHeight = 46;
strokeWidth = 46;
};
closed = 0;
nodes = (
(2008,1984,l),
(2008,1494,o),
(469,1680,o),
(469,784,c),
(469,482,l),
(469,365,o),
(359,273,o),
(219,273,c),
(79,273,o),
(-9,365,o),
(-9,482,c),
(-9,1024,l),
(-9,1984,l)
);
},
{
attr = {
strokeHeight = 46;
strokeWidth = 46;
};
closed = 0;
nodes = (
(7,612,l),
(462,612,l)
);
}
);
width = 2000;
},
{
layerId = "6553A8EE-D982-49E3-AD79-1FB562774AD6";
shapes = (
{
attr = {
strokeHeight = 300;
strokeWidth = 300;
};
closed = 0;
nodes = (
(1997,1984,l),
(1997,1494,o),
(458,1680,o),
(458,784,c),
(458,482,l),
(458,365,o),
(348,273,o),
(208,273,c),
(68,273,o),
(-20,365,o),
(-20,482,c),
(-20,1024,l),
(-20,1984,l)
);
},
{
attr = {
strokeHeight = 300;
strokeWidth = 300;
};
closed = 0;
nodes = (
(18,740,l),
(429,740,l)
);
}
);
width = 2000;
}
);
}
{
glyphname = "kijetesantakalu-sp.start";
layers = (
{
background = {
shapes = (
{
attr = {
lineCapStart = "3";
strokeHeight = 150;
strokeWidth = 150;
};
closed = 0;
nodes = (
(287,6,l),
(287,785,l),
(32,1054,l),
(319,1293,l),
(319,1495,l),
(776,1495,o),
(1138,1190,o),
(1138,802,cs),
(1138,506,l),
(1440,506,l),
(1440,1575,ls),
(1440,1705,o),
(1510,1775,o),
(1640,1775,cs),
(2000,1775,l)
);
},
{
attr = {
lineCapStart = "3";
strokeHeight = 150;
strokeWidth = 150;
};
closed = 0;
nodes = (
(592,6,l),
(592,257,l)
);
},
{
attr = {
lineCapStart = "3";
strokeHeight = 154;
strokeWidth = 150;
};
closed = 0;
nodes = (
(1013,257,l),
(898,6,l),
(1440,6,l),
(1440,-86,ls),
(1440,-216,o),
(1510,-286,o),
(1640,-286,cs),
(2000,-286,l)
);
},
{
attr = {
strokeHeight = 150;
strokeWidth = 150;
};
closed = 0;
nodes = (
(1280,51,l),
(1280,456,l)
);
}
);
};
hints = (
{
name = _cap.smallButt;
origin = (0,14);
type = Cap;
},
{
name = _cap.smallButt;
origin = (2,0);
type = Cap;
}
);
layerId = m01;
shapes = (
{
closed = 1;
nodes = (
(362,-69,l),
(362,814.899,l),
(141.457,1047.55,l),
(394,1257.856,l),
(394,1417.255,l),
(784.715,1388.349,o),
(1063,1134.228,o),
(1063,802,c),
(1063,431,l),
(1515,431,l),
(1515,1575,l),
(1515,1673.934,o),
(1541.066,1700,o),
(1640,1700,c),
(2000,1700,l),
(2000,1850,l),
(1640,1850,l),
(1468.534,1850,o),
(1365,1746.466,o),
(1365,1575,c),
(1365,581,l),
(1213,581,l),
(1213,802,l),
(1213,1255.658,o),
(774.239,1603.31,o),
(244,1567.457,c),
(244,1328.144,l),
(-77.457,1060.45,l),
(212,755.101,l),
(212,-69,l)
);
},
{
closed = 1;
nodes = (
(667,-69,l),
(667,257,l),
(517,257,l),
(517,-69,l)
);
},
{
closed = 1;
nodes = (
(2000,-363,l),
(2000,-209,l),
(1640,-209,l),
(1540.48,-209,o),
(1515,-183.52,o),
(1515,-86,c),
(1515,83,l),
(1016.158,83,l),
(1112.57,293.43,l),
(976.202,357.576,l),
(779.842,-71,l),
(1365,-71,l),
(1365,-86,l),
(1365,-259.08,o),
(1468.92,-363,o),
(1640,-363,c)
);
},
{
alignment = -1;
pos = (1286,445);
ref = "interpunct-sp";
scale = (-0.7976,0.7976);
},
{
closed = 1;
nodes = (
(1355,51,l),
(1355,456,l),
(1205,456,l),
(1205,51,l)
);
},
{
alignment = -1;
pos = (1569,445);
ref = "interpunct-sp";
scale = (-0.7976,0.7976);
},
{
closed = 1;
nodes = (
(2000,-222,l),
(2000,1762,l),
(1850,1762,l),
(1850,-222,l)
);
}
);
width = 2000;
},
{
hints = (
{
name = _cap.smallButt;
origin = (0,14);
type = Cap;
},
{
name = _cap.smallButt;
origin = (2,0);
type = Cap;
}
);
layerId = "6D287F59-47E8-4638-B138-818E25D25DE1";
shapes = (
{
closed = 1;
nodes = (
(310,-17,l),
(310,794.169,l),
(65.567,1052.022,l),
(342,1282.223,l),
(342,1471.743,l),
(779.421,1461.931,o),
(1115,1172.83,o),
(1115,802,c),
(1115,483,l),
(1463,483,l),
(1463,1575,l),
(1463,1695.473,o),
(1519.527,1752,o),
(1640,1752,c),
(2000,1752,l),
(2000,1798,l),
(1640,1798,l),
(1497.273,1798,o),
(1417,1717.727,o),
(1417,1575,c),
(1417,529,l),
(1161,529,l),
(1161,802,l),
(1161,1210.25,o),
(775.108,1528.232,o),
(296,1517.748,c),
(296,1303.777,l),
(-1.567,1055.978,l),
(264,775.831,l),
(264,-17,l)
);
},
{
closed = 1;
nodes = (
(615,-17,l),
(615,257,l),
(569,257,l),
(569,-17,l)
);
},
{
closed = 1;
nodes = (
(2000,-309,l),
(2000,-263,l),
(1640,-263,l),
(1519.527,-263,o),
(1463,-206.473,o),
(1463,-86,c),
(1463,29,l),
(933.837,29,l),
(1043.49,268.33,l),
(1001.67,287.49,l),
(862.163,-17,l),
(1417,-17,l),
(1417,-86,l),
(1417,-228.727,o),
(1497.273,-309,o),
(1640,-309,c)
);
},
{
alignment = -1;
pos = (1286,445);
ref = "interpunct-sp";
scale = (-0.7976,0.7976);
},
{
closed = 1;
nodes = (
(1303,7,l),
(1303,500,l),
(1257,500,l),
(1257,7,l)
);
},
{
alignment = -1;
pos = (1569,445);
ref = "interpunct-sp";
scale = (-0.7976,0.7976);
},
{
closed = 1;
nodes = (
(1948,-273,l),
(1948,1762,l),
(1902,1762,l),
(1902,-273,l)
);
}
);
width = 2000;
},
{
background = {
shapes = (
{
attr = {
lineCapStart = "3";
strokeHeight = 150;
strokeWidth = 150;
};
closed = 0;
nodes = (
(287,6,l),
(287,785,l),
(32,1054,l),
(319,1293,l),
(319,1495,l),
(776,1495,o),
(1138,1190,o),
(1138,802,cs),
(1138,506,l),
(1440,506,l),
(1440,1575,ls),
(1440,1705,o),
(1510,1775,o),
(1640,1775,cs),
(2000,1775,l)
);
},
{
attr = {
lineCapStart = "3";
strokeHeight = 150;
strokeWidth = 150;
};
closed = 0;
nodes = (
(592,6,l),
(592,257,l)
);
},
{
attr = {
lineCapStart = "3";
strokeHeight = 154;
strokeWidth = 150;
};
closed = 0;
nodes = (
(1013,257,l),
(898,6,l),
(1440,6,l),
(1440,-86,ls),
(1440,-216,o),
(1510,-286,o),
(1640,-286,cs),
(2000,-286,l)
);
},
{
attr = {
strokeHeight = 150;
strokeWidth = 150;
};
closed = 0;
nodes = (
(1280,51,l),
(1280,456,l)
);
}
);
};
hints = (
{
name = _cap.smallButt;
origin = (0,14);
type = Cap;
},
{
name = _cap.smallButt;
origin = (2,0);
type = Cap;
}
);
layerId = "6553A8EE-D982-49E3-AD79-1FB562774AD6";
shapes = (
{
closed = 1;
nodes = (
(437,-144,l),
(437,844.798,l),
(250.914,1041.101,l),
(469,1222.712,l),
(469,1331.869,l),
(773.487,1277.29,o),
(988,1059.156,o),
(988,802,c),
(988,356,l),
(1590,356,l),
(1590,1575,l),
(1590,1620.868,o),
(1594.132,1625,o),
(1640,1625,c),
(2000,1625,l),
(2000,1925,l),
(1640,1925,l),
(1427,1925,o),
(1290,1788,o),
(1290,1575,c),
(1290,656,l),
(1288,656,l),
(1288,802,l),
(1288,1323.208,o),
(768.469,1711.591,o),
(169,1635.448,c),
(169,1363.288,l),
(-186.914,1066.899,l),
(137,725.202,l),
(137,-144,l)
);
},
{
closed = 1;
nodes = (
(742,-144,l),
(742,257,l),
(442,257,l),
(442,-144,l)
);
},
{
closed = 1;
nodes = (
(2000,-436,l),
(2000,-136,l),
(1640,-136,l),
(1594.132,-136,o),
(1590,-131.868,o),
(1590,-86,c),
(1590,156,l),
(1131.719,156,l),
(1211.848,330.889,l),
(939.111,455.848,l),
(664.281,-144,l),
(1290,-144,l),
(1290,-86,l),
(1290,-299,o),
(1427,-436,o),
(1640,-436,c)
);
},
{
alignment = -1;
pos = (1286,445);
ref = "interpunct-sp";
scale = (-0.7976,0.7976);
},
{
closed = 1;
nodes = (
(1430,51,l),
(1430,456,l),
(1130,456,l),
(1130,51,l)
);
},
{
alignment = -1;
pos = (1569,445);
ref = "interpunct-sp";
scale = (-0.7976,0.7976);
},
{
closed = 1;
nodes = (
(2000,-222,l),
(2000,1762,l),
(1700,1762,l),
(1700,-222,l)
);
}
);
width = 2000;
}
);
}
{
glyphname = "kijetesantakalu-sp.start.vert";
layers = (
{
background = {
shapes = (
{
attr = {
identifier = ID0x137a2e1d0;
lineCapEnd = "3";
lineCapStart = "4";
strokeHeight = 150;
strokeWidth = 150;
};
closed = 0;
nodes = (
(932,649,l),
(967,398,l),
(687,398,ls),
(569,398,o),
(483,314,o),
(483,199,cs),
(483,84,o),
(569,1,o),
(688,1,cs),
(1220,3,o),
(1997,-17,o),
(1997,-502,c)
);
},
{
alignment = -1;
pos = (579,837);
ref = "interpunct-sp";
scale = (0.7976,0.7976);
},
{
alignment = -1;
pos = (296,837);
ref = "interpunct-sp";
scale = (0.7976,0.7976);
},
{
attr = {
identifier = ID0x137a2e1d0;
lineCapStart = "3";
strokeHeight = 150;
strokeWidth = 150;
};
closed = 0;
nodes = (
(1273,398,l),
(1273,649,l)
);
},
{
attr = {
identifier = ID0x137a2e1d0;
strokeHeight = 150;
strokeWidth = 150;
};
closed = 0;
nodes = (
(727,465,l),
(727,898,l)
);
},
{
attr = {
identifier = ID0x137a2e1d0;
lineCapEnd = "3";
lineCapStart = "3";
strokeHeight = 150;
strokeWidth = 150;
};
closed = 0;
nodes = (
(1578,398,l),
(1578,1177,l),
(1833,1446,l),
(1546,1685,l),
(1546,1887,l),
(1089,1887,o),
(727,1582,o),
(727,1194,cs),
(727,898,l),
(483,898,ls),
(45,898,o),
(-20,303,o),
(-20,-471,c)
);
},
{
attr = {
strokeHeight = 150;
strokeWidth = 150;
};
closed = 0;
nodes = (
(195,708,l),
(503,372,l)
);
},
{
attr = {
strokeHeight = 150;
strokeWidth = 150;
};
closed = 0;
nodes = (
(50,102,l),
(527,102,l)
);
},
{
attr = {
strokeHeight = 150;
strokeWidth = 150;
};
closed = 0;
nodes = (
(41,-392,l),
(1931,-392,l)
);
}
);
};
hints = (
{
name = _cap.smallButt;
origin = (1,25);
type = Cap;
},
{
name = _cap.smallButt;
origin = (0,27);
type = Cap;
}
);
layerId = m01;
shapes = (
{
closed = 1;
nodes = (
(66,-494,l),
(66,-388,ls),
(66,382,o),
(112,823,o),
(483,823,cs),
(802,823,l),
(802,1194,ls),
(802,1526,o),
(1080,1780,o),
(1471,1809,c),
(1471,1650,l),
(1724,1440,l),
(1503,1207,l),
(1503,323,l),
(1653,323,l),
(1653,1147,l),
(1942,1452,l),
(1621,1720,l),
(1621,1959,l),
(1091,1995,o),
(652,1648,o),
(652,1194,cs),
(652,973,l),
(483,973,ls),
(-30,973,o),
(-84,398,o),
(-84,-388,cs),
(-84,-494,l)
);
},
{
closed = 1;
nodes = (
(2083,-494,l),
(2083,-419,ls),
(2083,147,o),
(1224,78,o),
(688,76,cs),
(599,76,o),
(558,116,o),
(558,199,cs),
(558,282,o),
(600,323,o),
(687,323,cs),
(1053,323,l),
(1008,649,l),
(856,649,l),
(881,473,l),
(687,473,ls),
(528,473,o),
(408,356,o),
(408,199,cs),
(408,42,o),
(529,-74,o),
(688,-74,cs),
(1219,-72,o),
(1933,-7,o),
(1933,-419,cs),
(1933,-494,l)
);
},
{
closed = 1;
nodes = (
(1942,-384,l),
(1931,-234,l),
(41,-234,l),
(52,-384,l)
);
},
{
closed = 1;
nodes = (
(527,27,l),
(527,177,l),
(50,177,l),
(50,27,l)
);
},
{
closed = 1;
nodes = (
(558,423,l),
(250,759,l),
(140,657,l),
(448,321,l)
);
},
{
closed = 1;
nodes = (
(802,465,l),
(802,898,l),
(652,898,l),
(652,465,l)
);
},
{
closed = 1;
nodes = (
(1348,323,l),
(1348,649,l),
(1198,649,l),
(1198,323,l)
);
},
{
alignment = -1;
pos = (296,837);
ref = "interpunct-sp";
scale = (0.7976,0.7976);
},
{
alignment = -1;
pos = (579,837);
ref = "interpunct-sp";
scale = (0.7976,0.7976);
}
);
width = 2000;
},
{
background = {
shapes = (
{
attr = {
identifier = ID0x137a2e1d0;
strokeHeight = 46;
strokeWidth = 46;
};
closed = 0;
nodes = (
(727,409,l),
(727,898,l)
);
},
{
attr = {
identifier = ID0x137a2e1d0;
lineCapEnd = "3";
lineCapStart = "4";
strokeHeight = 46;
strokeWidth = 46;
};
closed = 0;
nodes = (
(932,649,l),
(967,398,l),
(687,398,ls),
(569,398,o),
(483,314,o),
(483,199,cs),
(483,84,o),
(569,1,o),
(688,1,cs),
(1220,3,o),
(1997,-17,o),
(1997,-502,c)
);
},
{
attr = {
identifier = ID0x137a2e1d0;
lineCapStart = "3";
strokeHeight = 46;
strokeWidth = 46;
};
closed = 0;
nodes = (
(1273,398,l),
(1273,649,l)
);
},
{
attr = {
identifier = ID0x137a2e1d0;
lineCapEnd = "3";
lineCapStart = "3";
strokeHeight = 46;
strokeWidth = 46;
};
closed = 0;
nodes = (
(1578,398,l),
(1578,1177,l),
(1833,1446,l),
(1546,1685,l),
(1546,1887,l),
(1089,1887,o),
(727,1582,o),
(727,1194,cs),
(727,898,l),
(483,898,ls),
(45,898,o),
(-20,303,o),
(-20,-471,c)
);
},
{
attr = {
strokeHeight = 46;
strokeWidth = 46;
};
closed = 0;
nodes = (
(169,736,l),
(529,344,l)
);
},
{
attr = {
strokeHeight = 46;
strokeWidth = 46;
};
closed = 0;
nodes = (
(2,102,l),
(494,102,l)
);
},
{
attr = {
strokeHeight = 46;
strokeWidth = 46;
};
closed = 0;
nodes = (
(2,-392,l),
(1970,-392,l)
);
}
);
};
hints = (
{
name = _cap.smallButt;
origin = (0,27);
type = Cap;
},
{
name = _cap.smallButt;
origin = (1,25);
type = Cap;
}
);
layerId = "6D287F59-47E8-4638-B138-818E25D25DE1";
shapes = (
{
closed = 1;
nodes = (
(14,-494,l),
(14,-471,ls),
(14,302,o),
(77,875,o),
(494,875,cs),
(761,875,l),
(761,1194,ls),
(761,1565,o),
(1097,1854,o),
(1534,1864,c),
(1534,1674,l),
(1810,1444,l),
(1566,1186,l),
(1566,375,l),
(1612,375,l),
(1612,1168,l),
(1878,1448,l),
(1580,1696,l),
(1580,1910,l),
(1101,1920,o),
(715,1602,o),
(715,1194,cs),
(715,921,l),
(494,921,ls),
(33,921,o),
(-32,307,o),
(-32,-471,cs),
(-32,-494,l)
);
},
{
closed = 1;
nodes = (
(2031,-525,l),
(2031,-502,ls),
(2031,8,o),
(1231,26,o),
(699,24,cs),
(589,24,o),
(517,94,o),
(517,199,cs),
(517,304,o),
(589,375,o),
(698,375,cs),
(1004,375,l),
(966,649,l),
(920,649,l),
(952,421,l),
(698,421,ls),
(568,421,o),
(471,327,o),
(471,199,cs),
(471,71,o),
(568,-22,o),
(699,-22,cs),
(1231,-20,o),
(1985,-39,o),
(1985,-502,cs),
(1985,-525,l)
);
},
{
closed = 1;
nodes = (
(1981,-415,l),
(1981,-369,l),
(13,-369,l),
(13,-415,l)
);
},
{
closed = 1;
nodes = (
(505,79,l),
(505,125,l),
(13,125,l),
(13,79,l)
);
},
{
closed = 1;
nodes = (
(557,360,l),
(197,752,l),
(163,720,l),
(523,328,l)
);
},
{
closed = 1;
nodes = (
(761,409,l),
(761,898,l),
(715,898,l),
(715,409,l)
);
},
{
closed = 1;
nodes = (
(1307,375,l),
(1307,649,l),
(1261,649,l),
(1261,375,l)
);
},
{
alignment = -1;
pos = (307,837);
ref = "interpunct-sp";
scale = (0.7976,0.7976);
},
{
alignment = -1;
pos = (590,837);
ref = "interpunct-sp";
scale = (0.7976,0.7976);
}
);
width = 2000;
},
{
hints = (
{
name = _cap.smallButt;
origin = (1,25);
type = Cap;
},
{
name = _cap.smallButt;
origin = (0,27);
type = Cap;
}
);
layerId = "6553A8EE-D982-49E3-AD79-1FB562774AD6";
shapes = (
{
attr = {
identifier = ID0x137a2e1d0;
};
closed = 1;
nodes = (
(130,-621,l),
(130,-471,l),
(130,280.831,o),
(193.506,748,o),
(483,748,c),
(877,748,l),
(877,1194,l),
(877,1451.156,o),
(1091.513,1669.29,o),
(1396,1723.869,c),
(1396,1614.712,l),
(1614.086,1433.101,l),
(1428,1236.798,l),
(1428,248,l),
(1728,248,l),
(1728,1117.202,l),
(2051.914,1458.899,l),
(1696,1755.288,l),
(1696,2037,l),
(1012.433,2037,o),
(577,1671.162,o),
(577,1194,c),
(577,1048,l),
(483,1048,l),
(-99.506,1048,o),
(-170,325.169,o),
(-170,-471,c),
(-170,-621,l)
);
},
{
attr = {
identifier = ID0x137a2e1d0;
};
closed = 1;
nodes = (
(2147,-652,l),
(2147,-502,l),
(2147,135.189,o),
(1231.648,153.045,o),
(687.718,151,c),
(650.378,151,o),
(633,168.497,o),
(633,199,c),
(633,230.032,o),
(650.901,248,o),
(687,248,c),
(1139.368,248,l),
(1083.451,649,l),
(780.549,649,l),
(794.632,548,l),
(687,548,l),
(486.2,548,o),
(333,396.8,o),
(333,199,c),
(333,1.2,o),
(486.2,-149,o),
(688.282,-149,c),
(1206.352,-147.052,o),
(1847,-175.189,o),
(1847,-502,c),
(1847,-652,l)
);
},
{
closed = 1;
nodes = (
(1931,-542,l),
(1931,-242,l),
(41,-242,l),
(41,-542,l)
);
},
{
closed = 1;
nodes = (
(527,-48,l),
(527,252,l),
(50,252,l),
(50,-48,l)
);
},
{
closed = 1;
nodes = (
(613.573,473.359,l),
(305.573,809.359,l),
(84.427,606.641,l),
(392.427,270.641,l)
);
},
{
attr = {
identifier = ID0x137a2e1d0;
};
closed = 1;
nodes = (
(877,465,l),
(877,898,l),
(577,898,l),
(577,465,l)
);
},
{
attr = {
identifier = ID0x137a2e1d0;
};
closed = 1;
nodes = (
(1423,248,l),
(1423,649,l),
(1123,649,l),
(1123,248,l)
);
},
{
alignment = -1;
pos = (296,837);
ref = "interpunct-sp";
scale = (0.7976,0.7976);
},
{
alignment = -1;
pos = (579,837);
ref = "interpunct-sp";
scale = (0.7976,0.7976);
}
);
width = 2000;
}
);
}
{
glyphname = "meli-sp.ss01";
layers = (
{
layerId = "6D287F59-47E8-4638-B138-818E25D25DE1";
shapes = (
{
attr = {
strokeHeight = 46;
strokeWidth = 46;
};
closed = 1;
nodes = (
(1265,312,o),
(1473,520,o),
(1473,785,cs),
(1473,1050,o),
(1265,1258,o),
(1000,1258,cs),
(735,1258,o),
(527,1050,o),
(527,785,cs),
(527,520,o),
(735,312,o),
(1000,312,cs)
);
},
{
attr = {
strokeHeight = 46;
strokeWidth = 46;
};
closed = 0;
nodes = (
(215,-42,l),
(215,494,l),
(215,1189,o),
(475,1533,o),
(1000,1533,cs),
(1525,1533,o),
(1785,1189,o),
(1785,494,c),
(1785,-42,l)
);
}
);
width = 2000;
},
{
layerId = m01;
shapes = (
{
attr = {
strokeHeight = 176;
strokeWidth = 186;
};
closed = 1;
nodes = (
(1265,312,o),
(1473,520,o),
(1473,785,cs),
(1473,1050,o),
(1265,1258,o),
(1000,1258,cs),
(735,1258,o),
(527,1050,o),
(527,785,cs),
(527,520,o),
(735,312,o),
(1000,312,cs)
);
},
{
attr = {
strokeHeight = 176;
strokeWidth = 186;
};
closed = 0;
nodes = (
(215,-42,l),
(215,494,l),
(215,1189,o),
(475,1533,o),
(1000,1533,cs),
(1525,1533,o),
(1785,1189,o),
(1785,494,c),
(1785,-42,l)
);
}
);
width = 2000;
},
{
layerId = "6553A8EE-D982-49E3-AD79-1FB562774AD6";
shapes = (
{
attr = {
strokeHeight = 300;
strokeWidth = 400;
};
closed = 1;
nodes = (
(1183,459,o),
(1326,602,o),
(1326,785,cs),
(1326,968,o),
(1183,1111,o),
(1000,1111,cs),
(817,1111,o),
(674,968,o),
(674,785,cs),
(674,602,o),
(817,459,o),
(1000,459,cs)
);
},
{
attr = {
strokeHeight = 300;
strokeWidth = 400;
};
closed = 0;
nodes = (
(215,-42,l),
(215,494,l),
(215,1189,o),
(475,1533,o),
(1000,1533,cs),
(1525,1533,o),
(1785,1189,o),
(1785,494,c),
(1785,-42,l)
);
}
);
width = 2000;
}
);
}
{
glyphname = "mije-sp.ss01";
layers = (
{
layerId = "6D287F59-47E8-4638-B138-818E25D25DE1";
shapes = (
{
attr = {
strokeHeight = 46;
strokeWidth = 46;
};
closed = 1;
nodes = (
(1283,412,o),
(1505,634,o),
(1505,917,cs),
(1505,1199,o),
(1283,1421,o),
(1000,1421,cs),
(717,1421,o),
(495,1199,o),
(495,917,cs),
(495,634,o),
(717,412,o),
(1000,412,cs)
);
},
{
attr = {
strokeHeight = 46;
strokeWidth = 46;
};
closed = 0;
nodes = (
(295,-39,l),
(295,412,l),
(1705,412,l),
(1705,-39,l)
);
}
);
width = 2000;
},
{
layerId = m01;
shapes = (
{
attr = {
strokeHeight = 176;
strokeWidth = 186;
};
closed = 1;
nodes = (
(1283,412,o),
(1505,634,o),
(1505,917,cs),
(1505,1199,o),
(1283,1421,o),
(1000,1421,cs),
(717,1421,o),
(495,1199,o),
(495,917,cs),
(495,634,o),
(717,412,o),
(1000,412,cs)
);
},
{
attr = {
strokeHeight = 176;
strokeWidth = 186;
};
closed = 0;
nodes = (
(295,-39,l),
(295,412,l),
(1705,412,l),
(1705,-39,l)
);
}
);
width = 2000;
},
{
layerId = "6553A8EE-D982-49E3-AD79-1FB562774AD6";
shapes = (
{
attr = {
strokeHeight = 300;
strokeWidth = 400;
};
closed = 1;
nodes = (
(1283,412,o),
(1505,634,o),
(1505,917,cs),
(1505,1199,o),
(1283,1421,o),
(1000,1421,cs),
(717,1421,o),
(495,1199,o),
(495,917,cs),
(495,634,o),
(717,412,o),
(1000,412,cs)
);
},
{
attr = {
strokeHeight = 300;
strokeWidth = 400;
};
closed = 0;
nodes = (
(295,-39,l),
(295,412,l),
(1705,412,l),
(1705,-39,l)
);
}
);
width = 2000;
}
);
}
{
glyphname = tally1;
layers = (
{
layerId = m01;
shapes = (
{
closed = 1;
nodes = (
(-900,-606,l),
(-900,-322,l),
(-1100,-322,l),
(-1100,-606,l)
);
}
);
width = 0;
}
);
}
{
glyphname = tally1.vert;
layers = (
{
layerId = m01;
shapes = (
{
closed = 1;
nodes = (
(2412,3123,l),
(2412,3323,l),
(2000,3323,l),
(2000,3123,l)
);
}
);
vertWidth = 0;
width = 2000;
},
{
layerId = "6D287F59-47E8-4638-B138-818E25D25DE1";
width = 600;
}
);
script = han;
}
{
glyphname = tally2;
layers = (
{
layerId = m01;
shapes = (
{
closed = 1;
nodes = (
(-700,-606,l),
(-700,-322,l),
(-900,-322,l),
(-900,-606,l)
);
},
{
closed = 1;
nodes = (
(-1100,-606,l),
(-1100,-322,l),
(-1300,-322,l),
(-1300,-606,l)
);
}
);
width = 0;
},
{
layerId = "6D287F59-47E8-4638-B138-818E25D25DE1";
width = 600;
}
);
}
{
glyphname = tally3;
layers = (
{
layerId = m01;
shapes = (
{
closed = 1;
nodes = (
(-500,-606,l),
(-500,-322,l),
(-700,-322,l),
(-700,-606,l)
);
},
{
closed = 1;
nodes = (
(-1300,-606,l),
(-1300,-322,l),
(-1500,-322,l),
(-1500,-606,l)
);
},
{
closed = 1;
nodes = (
(-900,-606,l),
(-900,-322,l),
(-1100,-322,l),
(-1100,-606,l)
);
}
);
width = 0;
},
{
layerId = "6D287F59-47E8-4638-B138-818E25D25DE1";
shapes = (
{
closed = 1;
nodes = (
(-576,-566,l),
(-576,-282,l),
(-624,-282,l),
(-624,-566,l)
);
},
{
closed = 1;
nodes = (
(-1376,-566,l),
(-1376,-282,l),
(-1424,-282,l),
(-1424,-566,l)
);
},
{
closed = 1;
nodes = (
(-976,-566,l),
(-976,-282,l),
(-1024,-282,l),
(-1024,-566,l)
);
}
);
width = 0;
},
{
layerId = "6553A8EE-D982-49E3-AD79-1FB562774AD6";
shapes = (
{
closed = 1;
nodes = (
(-272,-606,l),
(-272,-322,l),
(-672,-322,l),
(-672,-606,l)
);
},
{
closed = 1;
nodes = (
(-1328,-606,l),
(-1328,-322,l),
(-1728,-322,l),
(-1728,-606,l)
);
},
{
closed = 1;
nodes = (
(-800,-606,l),
(-800,-322,l),
(-1200,-322,l),
(-1200,-606,l)
);
}
);
width = 0;
}
);
script = han;
}
{
glyphname = tally5;
layers = (
{
layerId = m01;
shapes = (
{
closed = 1;
nodes = (
(-100,-606,l),
(-100,-322,l),
(-300,-322,l),
(-300,-606,l)
);
},
{
closed = 1;
nodes = (
(-1700,-606,l),
(-1700,-322,l),
(-1900,-322,l),
(-1900,-606,l)
);
},
{
closed = 1;
nodes = (
(-1300,-606,l),
(-1300,-322,l),
(-1500,-322,l),
(-1500,-606,l)
);
},
{
closed = 1;
nodes = (
(-900,-606,l),
(-900,-322,l),
(-1100,-322,l),
(-1100,-606,l)
);
},
{
closed = 1;
nodes = (
(-500,-606,l),
(-500,-322,l),
(-700,-322,l),
(-700,-606,l)
);
}
);
width = 0;
},
{
layerId = "6D287F59-47E8-4638-B138-818E25D25DE1";
shapes = (
{
closed = 1;
nodes = (
(-176,-566,l),
(-176,-282,l),
(-224,-282,l),
(-224,-566,l)
);
},
{
closed = 1;
nodes = (
(-1776,-566,l),
(-1776,-282,l),
(-1824,-282,l),
(-1824,-566,l)
);
},
{
closed = 1;
nodes = (
(-1376,-566,l),
(-1376,-282,l),
(-1424,-282,l),
(-1424,-566,l)
);
},
{
closed = 1;
nodes = (
(-976,-566,l),
(-976,-282,l),
(-1024,-282,l),
(-1024,-566,l)
);
},
{
closed = 1;
nodes = (
(-576,-566,l),
(-576,-282,l),
(-624,-282,l),
(-624,-566,l)
);
}
);
width = 0;
},
{
layerId = "6553A8EE-D982-49E3-AD79-1FB562774AD6";
width = 2000;
}
);
}
{
glyphname = "tonsi-sp.ss01";
layers = (
{
layerId = "6D287F59-47E8-4638-B138-818E25D25DE1";
shapes = (
{
attr = {
strokeHeight = 46;
strokeWidth = 46;
};
closed = 1;
nodes = (
(1201,385,o),
(1378,562,o),
(1378,788,cs),
(1378,901,o),
(1333,1002,o),
(1261,1074,cs),
(1189,1146,o),
(1088,1190,o),
(975,1191,cs),
(863,1191,o),
(762,1146,o),
(690,1074,cs),
(617,1002,o),
(572,901,o),
(572,788,cs),
(572,562,o),
(749,385,o),
(975,385,cs)
);
},
{
attr = {
strokeHeight = 46;
strokeWidth = 46;
};
closed = 0;
nodes = (
(975,-63,l),
(975,385,l)
);
},
{
attr = {
strokeHeight = 46;
strokeWidth = 46;
};
closed = 0;
nodes = (
(374,1390,l),
(690,1074,l)
);
},
{
attr = {
strokeHeight = 46;
strokeWidth = 46;
};
closed = 0;
nodes = (
(1577,1390,l),
(1261,1074,l)
);
}
);
width = 2000;
},
{
layerId = m01;
shapes = (
{
attr = {
strokeHeight = 176;
strokeWidth = 186;
};
closed = 1;
nodes = (
(1225,385,o),
(1402,562,o),
(1402,788,cs),
(1402,901,o),
(1357,1002,o),
(1285,1074,cs),
(1213,1146,o),
(1112,1190,o),
(999,1191,cs),
(887,1191,o),
(786,1146,o),
(714,1074,cs),
(641,1002,o),
(596,901,o),
(596,788,cs),
(596,562,o),
(773,385,o),
(999,385,cs)
);
},
{
attr = {
strokeHeight = 176;
strokeWidth = 186;
};
closed = 0;
nodes = (
(999,-63,l),
(999,385,l)
);
},
{
attr = {
strokeHeight = 176;
strokeWidth = 186;
};
closed = 0;
nodes = (
(398,1390,l),
(714,1074,l)
);
},
{
attr = {
strokeHeight = 176;
strokeWidth = 186;
};
closed = 0;
nodes = (
(1601,1390,l),
(1285,1074,l)
);
}
);
width = 2000;
},
{
layerId = "6553A8EE-D982-49E3-AD79-1FB562774AD6";
shapes = (
{
attr = {
strokeHeight = 300;
strokeWidth = 400;
};
closed = 1;
nodes = (
(1225,385,o),
(1402,562,o),
(1402,788,cs),
(1402,901,o),
(1357,1002,o),
(1285,1074,cs),
(1213,1146,o),
(1112,1190,o),
(999,1191,cs),
(887,1191,o),
(786,1146,o),
(714,1074,cs),
(641,1002,o),
(596,901,o),
(596,788,cs),
(596,562,o),
(773,385,o),
(999,385,cs)
);
},
{
attr = {
strokeHeight = 300;
strokeWidth = 400;
};
closed = 0;
nodes = (
(999,-63,l),
(999,385,l)
);
},
{
attr = {
strokeHeight = 300;
strokeWidth = 400;
};
closed = 0;
nodes = (
(398,1390,l),
(714,1074,l)
);
},
{
attr = {
strokeHeight = 300;
strokeWidth = 400;
};
closed = 0;
nodes = (
(1601,1390,l),
(1285,1074,l)
);
}
);
width = 2000;
}
);
}
